<svg width="3348" height="5417" viewBox="0 0 3348 5417" fill="none" xmlns="http://www.w3.org/2000/svg">
<path id="Vector" d="M2896.78 4067.76H2866.49C2819.5 4383.85 2788.3 4703.11 2729.37 5020.6C2760.08 5037.26 2797.36 5056.07 2833.23 5077.26C2888.57 5109.96 2940.13 5147.67 2978.77 5200.27C3031.44 5271.98 3015.84 5336.82 2936.26 5377.03C2880.9 5405.01 2820.3 5412.71 2760.08 5414.79C2544.7 5422.24 2335.55 5388.82 2135.08 5308.28C2102.52 5295.19 2071.75 5275.87 2043.08 5255.37C2002.14 5226.06 1981.86 5185.17 1989.67 5133.34C1992.2 5116.6 1997.15 5100.01 1997.52 5083.25C1997.71 5074.99 1992 5064.31 1985.54 5058.6C1964.62 5040.07 1942.1 5023.32 1921.02 5006.55C1898.83 5025.23 1873.29 5046.73 1849.95 5066.4C1849.95 5096.91 1849.17 5128.02 1850.12 5159.08C1851.65 5209.62 1819.21 5238.73 1783.59 5265.04C1719.55 5312.36 1644.96 5336.77 1569.39 5356.8C1414.14 5397.95 1256.19 5420.99 1095.15 5415.63C1029 5413.43 962.263 5408.52 902.481 5376.36C881.148 5364.89 860.555 5347.69 846.35 5328.22C817.836 5289.11 827.72 5240.61 867.081 5191C912.382 5133.93 971.87 5095.39 1034.32 5060.66C1061.04 5045.79 1088.7 5032.6 1116.3 5018.46C1085.41 4934.09 1082.62 4844.94 1068.95 4757.81C1055.05 4669.34 1043.69 4580.48 1031.58 4491.76C1020.91 4413.45 1010.85 4335.05 1000.33 4256.71C989.709 4177.56 978.31 4098.53 968.255 4019.31C960.334 3956.8 953.74 3894.15 946.921 3831.51C940.895 3776.06 933.99 3720.67 930.202 3665.08C928.154 3634.88 921.955 3611.06 895.938 3590.56C882.646 3580.09 874.45 3554.93 874.829 3536.65C877.601 3403.76 882.405 3270.88 888.104 3138.08C891.083 3068.67 897.195 2999.4 901.965 2929C822.503 2950.8 742.266 2963.56 660.462 2961.08C590.849 2958.96 522.303 2948.75 457.804 2920.34C347.952 2871.95 287.361 2784.31 265.89 2669.54C254.646 2609.41 252.15 2547.67 245.469 2486.66C244.815 2480.69 244.298 2472.8 240.493 2469.38C219.125 2450.13 214.442 2426.02 215.906 2398.85C218.213 2356.37 219.401 2313.83 221.157 2269.01C118.244 2254.58 111.701 2177.1 120.396 2092.31C61.355 2077.02 21.0816 2044.41 5.43029 1986.9C-2.80001 1956.7 -2.66228 1925.8 12.748 1897.4C19.0154 1885.87 19.7214 1877.26 14.246 1864.72C-2.28344 1826.86 -3.09268 1788.36 14.5732 1749.81C17.9307 1742.49 18.3439 1731.04 15.0036 1723.9C-19.7599 1649.5 17.793 1560.01 96.8245 1535.89C115.816 1530.09 119.553 1521.98 119.346 1504.14C118.451 1422.18 118.915 1340.21 118.967 1258.23C119.002 1193.3 161.858 1149.88 226.082 1149.86C381.097 1149.81 536.112 1149.81 691.128 1149.86C756.609 1149.89 798.328 1192.08 798.225 1257.89C798.07 1363.38 798.173 1468.9 797.485 1574.39C797.381 1589.8 800.412 1595.59 817.699 1598.94C909.282 1616.71 936.194 1695.71 925.485 1766.91C909.919 1870.32 866.375 1962.02 804.027 2045.36C800.102 2050.61 797.863 2058.33 797.691 2064.95C796.761 2099.82 795.108 2134.83 797.175 2169.57C798.122 2185.33 807.075 2200.62 812.568 2216.6C966.498 2142.32 1118.72 2068.86 1271.21 1995.29C1211.48 1891.12 1188.79 1777.74 1185.94 1659.21C1185.74 1650.67 1183.14 1637.51 1177.42 1634.48C1113.94 1600.79 1086.1 1543.93 1071.55 1477.61C1052.43 1390.62 1054.47 1304.65 1082.33 1219.58C1099.8 1166.2 1136.36 1132.4 1189.1 1116.56C1202.87 1112.41 1206.86 1107.36 1206.8 1093.61C1206.3 987.285 1206.8 880.963 1206.06 774.658C1206 766.892 1200.41 756.664 1194.12 751.809C1118.23 693.078 1063.37 619.763 1039.9 525.923C1004.72 385.285 1070.86 242.15 1203.9 170.919C1293.11 123.155 1388.64 105.248 1489.48 116.785C1512.64 119.436 1533.08 117.835 1554.1 101.34C1622.99 47.3092 1704.13 22.6699 1789.87 9.58411C1909.52 -8.6844 2027.07 -2.07265 2140.61 40.1464C2183.07 55.9355 2224.12 78.6118 2261.22 104.68C2285.43 121.692 2307.61 117.37 2331.51 115.803C2447.8 108.175 2557.72 128.166 2652.37 199.329C2794.28 306.013 2826.39 481.087 2730.64 632.211C2704.28 673.81 2666.09 708.298 2631 743.733C2618.67 756.182 2611.75 766.341 2611.92 784.42C2612.85 886.679 2612.61 988.938 2612.14 1091.2C2612.08 1106.14 2615.07 1112.6 2631.79 1117.3C2700.28 1136.57 2732.19 1188.01 2746 1254.34C2763.77 1339.67 2764.9 1424.56 2738.6 1508.19C2722.15 1560.43 2694.05 1604.75 2642.31 1630.06C2637.42 1632.45 2632.31 1640.47 2632.34 1645.86C2633.15 1768.82 2609.22 1885.87 2550.56 1994.12C2647.87 2038.96 2744.4 2083.43 2840.94 2127.92C3015.5 2208.37 3129.41 2341.89 3186.42 2524.51C3226.08 2651.51 3253.99 2781.2 3269.95 2913.28C3282.17 3014.31 3292.52 3115.57 3304.3 3216.66C3305.13 3223.81 3309.6 3231.5 3314.54 3237.03C3330.33 3254.73 3337.58 3274.57 3338.43 3298.55C3340.51 3357.7 3344.43 3416.77 3347.81 3475.87C3349.91 3512.66 3334.59 3540.52 3303.23 3558.51C3288.63 3566.9 3283.9 3576.8 3284.08 3593.36C3284.95 3668.83 3286.22 3744.37 3284 3819.78C3280.47 3939.48 3263.42 4056.03 3193.02 4158.19C3153.55 4215.46 3109.66 4268.16 3045.37 4298.62C3008.25 4316.2 2969.28 4318.04 2930.3 4302.06C2886.9 4284.28 2869.18 4249.75 2865.65 4205.37C2862.43 4164.97 2867.96 4126.49 2888.53 4090.81C2892.01 4084.8 2893.34 4077.56 2896.78 4067.69V4067.76ZM1034.98 3647.91C1040.14 3701.67 1044.03 3751.61 1049.94 3801.32C1060.32 3888.67 1071.91 3975.88 1083.08 4063.13C1094.77 4154.35 1106 4245.64 1118.48 4336.74C1130.31 4423.04 1143.55 4509.13 1156.12 4595.32C1172.17 4705.42 1189.41 4815.37 1203.2 4925.76C1206.16 4949.54 1217.64 4956.72 1235.81 4963.5C1311 4991.55 1389.91 4998.38 1468.82 5001.38C1526.18 5003.55 1584.25 5002.72 1641.18 4996.06C1694.31 4989.84 1746.45 4974.67 1798.77 4962.36C1814.27 4958.71 1821.86 4947.26 1822.67 4930.15C1829.04 4794.99 1836.98 4659.87 1842.51 4524.68C1847.38 4405.58 1849.4 4286.36 1853.37 4167.21C1855.42 4105.64 1858.37 4044.08 1862.19 3982.61C1864.07 3952.53 1886.62 3931.55 1913.34 3931.58C1940.15 3931.61 1963.26 3952.03 1964.91 3982.37C1972.06 4112.66 1977.9 4243.01 1984.16 4373.35C1987.74 4447.82 1990.6 4522.34 1994.94 4596.77C2000.49 4692.14 2008.53 4787.38 2012.95 4882.78C2016.14 4951.26 2021.84 4961.23 2088.73 4977.62C2191.07 5002.71 2295.43 5007.65 2399.69 4999.93C2463.59 4995.2 2527.29 4982.56 2589.95 4968.41C2637.8 4957.59 2636.01 4953.05 2642.04 4904.51C2651.25 4830.13 2663.08 4756.07 2673.63 4681.86C2685.79 4596.46 2698.05 4511.08 2709.74 4425.62C2720.36 4348.05 2730.35 4270.42 2740.49 4192.78C2751.46 4108.79 2760.08 4024.42 2773.77 3940.89C2786.12 3865.63 2802.39 3790.92 2820 3716.7C2828.41 3681.33 2843.95 3647.67 2857.25 3610.46C2762.98 3643.79 2669.17 3662.11 2574.14 3672.88C2446.51 3687.3 2318.8 3703.46 2190.66 3710.19C2052.26 3717.45 1913.33 3715.8 1774.63 3715.87C1711.46 3715.9 1648.24 3711.44 1585.11 3707.73C1508.34 3703.21 1431.54 3698.53 1354.96 3691.68C1291.51 3686 1228.25 3677.77 1165.09 3669.26C1122.31 3663.51 1079.88 3655.37 1034.98 3647.91ZM1443.6 3589.92C1544.96 3594.86 1642.78 3601.94 1740.71 3603.95C1986.31 3609.01 2231.95 3608.53 2475.95 3574.78C2573.2 3561.32 2669.95 3543.67 2766.37 3524.97C2814.25 3515.69 2816.44 3512.73 2817.44 3463.36C2819.43 3364.48 2820.11 3265.49 2817.49 3166.64C2815.37 3086.58 2808.91 3006.55 2801.99 2926.71C2796.41 2862.36 2787.56 2798.28 2779.52 2734.16C2774.82 2696.6 2767.01 2659.36 2764.04 2621.71C2761.6 2590.61 2784.67 2565.81 2813.25 2562.89C2838.03 2560.34 2866.03 2583.6 2870.35 2612.39C2882.18 2691.4 2895.87 2770.26 2903.8 2849.69C2913.46 2946.27 2918.25 3043.36 2924.65 3140.25C2927.38 3181.3 2928.86 3222.45 2930.94 3264.27C3019.23 3264.62 3105.84 3259.59 3191.45 3237.88C3186.35 3179.95 3182.7 3123.55 3176.13 3067.48C3166.26 2983.32 3155.45 2899.23 3143.03 2815.41C3129.21 2722.19 3108.6 2630.5 3075.35 2541.92C3022.25 2400.38 2934.04 2291.36 2793 2228.89C2720.84 2196.93 2649.99 2162.01 2578.5 2128.54C2567.36 2123.32 2555.96 2118.73 2544.32 2113.68C2511.28 2234.62 2437.74 2313.5 2343.44 2382.85C2194.6 2492.29 2023.01 2531.98 1842.59 2536.91C1725.91 2540.09 1609 2534.49 1492.17 2532.69C1449.64 2532.03 1443.63 2537.8 1443.63 2581.29C1443.63 2907.58 1443.63 3233.86 1443.63 3560.15V3589.94L1443.6 3589.92ZM2485.83 1057.04C2328.15 1004.54 2172.13 985.098 2014.83 980.673C1901.65 977.488 1788.06 984.013 1674.82 989.54C1567.43 994.792 1462.5 1016.09 1359.43 1047.01C1341.87 1052.28 1335.45 1059.19 1335 1077.9C1333.07 1157.3 1331.77 1236.85 1325.52 1315.96C1318.64 1402.83 1306.44 1489.28 1296.88 1575.94C1284.67 1686.77 1302.24 1793.66 1346.9 1894.98C1392.24 1997.8 1461.66 2080.11 1567.72 2125.77C1623.72 2149.87 1678.99 2149.81 1732.04 2116.57C1782.3 2085.1 1791.78 2043.93 1760.34 1995.32C1756 1988.61 1752.22 1981.48 1748.65 1974.32C1738.18 1953.29 1736.12 1933.17 1753.34 1913.8C1770.81 1894.15 1790.04 1898.71 1810.74 1906.84C1855.56 1924.44 1901.22 1937.51 1949.78 1923.94C1972.99 1917.46 1995.63 1908.99 2018.77 1902.23C2039.02 1896.32 2057.5 1900.18 2071.49 1916.84C2085.99 1934.11 2084.32 1952.4 2072.37 1970.34C2065.66 1980.43 2059.92 1991.76 2051.23 1999.82C2034.04 2015.76 2035.28 2033.38 2041.79 2052.94C2058.11 2101.96 2107.84 2136.62 2162.1 2138.73C2216.99 2140.89 2265.63 2122.72 2309.41 2092.62C2449.88 1996.05 2513.79 1855.81 2523.16 1691.03C2527.53 1614.18 2515.17 1536.3 2509.06 1458.99C2502.1 1371.23 2492.31 1283.68 2486.38 1195.87C2483.28 1149.93 2485.83 1103.63 2485.83 1057.04ZM358.128 2494C355.648 2559.2 364.826 2617.59 381.166 2675.44C404.6 2758.43 458.441 2809.61 540.503 2832.08C662.373 2865.45 781.971 2846.82 900.639 2814.29C905.718 2812.9 911.486 2804.98 912.468 2799.33C916.738 2774.69 920.113 2749.83 922.403 2724.91C925.95 2686.22 947.868 2662.99 980.944 2664.54C1011.2 2665.96 1031.53 2689.98 1029.21 2727.32C1026.38 2772.42 1019.29 2817.24 1015.54 2862.3C1006.87 2966.29 997.181 3070.27 991.516 3174.44C985.748 3280.44 984.612 3386.69 980.652 3492.79C980.015 3510.01 984.044 3518.93 1002.4 3522.39C1065.52 3534.34 1128.16 3548.84 1191.39 3560.22C1237.77 3568.55 1284.76 3573.51 1333.33 3580.22C1333.33 3569.33 1333.33 3561.34 1333.33 3553.35C1333.28 3431.65 1333.23 3309.95 1333.19 3188.25C1333.13 2980.57 1333 2772.86 1333.04 2565.18C1333.04 2486.68 1368.54 2437.02 1437.61 2423.45C1459.85 2419.08 1483.7 2422.77 1506.81 2422.77C1399.93 2340.51 1313.5 2247.07 1279.94 2112.18C1128.5 2186.14 979.412 2258.85 830.526 2331.99C824.018 2335.19 817.062 2341.38 814.393 2347.85C792.75 2400.33 751.15 2430.51 700.615 2450.09C619.035 2481.67 533.03 2489.19 446.75 2493.76C417.772 2495.29 388.638 2494 358.162 2494H358.128ZM2385.71 633.089C2435.49 647.949 2484.4 662.98 2533.7 676.72C2539.19 678.253 2547.96 673.914 2553.12 669.73C2596.44 634.639 2631.88 593.126 2654.02 541.316C2691.07 454.64 2677.64 371.493 2612.21 310.214C2527.93 231.286 2423.67 221.575 2315.23 232.095C2280.04 235.504 2246.14 239.688 2217.25 211.915C2179.24 175.378 2133.2 152.116 2083.18 136.93C2000.78 111.912 1916.8 106.97 1831.35 117.095C1747.26 127.064 1668.12 150.308 1602.81 205.923C1571.92 232.215 1539.26 238.879 1501.67 233.369C1444.27 224.966 1386.83 224.484 1330.73 239.671C1249.29 261.744 1182.54 303.86 1151.8 387.472C1111.06 498.34 1194.12 630.094 1276.65 673.501C1282.66 676.669 1292.16 676.049 1299.14 674.034C1342.25 661.551 1385.09 648.155 1428.94 634.794C1428.14 632.573 1427.29 629.56 1425.97 626.77C1410.28 594.28 1412.24 576.665 1433.83 557.347C1452.45 540.679 1476.09 540.335 1502.81 558.19C1521.6 570.742 1538.81 585.619 1557.46 598.377C1564.06 602.889 1573.1 607.142 1580.59 606.487C1655.43 599.996 1730.07 588.322 1805.01 586.101C1942.67 582.02 2080.53 581.865 2217.21 604.197C2237.6 607.538 2255.28 605.867 2271.74 589.166C2286.81 573.876 2305.14 558.862 2324.91 552.043C2340.91 546.516 2363.12 548.91 2379.04 555.849C2398.74 564.423 2401.34 586.462 2397.3 606.711C2395.51 615.699 2389.84 623.912 2385.69 633.038L2385.71 633.089ZM687.426 2156.95V1259.57H228.888C228.888 1345.27 229.215 1429.48 228.613 1513.7C228.492 1529.99 233.158 1538.73 248.913 1546.29C312.104 1576.63 338 1639.65 318.784 1706.64C316.236 1715.53 319.387 1728.13 324.139 1736.66C347.573 1778.63 351.292 1821.04 327.238 1863.19C319.749 1876.31 320.196 1885.58 325.947 1898.47C350.845 1954.29 339.377 2009.72 292.492 2049.27C274.551 2064.4 251.685 2073.72 229.766 2086.44V2156.93H687.409L687.426 2156.95ZM2500.45 945.996C2500.45 899.111 2499.38 854.515 2500.93 810.006C2501.64 789.741 2495.51 780.839 2475.59 774.399C2301.2 718.027 2121.67 695.901 1939.41 692.32C1811.29 689.806 1683.58 698.553 1557.74 722.297C1482.96 736.416 1409.68 758.645 1336 778.308C1328.8 780.219 1318.56 789.62 1318.37 795.801C1316.91 844.15 1317.56 892.568 1317.56 943.258C1511.99 884.441 1709.15 866.689 1908.51 867.584C2107.7 868.479 2305.09 884.286 2500.47 945.996H2500.45ZM3173.2 3591.4C3109.48 3594.15 3045.63 3596.63 2981.85 3600.18C2976.88 3600.46 2969.85 3607.26 2967.96 3612.51C2947.11 3670.72 2923.9 3728.37 2907.88 3787.93C2895.66 3833.42 2891.42 3881.3 2886.83 3928.43C2885.71 3939.96 2897.04 3952.72 2902.63 3964.91C2912.89 3954.98 2923.85 3945.63 2933.09 3934.83C2936.91 3930.37 2937.72 3922.92 2938.88 3916.65C2942.39 3897.68 2944.59 3878.41 2948.76 3859.59C2956.01 3826.84 2978.57 3810.19 3009.2 3813.57C3036.76 3816.6 3058.7 3840.27 3054.79 3871.73C3048.47 3922.63 3040.67 3973.88 3026.95 4023.16C3014.31 4068.57 2991.58 4111.06 2976.52 4155.92C2972.04 4169.24 2978.5 4186.24 2979.94 4201.54C2994.65 4197.22 3009.37 4192.95 3024.02 4188.47C3025.42 4188.04 3026.4 4186.34 3027.64 4185.29C3073.75 4145.76 3108.98 4098.27 3133.58 4042.65C3161.8 3978.9 3173.41 3912.05 3173.22 3842.72C3172.99 3759.4 3173.17 3676.06 3173.17 3591.38L3173.2 3591.4ZM1415 2168.11C1419.29 2174.63 1423.09 2181.57 1427.98 2187.62C1444.29 2207.75 1459.49 2229.08 1477.79 2247.24C1604.09 2372.68 1755.47 2432.08 1934.02 2416.48C2074.63 2404.2 2203.35 2359.2 2312.24 2267.46C2349.43 2236.12 2380.54 2197.57 2414.43 2162.31C2412.67 2160.67 2410.9 2159.03 2409.14 2157.42C2111.9 2415.02 1702.03 2424.42 1415 2168.09V2168.11ZM713.184 2269.99C593.38 2269.99 474.23 2269.82 355.08 2270.52C349.105 2270.56 340.393 2276.95 337.69 2282.63C322.624 2314.38 316.494 2348 319.748 2384.42C325.706 2385.09 330.389 2386.25 335.021 2386.02C402.155 2382.99 469.547 2382.3 536.353 2375.79C589.764 2370.59 643.244 2360.69 690.835 2332.61C720.726 2314.98 722.844 2308.83 713.201 2269.97L713.184 2269.99ZM2926.2 3488.64C3031.27 3487.59 3135.47 3488.31 3238.39 3467.57C3235.58 3422.76 3233.07 3382.53 3230.4 3340.1C3130.17 3367.7 3029.72 3377.36 2926.19 3375.95L2926.2 3488.64ZM2600.25 1215.65C2596.98 1217.61 2593.69 1219.59 2590.42 1221.56C2600.76 1315 2611.11 1408.46 2621.46 1501.9C2658.43 1419.79 2659.8 1336.78 2632.27 1253.87C2627.4 1239.2 2611.21 1228.29 2600.25 1215.65ZM1187.49 1506.95C1189.99 1506.36 1192.47 1505.78 1194.97 1505.19C1205.37 1411.49 1215.77 1317.79 1226.36 1222.43C1199.15 1225.1 1184.39 1239.84 1181.35 1260.54C1174.6 1306.58 1167.66 1353.21 1168.3 1399.51C1168.79 1435.41 1180.66 1471.13 1187.48 1506.95H1187.49ZM171.672 1993.45C182.743 1989.44 201.614 1984.68 218.196 1975.68C225.617 1971.65 232.125 1959.05 231.987 1950.44C231.901 1944.7 219.78 1935.1 212.255 1934.25C183.415 1931.05 154.23 1929.12 125.252 1929.83C105.898 1930.29 99.7 1945.18 109.032 1962.66C120.62 1984.39 140.696 1991.05 171.655 1993.43L171.672 1993.45ZM177.819 1837.42C189.613 1834.87 207.228 1832.65 223.499 1826.74C229.284 1824.64 235.018 1813.62 235.018 1806.66C235.018 1799.28 228.699 1785.8 224.308 1785.45C191.852 1782.9 159.103 1781.65 126.629 1783.39C120.413 1783.71 109.549 1799.93 110.651 1807.37C111.976 1816.34 122.325 1827.24 131.381 1830.99C143.555 1836.06 158.207 1835.07 177.819 1837.42ZM168.642 1687.05C168.693 1686.57 168.728 1686.1 168.779 1685.62C177.664 1685.62 186.79 1686.88 195.347 1685.22C202.51 1683.85 214.459 1679.44 214.735 1675.69C215.355 1667.25 212.376 1656.14 206.659 1650.13C190.853 1633.54 142.349 1630.13 125.252 1644.42C118.933 1649.7 114.749 1660.52 114.508 1668.94C114.387 1673.36 124.236 1680.49 130.675 1682.19C142.918 1685.41 155.952 1685.6 168.642 1687.07V1687.05ZM797.743 1709.52V1833.85C817.544 1783.13 831.422 1727.32 797.743 1709.52Z" fill="black"/>
</svg>
