<svg width="23" height="12" viewBox="0 0 23 12" fill="none" xmlns="http://www.w3.org/2000/svg">
<path id="Vector" d="M22.1591 3.99867L18.4499 0.281231C18.3608 0.192118 18.2548 0.121388 18.138 0.0731191C18.0213 0.0248507 17.896 0 17.7695 0C17.6429 0 17.5177 0.0248507 17.4009 0.0731191C17.2841 0.121388 17.1781 0.192118 17.089 0.281231C16.9105 0.459366 16.8103 0.700335 16.8103 0.95151C16.8103 1.20269 16.9105 1.44365 17.089 1.62179L20.501 5.03499H0.958439C0.704245 5.03499 0.460462 5.13516 0.28072 5.31346C0.100978 5.49176 0 5.73358 0 5.98574C0 6.23789 0.100978 6.47972 0.28072 6.65802C0.460462 6.83632 0.704245 6.93649 0.958439 6.93649H20.5585L17.089 10.3687C16.9991 10.4571 16.9278 10.5622 16.8792 10.6781C16.8305 10.794 16.8055 10.9182 16.8055 11.0437C16.8055 11.1692 16.8305 11.2935 16.8792 11.4094C16.9278 11.5252 16.9991 11.6304 17.089 11.7188C17.1781 11.8079 17.2841 11.8786 17.4009 11.9269C17.5177 11.9752 17.6429 12 17.7695 12C17.896 12 18.0213 11.9752 18.138 11.9269C18.2548 11.8786 18.3608 11.8079 18.4499 11.7188L22.1591 8.02985C22.6976 7.49505 23 6.77011 23 6.01426C23 5.25841 22.6976 4.53347 22.1591 3.99867Z" fill="#F96700"/>
</svg>
