<svg width="27" height="40" viewBox="0 0 27 40" fill="none" xmlns="http://www.w3.org/2000/svg">
<path id="Mobile2" d="M18.6384 0.00125001C18.5929 -0.000416671 8.40712 -0.000416671 8.36156 0.00125001C3.74456 0.0412504 0 3.76462 0 8.333V31.6666C0 36.2616 3.78506 40 8.4375 40H18.5625C23.2149 40 27 36.2616 27 31.6666V8.33467C27 3.76462 23.2554 0.0429171 18.6384 0.00125001ZM23.625 31.6666C23.625 34.4233 21.3536 36.6666 18.5625 36.6666H8.4375C5.64637 36.6666 3.375 34.4233 3.375 31.6666V8.33467C3.375 5.91298 5.12663 3.88962 7.44356 3.43129L8.61469 5.74631C8.89987 6.31132 9.48544 6.66799 10.125 6.66799H16.875C17.5146 6.66799 18.0984 6.31132 18.3853 5.74631L19.5564 3.43129C21.8734 3.88796 23.625 5.91298 23.625 8.33467V31.6666ZM15.1875 33.3333H11.8125C10.881 33.3333 10.125 32.5866 10.125 31.6666C10.125 30.7466 10.881 29.9999 11.8125 29.9999H15.1875C16.119 29.9999 16.875 30.7466 16.875 31.6666C16.875 32.5866 16.119 33.3333 15.1875 33.3333Z" fill="#A72901"/>
</svg>
