<svg width="592" height="994" viewBox="0 0 592 994" fill="none" xmlns="http://www.w3.org/2000/svg">
<g id="Group">
<path id="Vector" d="M452.544 111.297C449.461 114.381 439.431 120.079 438.729 123.24L438.572 176.161C439.002 178.425 447.627 181.079 450.476 183.264C462.692 192.67 462.496 213.55 461.56 227.678C460.623 241.806 455.315 256.402 443.49 265.105C443.685 279.077 441.031 292.971 436.036 306.007C434.943 308.817 430.572 315.529 431.001 317.676C431.274 318.925 432.913 320.876 433.46 322.398C434.045 323.998 433.343 326.496 434.592 327.589C466.985 338.673 507.925 351.2 531.302 377.544C562.837 413.059 576.301 503.565 579.658 550.32C579.892 553.364 578.877 564.096 580.633 565.579C582.116 566.828 586.331 565.814 588.751 568.936C590.429 571.161 591.327 577.483 591.522 580.41C591.99 586.733 592.498 613.115 591.015 617.916C589.336 623.263 582.038 625.76 577.199 627.243L579.658 662.017C580.672 695.347 579.072 724.266 555.851 750.063C546.953 759.937 528.961 774.768 515.457 765.05C503.944 756.737 509.252 742.726 511.437 731.408C499.3 730.081 495.202 723.564 495.553 711.933C495.826 701.981 498.324 682.545 501.173 673.179C503.398 665.881 510.345 657.607 511.203 651.518C512.179 644.806 510.54 638.21 510.618 631.497L505.466 639.42C502.734 643.674 495.592 645.547 494.148 650.309C489.113 707.367 483.415 764.386 476.429 821.25C472.761 851.223 469.404 882.445 464.253 912.145C463.628 915.658 460.584 922.605 462.614 924.829C475.142 934.43 493.68 943.914 501.719 957.847C527.517 1002.57 440.524 994.611 419.41 991.02C401.067 987.859 359.151 977.439 346.506 964.052C337.881 954.881 339.403 943.953 340.886 932.479L331.051 924.829L321.88 931.698C324.963 946.802 324.69 958.9 311.42 968.579C284.023 988.561 194.415 1004.06 165.535 985.713C139.933 969.438 178.063 941.26 191.254 931.659C193.283 930.176 203.001 924.556 202.923 923.034C200.738 918.117 199.489 912.887 198.513 907.579C187.82 848.608 185.712 785.735 176.892 726.296C173.145 701.981 174.316 675.052 170.491 651.05C169.828 646.757 165.691 646.523 162.998 644.259C157.885 639.966 153.788 634.034 153.085 627.204C151.368 610.344 153.28 588.06 153.866 570.926C154.451 553.793 155.036 536.582 156.246 519.41C156.988 508.755 159.212 497.905 158.627 487.29H157.495C124.283 495.993 78.1519 504.852 54.4621 472.967C43.4563 458.136 39.2023 439.052 36.6655 421.021C35.7288 414.425 36.1971 401.117 32.9578 396.199C31.3577 393.78 28.899 392.18 27.416 389.057C23.5132 380.744 20.5861 352.723 21.5227 343.434C22.1082 337.658 24.1377 333.989 29.4064 331.492C33.7775 329.462 38.6169 330.867 37.368 324.428C36.8996 322.125 32.0211 318.652 30.2649 316.466C16.2149 298.943 -1.46453 234.82 0.0965817 212.613C0.838108 201.764 6.34101 196.378 16.6833 193.919C14.5758 178.776 26.2841 166.99 41.3098 172.61C46.5395 158.716 63.9849 157.935 72.7661 169.292C107.267 155.789 103.754 209.296 112.301 228.888C116.282 221.121 120.965 211.638 129.59 208.125C140.635 203.637 151.875 209.062 153.046 221.277C145.397 251.524 148.441 286.61 126.273 311.08L126.546 312.134C128.186 313.539 130.839 314.437 132.205 316.037C135.64 320.135 137.669 350.069 139.933 358.264C140.128 358.967 140.245 359.709 140.557 360.372H142.392C169.672 348.547 197.381 337.619 225.872 328.877C228.408 327.55 231.96 317.52 231.296 315.217C230.555 312.563 227.667 308.66 226.496 305.694C223.647 298.357 220.876 289.224 219.822 281.419C219.237 277.165 219.666 268.033 218.769 265.028C218.261 263.388 212.29 258.588 210.69 256.48C197.343 238.879 193.401 192.631 216.271 180.532C219.081 179.049 223.686 179.362 223.725 175.303L223.53 121.523C223.023 119.805 214.671 115.2 212.563 113.444C190.942 95.4521 186.532 64.8154 202.416 41.4378C218.3 18.0602 246.205 15.9917 270.753 21.6898C301.624 -7.07361 360.712 -7.38583 391.427 21.6898C408.404 17.8651 427.996 17.8651 443.49 26.8024C473.697 44.2088 476.507 87.1392 452.466 111.18L452.544 111.297ZM410.043 103.648C419.722 105.014 424.405 109.658 433.772 103.999C467.765 83.3927 451.647 33.9054 409.653 36.2861C401.652 36.7544 395.798 40.7352 389.632 41.6329C382.256 42.7647 378.704 34.53 373.591 30.315C352.204 12.6745 310.094 13.6112 288.745 31.0956C285.545 33.7104 280.12 41.3208 276.413 41.7891C273.212 42.1794 267.241 38.9791 263.572 38.0815C212.329 25.4365 188.483 84.3682 235.356 106.809L250.381 102.906C252.332 99.9403 246.908 91.2373 251.084 87.7248C259.553 82.9244 263.494 98.1842 269.466 98.8867C310.172 92.0568 351.736 90.6909 392.208 99.6673C399.272 98.2232 399.818 86.4759 407.272 86.9833C417.771 87.6858 408.443 102.048 410.043 103.687V103.648ZM422.727 150.013C423.664 144.315 422.727 133.426 422.727 127.025C422.727 126.05 421.244 123.864 420.151 123.24C416.6 121.328 401.535 118.556 396.579 117.503C347.794 107.043 295.224 107.278 247.22 121.952C244.566 122.771 241.444 123.162 239.609 125.464V152.003C247.376 151.457 254.908 148.491 262.597 146.852C306.776 137.446 362.976 138.422 407.038 148.296C411.644 149.31 416.171 151.067 420.815 152.003H421.869C421.83 151.223 422.649 150.442 422.727 150.052V150.013ZM422.571 170.385C402.199 163.438 380.46 159.731 358.917 158.326C326.602 156.218 288.745 157.155 257.484 165.546C255.064 166.209 241.171 169.917 240.351 170.62C239.844 171.049 239.57 171.517 239.57 172.22C239.375 181.977 239.336 191.851 238.79 201.568C236.331 242.899 225.403 287.273 255.025 321.696C268.841 337.736 305.293 353.113 317.314 327.667C310.406 323.53 300.805 315.568 299.868 306.904C298.424 293.791 317.118 304.953 324.065 305.694C330.349 306.358 339.676 306.123 345.765 304.601C350.955 303.313 356.146 298.708 361.259 300.972C366.02 304.367 360.205 315.88 357.278 319.276C354.351 322.671 349.433 323.842 346.819 327.55C354.039 347.961 378.197 341.912 392.754 333.365C439.353 306.045 425.966 249.26 423.43 204.691C422.805 193.295 422.844 181.742 422.493 170.346L422.571 170.385ZM61.331 229.59C62.0725 230.098 72.3758 228.576 72.2978 226.195C69.8781 219.131 64.3361 180.376 60.0821 177.332C57.9746 175.81 55.4379 176.474 54.0329 178.542C51.0668 182.991 54.228 197.861 55.2427 203.559C56.7648 212.34 58.9503 221.043 61.292 229.629L61.331 229.59ZM51.7301 338.282C61.6432 338.907 70.7758 337.697 80.4156 335.668C85.2941 334.653 104.925 329.423 107.657 326.457C110.389 323.491 107.696 312.836 109.14 308.153C109.881 305.694 115.541 301.44 117.492 299.06C124.829 290.083 128.146 282.356 130.761 271.077C133.376 259.798 138.059 236.966 138.177 226.117C138.255 219.56 134.079 220.263 130.176 223.736C122.331 230.761 120.029 249.846 113.316 253.67C104.066 258.9 98.8757 259.134 93.2947 270.14C91.6165 273.418 90.1725 281.263 88.2211 283.292C85.138 286.493 83.0305 283.449 82.6012 280.092C81.1571 267.994 89.3138 256.246 98.056 248.753C99.539 247.465 102.271 247.309 102.466 245.201C99.8512 236.42 97.0804 227.678 94.7387 218.819C93.4118 213.823 87.0112 184.552 85.411 182.952C83.928 181.43 80.1813 181.82 79.0495 183.772C77.6055 186.699 81.196 210.779 82.2107 215.501C82.64 217.57 84.2013 224.907 85.0599 226.117C86.4259 228.068 91.1872 227.561 88.4553 232.986C75.7713 236.693 62.5799 238.606 50.3642 243.874C46.9688 245.318 35.5727 252.5 33.231 251.836C30.7333 250.392 30.1868 246.528 29.2892 243.836C25.5426 232.752 23.0058 221.16 19.5714 209.959C14.2246 206.837 15.0442 217.297 15.2393 220.653C16.6443 243.484 29.0941 291.02 44.1587 308.27C45.915 310.299 52.4326 315.412 52.94 316.934C54.8133 322.554 50.208 332.077 51.6911 338.4L51.7301 338.282ZM36.4704 187.089C35.3386 185.996 32.3334 185.879 31.3187 187.089C26.4793 192.748 37.3679 230.527 40.9975 238.372L50.8326 234.313L50.9886 233.259L36.4704 187.089ZM441.734 241.572C444.31 239.659 445.48 235.249 446.261 232.205C448.954 221.59 450.632 201.568 439.353 195.597L441.734 241.572ZM222.945 196.417C217.988 197.978 215.529 203.832 215.022 208.711C213.929 219.482 215.178 231.776 219.783 241.611L222.945 196.456V196.417ZM120.692 336.721C95.4413 348.781 66.9899 357.016 38.7729 351.825L37.6412 353.542C39.3584 359.787 37.9924 375.671 41.544 380.588C43.2612 383.008 48.53 383.984 51.379 384.218C76.5128 386.56 102.974 379.066 124.517 366.616C124.868 356.586 122.37 346.517 120.731 336.643L120.692 336.721ZM415.585 339.883C414.219 339.531 413.985 340.468 413.204 341.053C406.648 346.088 400.833 354.167 393.769 359.67C365.864 381.447 329.802 386.794 296.473 374.539C277.349 367.514 261.036 354.362 247.922 339.063C246.127 338.751 246.83 339.843 246.752 341.014C245.581 355.494 269.231 373.524 280.823 379.886C314.582 398.424 359.776 396.043 391.271 373.759C401.613 366.46 416.132 353.542 415.585 339.804V339.883ZM525.995 583.806C523.458 581.269 523.224 574.01 527.126 572.292L562.681 566.633C564.905 563.589 559.91 518.746 558.973 511.604C554.446 477.104 543.245 417.353 520.648 390.619C499.3 365.329 464.448 355.494 434.319 344.8C431.938 345.268 429.986 354.596 428.699 357.367C410.317 396.59 348.263 411.928 308.962 414.386C296.746 415.167 282.228 413.84 270.207 415.284C261.582 416.338 258.46 421.685 257.796 429.841C256.509 446.389 257.211 467.503 256.977 484.519C256.313 537.987 257.211 591.689 257.406 645.079C258.616 647.577 268.529 647.928 271.69 648.24C319.499 652.611 381.67 651.597 429.323 645.782C442.358 644.181 483.766 638.679 492.47 630.444C495.085 627.985 495.397 622.209 495.631 618.54C497.036 596.958 494.187 575.063 494.851 553.481L491.65 500.403C491.494 483.739 486.108 464.303 486.03 448.067C486.03 439.208 496.294 437.959 499.924 443.774C501.993 447.131 503.593 459.463 504.256 464.03C509.486 501.145 510.735 542.905 511.515 580.41C511.749 592.118 511.164 603.905 511.593 615.613C516.745 617.799 522.638 615.964 527.751 615.73C539.927 615.184 552.884 615.067 564.905 613.232C566.895 612.92 573.023 611.866 574.389 611.008C576.34 609.759 575.95 595.319 575.755 592.275C575.638 590.635 575.13 584.742 574.818 583.688C574.194 581.737 568.418 582.284 566.583 582.362C555.89 582.908 544.22 585.64 533.332 585.601C531.146 585.601 527.634 585.367 526.034 583.766L525.995 583.806ZM230.048 345.503C228.721 345.151 227.394 345.502 226.106 345.815C214.475 348.312 196.991 355.455 185.517 359.904C172.092 365.134 158.861 371.183 145.826 377.271C140.557 381.135 146.411 396.434 137.591 398.385C129.629 400.141 127.834 390.853 127.717 384.803L125.922 383.476C102.427 396.082 76.9421 401.898 50.1692 400.141C52.6669 423.597 56.4915 462.312 80.2593 474.294C95.7143 482.099 116.204 479.523 132.752 476.792C137.318 476.05 159.056 471.952 161.164 469.532C165.73 464.381 160.305 439.833 172.755 439.208C180.365 438.818 179.624 446.779 179.351 452.048C178.687 465.396 175.76 479.797 174.589 493.261C171.936 524.171 169.711 555.823 169.008 586.772C168.696 600.314 168.891 613.974 169.555 627.517C171.272 633.098 184.385 636.064 189.771 637.43C206.241 641.566 224.233 643.362 241.171 644.298C241.99 585.523 240.117 526.669 241.171 467.893C241.171 466.02 241.99 464.303 242.029 462.391C242.458 442.447 236.526 409.976 260.021 401.117C266.343 398.736 272.822 399.907 279.262 398.151C258.889 385.506 235.355 370.793 230.048 345.503ZM561.315 629.312L527.868 632.512C527.165 632.629 526.853 633.019 526.619 633.644C525.565 636.688 526.892 646.796 526.541 651.011C525.565 663.734 517.838 669.276 514.833 680.555C513.623 685.121 509.33 714.002 511.008 716.422C514.481 721.495 520.101 709.709 521.116 707.406C522.833 703.308 524.863 690.819 528.531 690.234C538.835 688.517 535.127 708.421 534.073 714.041C532.473 722.588 521.662 744.56 523.497 750.727C526.112 759.508 542.62 742.258 545.157 739.409C566.271 715.758 565.061 691.834 563.773 662.095C563.578 657.919 562.798 630.287 561.275 629.312H561.315ZM478.186 653.782C453.208 658.739 427.918 662.954 402.472 664.866C353.297 668.534 298.619 667.286 249.484 662.485C228.37 660.417 207.412 656.904 186.454 653.782C187.39 668.183 188.288 682.624 189.615 696.986C194.064 744.209 199.801 791.667 205.577 838.773C208.036 859.029 210.144 880.533 213.539 900.554C214.007 903.403 214.944 911.638 216.583 913.355C218.651 915.463 231.141 919.053 234.614 919.873C256.391 925.064 287.731 926.507 309.118 919.521C311.85 918.624 315.167 917.961 316.767 915.307C319.343 910.975 318.484 896.769 318.797 891.149C321.138 845.798 322.153 800.214 323.636 754.864C323.831 748.424 322.426 730.276 325.275 725.593C328.749 719.856 338.545 722.12 339.442 730.276C340.886 742.882 339.794 757.908 340.184 770.748C341.511 811.376 342.525 852.16 344.204 892.749C344.399 897.9 342.955 915.502 347.56 918C351.034 919.873 358.956 921.512 363.054 922.253C383.426 926.078 409.029 925.649 429.167 920.693C432.718 919.795 444.7 916.126 446.885 913.824C448.642 911.989 449.773 902.193 450.281 898.993C459.921 838.149 466.009 772.738 472.566 711.231C474.595 692.107 476.273 672.906 478.108 653.782H478.186Z" fill="#F96700"/>
<path id="Vector_2" d="M387.64 427.264C405.398 424.649 409.418 453.686 389.787 454.076C373.473 454.388 371.288 429.684 387.64 427.264Z" fill="#F96700"/>
<path id="Vector_3" d="M386.821 510.514C406.491 506.884 410.003 538.887 387.445 536.467C372.81 534.906 373.278 513.012 386.821 510.514Z" fill="#F96700"/>
<path id="Vector_4" d="M282.209 511.299C300.942 507.864 303.947 534.364 288.18 537.096C268.978 540.374 266.988 514.109 282.209 511.299Z" fill="#F96700"/>
<path id="Vector_5" d="M283.009 429.645C298.073 427.226 304.513 447.013 291.868 453.569C272.744 463.443 263.222 432.846 283.009 429.645Z" fill="#F96700"/>
<path id="Vector_6" d="M386.837 594.544C401.979 591.929 409.161 610.116 396.828 618C378.29 629.825 367.752 597.822 386.837 594.544Z" fill="#F96700"/>
<path id="Vector_7" d="M284.567 593.723C301.817 592.669 303.301 618.311 286.753 619.677C267.863 621.277 267.512 594.738 284.567 593.723Z" fill="#F96700"/>
<path id="Vector_8" d="M323.429 207.702C325.615 209.849 324.171 222.494 323.39 225.889C320.893 236.661 308.014 245.325 320.463 255.472C329.245 262.614 343.607 260.78 351.802 253.521C354.105 251.452 354.105 248.252 357.891 248.876C366.867 250.32 379.941 263.668 389.659 267.102C396.138 269.405 401.524 267.766 407.924 269.249C412.647 275.415 406.753 283.572 401.563 287.397C391.533 294.851 377.327 295.319 365.345 293.758C353.364 292.197 340.914 287.475 331.859 278.85C321.517 287.28 308.755 292.197 295.486 293.836C281.67 295.554 260.4 293.68 254.467 278.616C249.004 264.722 264.459 269.951 272.654 267.063C276.791 265.58 299.505 252.662 302.276 249.93C304.384 247.862 305.516 242.047 307.077 238.885C309.809 233.461 313.243 229.831 314.687 223.508C315.585 219.45 315.351 211.293 316.912 208.288C318.044 206.141 321.985 206.219 323.429 207.663V207.702Z" fill="#F96700"/>
<path id="Vector_9" d="M305.168 189.044C302.397 191.425 292.523 189.708 288.308 190.059C284.756 190.332 279.995 191.464 276.638 192.635C272.345 194.157 260.403 203.29 259.427 193.572C257.866 177.961 294.474 172.419 304.075 179.092C307.275 181.317 308.329 186.312 305.168 189.044Z" fill="#F96700"/>
<path id="Vector_10" d="M365.451 176.827C375.793 175.539 400.107 177.764 402.722 190.643C405.181 202.859 390.78 193.609 386.057 192.204C379.306 190.214 372.983 189.901 365.997 190.018C362.758 190.057 357.021 192.243 355.499 187.13C353.391 180.027 359.675 177.53 365.451 176.827Z" fill="#F96700"/>
<path id="Vector_11" d="M286.207 206.917C292.802 206.215 307.399 208.947 306.072 218.001C304.901 225.924 295.885 218.548 292.958 217.962C289.368 217.221 283.787 217.611 280.587 219.484C277.972 221.006 273.367 228.109 269.347 224.128C262.166 217.025 279.845 207.581 286.246 206.878L286.207 206.917Z" fill="#F96700"/>
<path id="Vector_12" d="M369.404 206.922C377.99 205.947 394.577 210.279 393.406 221.402C393.211 223.353 392.625 224.602 390.557 224.953C385.795 225.734 384.819 221.128 381.268 219.255C379.629 218.396 374.907 217.07 373.15 217.03C368.311 216.913 356.759 227.256 356.134 217.382C355.744 210.903 364.213 207.547 369.443 206.962L369.404 206.922Z" fill="#F96700"/>
</g>
</svg>
