<svg width="3263" height="2862" viewBox="0 0 3263 2862" fill="none" xmlns="http://www.w3.org/2000/svg">
<path d="M1789.82 9.58398C1909.46 -8.68393 2027.01 -2.07312 2140.54 40.1445C2183 55.9331 2224.04 78.6092 2261.15 104.677C2285.36 121.688 2307.53 117.366 2331.43 115.799C2447.72 108.171 2557.64 128.162 2652.28 199.322C2794.19 306.003 2826.3 481.072 2730.55 632.191C2704.19 673.789 2666 708.276 2630.92 743.71C2618.59 756.158 2611.67 766.316 2611.84 784.394C2612.77 886.65 2612.53 988.906 2612.06 1091.16C2611.99 1106.11 2614.99 1112.56 2631.71 1117.26C2700.2 1136.53 2732.1 1187.98 2745.91 1254.3C2763.68 1339.63 2764.82 1424.51 2738.51 1508.14C2722.07 1560.38 2693.97 1604.69 2642.23 1630C2637.34 1632.4 2632.22 1640.42 2632.26 1645.81C2633.07 1768.76 2609.13 1885.81 2550.47 1994.06C2647.79 2038.89 2744.31 2083.36 2840.85 2127.85C3015.4 2208.29 3129.31 2341.82 3186.32 2524.43C3220.81 2634.89 3246.41 2747.38 3263 2861.71H3149.64C3147.46 2846.24 3145.22 2830.77 3142.93 2815.32C3129.11 2722.1 3108.5 2630.42 3075.25 2541.83C3022.15 2400.31 2933.95 2291.28 2792.92 2228.82C2720.76 2196.86 2649.91 2161.94 2578.42 2128.47C2567.28 2123.26 2555.88 2118.66 2544.24 2113.61C2511.2 2234.55 2437.66 2313.43 2343.36 2382.78C2194.53 2492.21 2022.94 2531.9 1842.54 2536.82C1725.85 2540.01 1608.94 2534.41 1492.12 2532.61C1449.6 2531.95 1443.59 2537.72 1443.59 2581.21V2861.71H1333.03C1333 2762.84 1332.98 2663.96 1333 2565.1C1333 2486.6 1368.5 2436.95 1437.56 2423.38C1459.8 2419 1483.65 2422.69 1506.76 2422.69C1399.89 2340.44 1313.46 2247 1279.9 2112.12C1128.47 2186.07 979.381 2258.78 830.5 2331.92C823.992 2335.12 817.035 2341.3 814.367 2347.77C792.724 2400.25 751.127 2430.44 700.593 2450.01C619.016 2481.59 533.013 2489.11 446.736 2493.68C417.758 2495.21 388.626 2493.92 358.151 2493.92H358.117C355.637 2559.12 364.814 2617.51 381.154 2675.36C404.587 2758.35 458.427 2809.52 540.486 2831.99C662.352 2865.35 781.947 2846.73 900.611 2814.2C905.69 2812.81 911.457 2804.89 912.439 2799.24C916.709 2774.6 920.083 2749.74 922.373 2724.82C925.92 2686.14 947.838 2662.91 980.913 2664.46C1011.16 2665.87 1031.5 2689.89 1029.17 2727.23C1026.36 2772.16 1019.31 2816.82 1015.55 2861.71H366.671C312.983 2812.62 280.439 2747.27 265.881 2669.45C254.638 2609.33 252.142 2547.59 245.461 2486.58C244.807 2480.61 244.291 2472.72 240.486 2469.3C219.119 2450.05 214.435 2425.94 215.899 2398.77C218.206 2356.3 219.394 2313.75 221.15 2268.94C118.24 2254.51 111.698 2177.03 120.393 2092.25C61.3537 2076.96 21.0809 2044.35 5.43008 1986.84C-2.79983 1956.64 -2.66226 1925.74 12.7475 1897.34C19.0146 1885.81 19.7206 1877.2 14.2455 1864.66C-2.28343 1826.8 -3.09265 1788.3 14.5727 1749.75C17.93 1742.44 18.3434 1730.99 15.0033 1723.84C-19.7591 1649.44 17.7927 1559.96 96.8217 1535.84C115.813 1530.04 119.549 1521.93 119.342 1504.09C118.447 1422.14 118.912 1340.16 118.963 1258.19C118.998 1193.26 161.853 1149.84 226.075 1149.82C381.085 1149.77 536.095 1149.77 691.106 1149.82C756.584 1149.86 798.303 1192.04 798.2 1257.85C798.045 1363.34 798.148 1468.85 797.459 1574.34C797.356 1589.75 800.387 1595.54 817.673 1598.89C909.254 1616.66 936.165 1695.66 925.455 1766.85C909.891 1870.26 866.347 1961.96 804.002 2045.29C800.077 2050.55 797.839 2058.26 797.666 2064.89C796.737 2099.75 795.084 2134.76 797.15 2169.5C798.097 2185.26 807.05 2200.55 812.542 2216.52C966.468 2142.25 1118.69 2068.8 1271.17 1995.23C1211.44 1891.06 1188.75 1777.68 1185.91 1659.16C1185.7 1650.62 1183.1 1637.46 1177.38 1634.43C1113.9 1600.74 1086.06 1543.88 1071.51 1477.56C1052.4 1390.58 1054.43 1304.61 1082.29 1219.54C1099.77 1166.16 1136.32 1132.36 1189.06 1116.52C1202.83 1112.37 1206.83 1107.33 1206.76 1093.57C1206.26 987.253 1206.76 880.934 1206.02 774.633C1205.97 766.868 1200.37 756.641 1194.09 751.785C1118.19 693.056 1063.33 619.742 1039.87 525.906C1004.69 385.273 1070.82 242.142 1203.86 170.913C1293.07 123.151 1388.59 105.244 1489.44 116.78C1512.59 119.432 1533.03 117.83 1554.05 101.336C1622.94 47.3069 1704.07 22.6694 1789.82 9.58398ZM2813.16 2562.81C2837.94 2560.26 2865.94 2583.52 2870.26 2612.31C2882.09 2691.32 2895.77 2770.18 2903.71 2849.6C2904.11 2853.64 2904.51 2857.67 2904.89 2861.71H2795.31C2790.46 2819.12 2784.77 2776.6 2779.43 2734.07C2774.73 2696.52 2766.92 2659.28 2763.96 2621.62C2761.51 2590.53 2784.58 2565.73 2813.16 2562.81ZM2409.07 2157.35C2111.84 2414.94 1701.97 2424.34 1414.95 2168.02V2168.04C1419.24 2174.57 1423.05 2181.5 1427.93 2187.55C1444.24 2207.67 1459.44 2229.01 1477.75 2247.17C1604.04 2372.6 1755.42 2432 1933.96 2416.4C2074.56 2404.13 2203.28 2359.12 2312.16 2267.39C2349.35 2236.05 2380.47 2197.5 2414.35 2162.24C2412.6 2160.6 2410.82 2158.97 2409.07 2157.35ZM713.161 2269.92C593.361 2269.92 474.215 2269.74 355.069 2270.45C349.094 2270.48 340.382 2276.87 337.679 2282.55C322.614 2314.3 316.485 2347.93 319.739 2384.34C325.696 2385.02 330.379 2386.17 335.01 2385.95C402.142 2382.92 469.532 2382.23 536.336 2375.72C589.745 2370.52 643.223 2360.62 690.813 2332.54C720.703 2314.91 722.821 2308.76 713.179 2269.9L713.161 2269.92ZM228.881 1259.53C228.881 1345.23 229.208 1429.44 228.606 1513.65C228.485 1529.94 233.151 1538.68 248.905 1546.24C312.093 1576.58 337.989 1639.6 318.774 1706.59C316.226 1715.47 319.377 1728.08 324.129 1736.6C347.563 1778.58 351.281 1820.98 327.228 1863.13C319.738 1876.25 320.186 1885.52 325.937 1898.41C350.834 1954.23 339.366 2009.65 292.483 2049.2C274.542 2064.34 251.677 2073.65 229.759 2086.38V2156.87H687.387L687.404 2156.88V1259.53H228.881ZM2014.76 980.642C1901.59 977.456 1788.01 983.982 1674.77 989.509C1567.38 994.76 1462.46 1016.06 1359.39 1046.98C1341.83 1052.25 1335.41 1059.15 1334.96 1077.87C1333.03 1157.26 1331.72 1236.81 1325.47 1315.92C1318.6 1402.78 1306.4 1489.23 1296.84 1575.89C1284.63 1686.72 1302.19 1793.61 1346.86 1894.92C1392.19 1997.74 1461.61 2080.04 1567.67 2125.7C1623.66 2149.81 1678.93 2149.74 1731.98 2116.51C1782.24 2085.03 1791.73 2043.87 1760.29 1995.26C1755.95 1988.55 1752.16 1981.42 1748.6 1974.25C1738.13 1953.23 1736.06 1933.1 1753.28 1913.74C1770.76 1894.09 1789.99 1898.65 1810.68 1906.78C1855.5 1924.38 1901.16 1937.44 1949.72 1923.88C1972.93 1917.4 1995.57 1908.93 2018.71 1902.16C2038.96 1896.26 2057.43 1900.12 2071.43 1916.78C2085.93 1934.05 2084.25 1952.34 2072.31 1970.28C2065.59 1980.37 2059.86 1991.7 2051.16 1999.75C2033.98 2015.7 2035.22 2033.31 2041.73 2052.87C2058.05 2101.89 2107.77 2136.55 2162.03 2138.67C2216.92 2140.82 2265.56 2122.65 2309.34 2092.56C2449.8 1995.98 2513.71 1855.75 2523.08 1690.97C2527.45 1614.13 2515.09 1536.26 2508.98 1458.95C2502.02 1371.19 2492.23 1283.64 2486.3 1195.83C2483.2 1149.89 2485.75 1103.59 2485.75 1057C2328.07 1004.51 2172.06 985.066 2014.76 980.642ZM212.248 1934.19C183.409 1930.99 154.225 1929.06 125.247 1929.76C105.895 1930.23 99.6969 1945.12 109.029 1962.6C120.616 1984.33 140.692 1990.99 171.65 1993.37L171.666 1993.38C182.737 1989.37 201.608 1984.62 218.189 1975.62C225.61 1971.59 232.118 1958.98 231.98 1950.37C231.893 1944.64 219.772 1935.03 212.248 1934.19ZM224.301 1785.39C191.846 1782.85 159.098 1781.59 126.625 1783.33C120.41 1783.66 109.545 1799.87 110.647 1807.31C111.973 1816.28 122.321 1827.18 131.377 1830.94C143.55 1836 158.202 1835.02 177.813 1837.36C189.607 1834.81 207.221 1832.59 223.492 1826.68C229.277 1824.58 235.01 1813.56 235.01 1806.61C235.01 1799.22 228.692 1785.74 224.301 1785.39ZM797.717 1833.79C817.517 1783.07 831.395 1727.27 797.717 1709.46V1833.79ZM206.653 1650.08C190.847 1633.48 142.345 1630.07 125.247 1644.37C118.929 1649.65 114.745 1660.46 114.504 1668.88C114.384 1673.31 124.232 1680.44 130.671 1682.14C142.913 1685.36 155.947 1685.55 168.636 1687.01V1687C168.688 1686.51 168.722 1686.05 168.774 1685.57C177.658 1685.57 186.784 1686.82 195.341 1685.17C202.504 1683.79 214.452 1679.39 214.728 1675.63C215.348 1667.2 212.369 1656.09 206.653 1650.08ZM1226.32 1222.39C1199.11 1225.06 1184.36 1239.8 1181.31 1260.5C1174.56 1306.54 1167.62 1353.16 1168.26 1399.46C1168.76 1435.36 1180.62 1471.09 1187.44 1506.9H1187.46C1189.95 1506.31 1192.43 1505.73 1194.93 1505.14C1205.33 1411.44 1215.73 1317.75 1226.32 1222.39ZM2590.33 1221.52C2600.68 1314.96 2611.03 1408.41 2621.38 1501.85C2658.34 1419.74 2659.72 1336.74 2632.19 1253.83C2627.32 1239.16 2611.13 1228.25 2600.16 1215.61C2596.89 1217.57 2593.6 1219.55 2590.33 1221.52ZM1939.35 692.298C1811.23 689.784 1683.53 698.53 1557.69 722.273C1482.91 736.392 1409.63 758.62 1335.96 778.282C1328.76 780.193 1318.52 789.594 1318.33 795.775C1316.86 844.122 1317.52 892.539 1317.52 943.227C1511.94 884.412 1709.1 866.661 1908.45 867.557C2107.63 868.452 2305.01 884.257 2500.37 945.96C2500.37 899.078 2499.3 854.486 2500.85 809.98C2501.56 789.715 2495.43 780.813 2475.51 774.374C2301.13 718.003 2121.6 695.879 1939.35 692.298ZM2083.12 136.925C2000.71 111.908 1916.74 106.967 1831.29 117.091C1747.2 127.06 1668.07 150.303 1602.76 205.916C1571.87 232.207 1539.21 238.871 1501.63 233.361C1444.22 224.959 1386.78 224.477 1330.69 239.663C1249.25 261.736 1182.5 303.85 1151.76 387.459C1111.03 498.323 1194.08 630.073 1276.61 673.478C1282.62 676.646 1292.12 676.027 1299.1 674.013C1342.21 661.53 1385.05 648.134 1428.9 634.773C1428.09 632.552 1427.25 629.539 1425.92 626.75C1410.24 594.26 1412.2 576.646 1433.79 557.328C1452.4 540.662 1476.04 540.317 1502.76 558.172C1521.55 570.723 1538.76 585.6 1557.41 598.358C1564.01 602.869 1573.05 607.122 1580.54 606.468C1655.38 599.977 1730.02 588.303 1804.95 586.082C1942.6 582.001 2080.47 581.846 2217.14 604.178C2237.53 607.518 2255.21 605.847 2271.67 589.146C2286.73 573.857 2305.07 558.843 2324.84 552.025C2340.83 546.499 2363.04 548.892 2378.97 555.831C2398.67 564.405 2401.27 586.443 2397.22 606.691C2395.43 615.679 2389.76 623.892 2385.62 633.018L2385.63 633.069C2435.41 647.928 2484.32 662.959 2533.62 676.698C2539.11 678.23 2547.87 673.892 2553.04 669.708C2596.36 634.618 2631.79 593.107 2653.93 541.299C2690.99 454.625 2677.56 371.482 2612.13 310.204C2527.85 231.278 2423.6 221.567 2315.16 232.087C2279.97 235.496 2246.07 239.68 2217.18 211.908C2179.18 175.372 2133.14 152.111 2083.12 136.925Z" fill="#FFF1D8"/>
</svg>
