<svg width="727" height="781" viewBox="0 0 727 781" fill="none" xmlns="http://www.w3.org/2000/svg">
<path id="Union" d="M382.476 8.19238C399.543 1.49986 417.255 -0.9801 435.357 0.342773C452.19 1.57395 467.818 6.8799 480.699 18.3311C493.79 29.9692 501.288 44.5342 500.354 62.252C499.625 76.0822 493.719 87.89 482.536 96.5791C480.169 98.4181 479.579 100.098 480.432 103.208C483.928 115.956 487.168 128.785 490.079 141.679C490.875 145.206 492.614 149.495 488.224 152.534C492.101 162.046 492.328 172.247 492.969 182.325C493.311 187.712 494.677 191.757 499.357 195.212C504.94 199.333 510.069 204.282 514.592 209.56C519.229 214.973 520.649 221.692 519.08 228.878C516.971 238.542 509.438 242.031 501.163 244.275C498.001 245.132 497.154 246.744 497.228 249.445C497.481 258.678 493.987 266.486 488.442 273.633C487.68 274.615 487.545 276.385 487.694 277.727C489.007 289.507 487.907 300.826 480.901 310.809C472.892 322.222 461.502 328.249 447.963 330.558C434.662 332.826 421.789 330.718 408.459 326.373C413.092 338.903 416.225 351.244 415.03 365.012C424.604 362.343 433.413 359.518 442.402 357.488C451.039 355.537 459.819 353.995 468.619 353.036C477.344 352.084 485.426 354.886 492.671 359.741C495.065 361.346 496.671 360.92 498.242 358.894C509.258 344.672 524.623 337.393 541.217 332.226C551.391 329.059 561.762 327.832 572.46 329.635C578.411 330.637 581.845 334.688 585.042 338.884C592.353 348.48 595.925 359.618 597.42 371.502C598.782 382.35 599.016 393.145 595.769 403.73C591.551 417.49 583.823 424.091 569.385 424.82C559.431 425.322 549.409 424.43 539.418 424.169C538.329 424.141 537.239 424.165 535.776 424.165C550.202 449.992 564.46 475.52 578.455 500.573C587.208 498.714 595.544 496.718 603.967 495.208C615.956 493.057 628.025 493.241 640.142 494.386C660.239 496.284 678.381 503.364 695.027 514.502C698.315 516.703 701.361 519.366 704.158 522.175C709.971 528.014 708.615 537.36 701.107 540.744C696.854 542.661 691.97 543.366 687.29 544.074C683.971 544.576 680.516 544.172 676.548 544.172C682.45 548.274 688.049 551.661 693.077 555.747C710.104 569.581 720.968 587.351 724.837 608.956C731.675 647.148 719.365 679.296 692.55 706.333C677.135 721.876 658.718 732.215 637.006 736.472C588.905 745.904 542.26 717.82 531.26 669.301C529.339 660.833 529.475 651.898 528.694 643.175C528.588 641.987 528.679 640.781 528.679 639.829C522.434 641.753 516.452 644.665 510.265 645.202C503.848 645.76 500.264 649.158 496.097 653.159C479.226 669.363 458.97 679.679 435.964 683.007C417.506 685.677 398.732 686.394 380.065 687.312C359.958 688.3 339.811 688.479 319.684 689.141C318.453 689.18 316.791 690.032 316.119 691.034C306.256 705.744 292.859 713.797 274.852 714.019C260.93 714.19 247.01 714.808 233.1 715.437C231.717 715.499 229.782 716.696 229.141 717.911C218.165 738.753 204.945 754.646 181.108 766.847C148.358 783.61 118.935 786.859 86.9255 769.091C69.4891 759.412 58.9836 748.379 50.7878 733.009C42.5419 717.544 39.4039 701.126 41.7156 683.218C38.0394 683.218 34.3906 683.325 30.7507 683.193C24.8582 682.98 18.7667 683.469 13.1287 682.118C3.83683 679.891 -0.390019 671.769 2.7771 662.678C5.726 654.212 9.64558 646.082 13.1365 637.807C10.6552 636.039 7.72352 634.274 5.18335 632.062C1.81017 629.125 1.04695 625.289 2.96558 621.218C7.80543 610.948 12.7701 600.736 17.6775 590.499C19.88 585.904 23.6061 583.995 28.6033 583.895C34.6656 583.773 41.4112 584.956 46.5818 582.676C51.4958 580.508 54.7335 574.577 58.7576 570.347C72.6866 555.697 88.1623 543.084 106.486 534.239C107.078 533.954 107.636 533.594 107.818 533.492C101.12 533.492 94.1171 533.584 87.1179 533.463C81.7692 533.369 78.6268 531.065 77.3298 525.884C76.6112 523.013 76.4062 519.875 76.6746 516.923C77.407 508.878 79.951 501.451 85.2634 495.149C88.6608 491.122 93.1945 489.205 98.2058 488.798C107.948 488.007 117.723 487.627 127.484 487.054C133.37 486.709 139.254 486.323 145.607 485.925C138.099 468.791 136.721 451.229 141.02 432.538C128.774 427.51 116.57 422.412 104.3 417.477C74.6492 405.551 44.9638 393.708 15.2996 381.815C8.07364 378.918 1.42817 375.078 0.203857 366.602C-0.33292 362.882 0.206701 358.567 1.62476 355.076C12.4733 328.363 23.6405 301.777 34.7488 275.169C40.8995 260.436 47.132 245.736 53.3796 230.895C50.2092 227.961 49.8785 224.638 51.5408 220.576C56.197 209.205 60.4306 197.662 65.073 186.285C68.8981 176.914 80.2321 171.163 90.2322 173.575C99.5082 175.812 108.66 178.571 117.915 180.903C119.215 181.231 121.335 180.962 122.168 180.097C137.371 164.296 155.588 163.004 175.328 168.778C189.344 172.879 201.66 179.456 210.108 192.01C215.611 200.188 217.87 209.112 217.301 219.122C229.105 223.432 240.858 227.712 252.601 232.017C255.419 233.049 258.16 234.305 261.015 235.212C267.582 237.298 272.803 240.935 275.483 247.071C285.914 244.251 296.124 241.489 306.439 238.697C296.973 221.753 293.303 203.842 301.042 184.964C296.081 180.396 296.009 174.048 294.465 168.411C292.198 160.129 290.619 151.658 288.623 142.706C283.414 142.138 277.987 141.741 272.624 140.924C256.011 138.39 241.097 122.978 238.856 106.46C235.351 80.6364 246.506 61.498 266.962 47.4893C286.427 34.1594 308.339 30.0659 331.705 33.9014C333.367 34.175 335.496 33.5083 336.992 32.5957C351.709 23.6277 366.319 14.5283 382.476 8.19238ZM106.287 683.309C97.0315 683.309 87.837 683.242 78.6492 683.441C77.9496 683.457 76.7634 685.32 76.6941 686.382C75.3694 706.713 82.3673 723.352 99.4392 734.941C119.302 748.425 148.196 747.35 169.943 732.708C177.34 727.726 183.579 721.532 189.39 713.911C187.067 713.911 185.567 713.892 184.068 713.914C165.744 714.189 147.42 714.468 129.097 714.754C121.868 714.866 116.095 711.796 111.532 706.425C105.688 699.547 104.36 691.548 106.289 683.31L106.287 683.309ZM641.7 568.352C632.148 567.356 622.507 567.966 613.182 571.742C616.961 579.281 620.658 586.661 624.235 593.801C626.453 593.491 628.075 593.122 629.706 593.057C652.293 592.143 668.032 611.232 668.51 630.584C668.96 648.802 660.585 662.894 645.773 672.889C627.366 685.31 603.636 680.997 592.003 663.322C584.465 651.868 583.951 639.493 588.8 626.766C589.271 625.528 589.653 623.688 589.082 622.71C585.359 616.333 581.36 610.116 577.156 603.37L577.155 603.368C576.464 604.265 576.19 604.58 575.962 604.925C564.552 622.12 559.197 640.778 564.452 661.155C572.481 692.291 598.454 706.408 626.371 703.717C644.173 702.001 659.232 693.609 671.656 680.77C690.911 660.868 697.583 637.341 690.776 610.442C685.072 587.909 665.096 570.791 641.7 568.352ZM118.935 694.685C122.532 701.292 128.168 703.224 134.585 703.087C153.726 702.682 172.866 702.152 191.995 701.385C195.449 701.246 199.072 700.228 202.21 698.749C204.942 697.461 207.1 694.948 209.51 692.976L208.787 692.131C179.09 692.974 149.392 693.819 118.935 694.685ZM509.177 416.847C502.112 424.181 499.203 431.621 501.501 441.239C506.289 461.281 510.787 481.403 514.841 501.604C517.209 513.404 516.745 525.405 514.979 537.346C512.635 553.209 506.771 567.908 500.33 582.41C491.94 601.304 482.678 619.619 466.887 633.758C452.917 646.267 436.764 654.354 418.246 656.565C403.648 658.309 388.86 658.482 374.15 659.238C365.615 659.678 357.07 659.9 348.528 660.212C326.348 661.021 304.167 661.881 281.983 662.593C276.726 662.761 274.179 660.453 274.593 655.078C275.221 646.931 276.451 638.807 277.853 630.75C278.423 627.476 279.21 624.755 276.475 621.908C274.978 620.35 274.276 617.827 273.701 615.614C270.274 602.444 271.906 589.662 278.02 577.695C284.824 564.381 287.181 549.861 291.188 534.941C285.164 534.941 279.642 535.297 274.18 534.873C259.665 533.746 245.195 531.903 230.666 531.063C216.912 530.267 203.062 529.573 189.336 530.322C175.575 531.074 161.539 532.242 148.275 535.714C102.763 547.626 67.1706 574.084 42.1228 613.748C32.1747 629.5 24.8844 646.933 16.4099 663.613C15.4991 665.405 13.9613 667.754 16.8201 668.796C19.2287 669.674 22.2191 670.318 23.6062 666.521C25.1075 662.415 26.8927 658.406 28.697 654.42C43.6286 621.422 64.9587 593.575 95.5994 573.744C129.792 551.616 166.968 541.969 207.574 550.072C226.173 553.783 241.519 563.264 252.004 579.425C259.72 591.319 262.74 604.66 263.141 618.792C263.689 638.047 259.193 655.696 247.86 671.439C247.351 672.148 247.1 673.043 246.546 674.25C254.604 674.25 262.191 674.409 269.768 674.224C313.467 673.148 357.172 672.228 400.855 670.72C413.83 670.271 426.993 669.22 439.64 666.474C467.329 660.461 489.847 646.274 502.124 619.702C509.847 602.987 516.057 585.569 522.846 568.428C529.338 552.04 536.779 536.206 548.453 522.732C552.751 517.773 557.033 512.798 561.463 507.666C544.638 478.444 527.028 447.854 509.177 416.847ZM189.166 560.817C164.411 559.082 140.989 564.627 118.786 575.349C93.4715 587.574 73.3801 605.916 57.3523 628.866C48.7912 641.128 41.8364 654.212 36.8494 668.252V668.254C37.1557 668.493 37.2599 668.645 37.3621 668.644C62.1569 668.27 86.9552 668.013 111.745 667.452C126.895 667.109 142.038 666.359 157.179 665.686C179.327 664.702 201.464 663.483 223.616 662.644C234.177 662.244 241.344 657.512 244.693 647.547C248.967 634.826 249.951 621.751 247.835 608.56C246.191 598.312 242.612 588.802 235.466 580.869C223.06 567.096 206.842 562.057 189.166 560.817ZM656.069 623.939C652.838 612.057 641.037 603.052 629.505 604.151L629.509 604.152C631.704 608.684 633.716 612.83 635.719 616.979C637.806 621.299 639.974 625.583 641.95 629.955C646.528 640.085 641.906 651.609 631.614 655.935C622.106 659.931 613.074 657.017 606.521 647.822C603.739 643.917 600.983 639.992 597.89 635.616C594.259 652.525 605.382 671.683 628.1 668.179C647.564 665.178 661.243 642.963 656.069 623.939ZM487.284 425.388C483.009 426.318 479.036 427.919 475.118 427.798C472.069 427.703 469.741 428.117 467.062 429.483C460.771 432.69 454.293 433.003 447.734 429.701C446.127 428.893 443.838 428.713 442.059 429.114C436.923 430.274 431.707 430.697 427.281 427.829C423.896 425.637 420.84 424.984 417.574 425.983C415.678 430.624 414.04 435.095 412.038 439.396C410.175 443.403 406.651 445.813 402.417 446.341C393.43 447.459 384.368 448.881 375.371 448.677C369.245 448.537 367.257 451.887 364.68 455.873C375.548 460.99 384.851 467.503 391.402 477.534C402.993 495.28 403.856 514.527 398.015 533.957C390.443 559.147 381.501 583.924 373.444 608.974C371.981 613.523 369.69 615.322 365.18 614.563C360.812 613.829 358.959 615.746 359.109 620.099C361.116 620.48 363.012 620.744 364.86 621.206C374.638 623.649 384.503 625.821 394.143 628.731C400.773 630.733 404.493 635.694 404.631 643.832C408.941 643.451 412.885 643.209 416.802 642.738C437.096 640.293 453.627 631.013 466.529 615.198C479.19 599.68 486.768 581.501 494.01 563.108C503.201 539.759 505.286 516.068 499.895 491.382C495.102 469.43 487.303 448.025 487.284 425.388ZM586.647 584.714L586.644 584.716C595.068 600.719 603.245 616.342 611.529 631.907C613.129 634.915 614.922 637.881 617.043 640.534C619.115 643.126 621.827 644.929 625.209 642.321C628.452 639.821 628.069 637.041 626.188 633.737C619.625 622.21 613.259 610.57 606.828 598.968C602.956 591.984 599.105 584.989 595.131 577.792C592.06 580.298 589.414 582.456 586.647 584.714ZM690.42 528.076C661.931 508.383 630.675 503.25 597.193 510.773C572.107 516.41 554.522 531.724 544.529 554.999C534.046 579.413 524.797 604.357 514.704 629.838C523.686 625.924 531.078 620.877 536.923 613.748C542.407 607.059 547.548 600.082 553.131 593.478C570.355 573.105 590.599 556.478 614.634 544.66C626.706 538.724 639.235 533.976 652.689 532.692C664.182 531.596 675.76 531.376 687.298 530.744C688.873 530.658 690.442 530.427 691.952 530.27C691.952 529.612 692.005 529.428 691.943 529.371C691.45 528.923 690.967 528.454 690.42 528.076ZM35.0437 599.178C31.1077 597.666 28.6085 598.492 26.9548 602.508C24.4215 608.657 21.4124 614.606 18.6921 620.681C18.2264 621.72 18.1895 622.949 17.9558 624.092C18.3453 624.17 18.7333 624.248 19.1228 624.326C24.4129 615.971 29.7017 607.616 35.0437 599.178ZM153.715 428.738C153.135 437.393 151.879 446.389 152.097 455.349C152.378 466.756 156.383 477.186 164.748 485.264C173.951 494.15 185.233 499.851 197.056 504.408C215.952 511.691 235.671 515.252 255.786 516.871C274.155 518.35 292.563 521 309.833 515.042C304.941 542.152 300.004 569.515 294.986 597.328L294.988 597.325C297.287 597.64 298.095 597.832 298.905 597.85C318.479 598.241 338.052 598.67 357.628 598.855C358.829 598.867 360.738 597.173 361.162 595.89C368.752 572.986 376.584 550.145 383.446 527.021C387.37 513.799 386.855 500.275 379.217 488.124C372.219 476.992 361.497 470.334 349.551 465.532C333.996 459.279 317.705 456.955 301.04 456.214C284.607 455.483 268.335 456.571 252.205 459.513C241.386 461.485 230.679 464.084 218.591 466.688C223.888 462.396 228.331 458.796 232.267 455.606C219.071 452.079 205.545 449.213 192.554 444.782C179.599 440.363 167.18 434.376 153.715 428.738ZM140.372 502.94C128.114 502.965 115.84 503.001 103.608 503.687C96.4325 504.088 91.9846 510.481 92.6755 518.052V518.05C114.963 517.51 136.975 516.976 159.074 516.441C154.8 512.63 150.744 508.742 146.372 505.253C144.756 503.963 142.392 502.935 140.372 502.94ZM306.91 255.924C305.871 254.828 303.516 254.047 302.084 254.398C286.877 258.139 272.517 263.998 259.168 272.258C236.148 286.502 217.203 305.124 201.016 326.643C182.616 351.105 168.156 377.63 159.224 407.057C158.27 410.198 159.212 411.49 161.547 413.021C190.381 431.923 222.494 440.406 256.487 442.202C271.895 443.016 287.383 442.291 302.834 442.401C307.416 442.434 311.994 442.936 316.576 443.222C316.25 442.377 315.816 442.086 315.34 441.93C302.95 437.847 292.368 430.842 283.132 421.764C265.459 404.396 251.409 384.691 244.316 360.604C241.781 351.995 241.222 341.09 242.948 335.73C252.673 359.531 266.058 380.939 282.876 400.207C294.363 413.367 307.365 424.543 324.856 428.572C333.902 430.657 343.235 431.93 352.505 432.498C364.451 433.231 376.465 432.896 388.45 432.986C388.788 432.988 389.127 432.598 389.529 432.353C387.477 412.191 388.173 392.418 397.917 373.554C372.568 372.264 347.788 366.033 321.915 372.66C327.949 364.827 335.265 360.402 343.393 356.481C333.477 333.241 324.517 309.615 308.572 289.01C309.758 289.467 310.635 289.727 311.442 290.128C320.424 294.599 327.776 301.263 332.813 309.65C340.176 321.91 346.692 334.717 352.871 347.626C355.3 352.705 357.806 355.763 363.673 354.674C363.922 354.627 364.164 354.548 364.811 354.38C364.451 342.269 371.484 335.103 382.557 330.582C379.009 328.277 375.996 326.464 373.134 324.437C355.378 311.865 342.053 294.886 327.816 278.807C320.968 271.072 314.016 263.422 306.91 255.924ZM492.541 376.711C482.323 365.265 469.673 362.935 455.462 366.497C442.514 369.744 429.629 373.241 416.739 376.711C414.838 377.222 412.41 377.673 411.33 379.032C403.396 388.999 401.384 400.642 402.203 413.156C405.053 413.156 407.652 413.279 410.232 413.121C412.94 412.957 415.633 412.522 418.3 412.209C418.455 397.352 430.489 392.29 441.181 393.564C446.243 394.167 450.52 396.588 453.766 400.644C458.258 406.257 458.004 412.475 455.497 419.639C457.575 419.424 459.08 419.599 460.299 419.088C465.914 416.731 468.885 412.257 468.998 406.295C469.193 395.964 464.004 387.997 456.937 380.939C462.113 380.939 466.333 382.87 469.885 386.44C477.557 394.153 479.706 403.431 477.237 414.156C483.923 410.837 486.468 404.612 483.914 395.852C482.018 389.353 478.839 383.228 476.319 377.148C486.028 378.151 491.497 386.913 494.074 406.342C499.991 399.557 499.022 383.97 492.541 376.711ZM65.4753 234.836C63.891 238.521 62.5125 241.622 61.2156 244.758C45.7246 282.239 30.2405 319.723 14.7703 357.213C11.8854 364.203 12.1156 365.233 19.1355 368.423C26.3424 371.696 33.7465 374.544 41.1248 377.426C70.6175 388.946 100.133 400.409 130.474 412.217C151.061 368.353 171.538 324.726 192.3 280.488L192.302 280.486C149.527 265.091 107.616 250.005 65.4753 234.836ZM555.691 342.671C536.325 346.887 518.551 353.309 505.459 369.758C516.95 373.775 521.3 382.352 523.014 392.804C523.636 396.592 523.923 400.437 524.609 404.212C524.779 405.142 525.762 406.376 526.633 406.657C537.68 410.219 549.041 411.72 561.023 411.713C552.35 388.938 549.762 366.376 555.691 342.671ZM570.919 343.489C567.201 346.878 565.065 350.631 565.137 355.245C565.281 364.411 564.899 373.684 566.199 382.7C567.207 389.682 570.173 396.452 572.864 403.072C573.643 404.991 576.483 406.07 578.379 407.535C579.766 405.597 581.712 403.85 582.446 401.69C586.638 389.356 585.603 376.892 582.602 364.503C580.685 356.589 577.603 349.242 570.919 343.489ZM397.406 336.101C391.368 339.091 386.12 341.632 380.927 344.281C375.837 346.877 374.863 349.128 376.065 355.771C378.443 354.165 380.521 352.465 382.853 351.258C386.206 349.524 388.341 350.832 388.752 354.51C388.838 355.285 389.013 356.051 389.135 356.757C392.081 357.145 394.759 357.497 397.408 357.847V336.101H397.406ZM204.653 286.338C201.043 295.244 197.546 303.872 194.049 312.499C194.194 312.535 194.342 312.572 194.487 312.608C200.797 305.095 207.105 297.583 213.618 289.827C210.362 288.56 207.621 287.493 204.651 286.336L204.653 286.338ZM468.164 150.861C452.598 150.704 437.018 150.512 421.645 153.385C407.972 155.939 394.361 158.83 380.766 161.777C379.66 162.018 378.114 163.806 378.088 164.903C377.844 175.379 377.87 185.864 377.847 196.346C377.827 205.681 377.844 215.016 377.844 224.556C368.983 223.55 363.106 219.551 359.842 211.329C356.887 203.889 353.66 196.44 349.518 189.625C346.287 184.307 340.536 181.104 334.103 181.777C324.808 182.751 318.176 190.999 317.469 200.424C316.576 212.33 321.205 222.14 328.51 230.921C335.601 239.442 344.273 243.033 355.135 238.173C355.613 237.96 356.182 237.95 356.848 237.816C357.486 240.279 358.045 242.646 358.71 244.983C370.322 285.791 412.939 306.111 450.527 298.975C460.144 297.149 467.029 291.029 471.535 282.435C471.182 282.049 471.099 281.879 471.017 281.879C469.918 281.896 468.82 281.955 467.72 281.971C457.672 282.125 449.142 278.239 443.663 270.114C440.698 265.718 437.591 263.443 432.736 262.797C432.191 262.724 431.626 262.709 431.101 262.561C418.191 258.895 408.954 251.394 405.709 237.85C404.718 233.713 404.609 229.56 408.602 226.661C410.673 225.158 412.278 224.396 414.02 227.729C417.052 233.532 422.133 236.649 428.929 237.07C438.822 237.683 447.482 234.108 455.744 229.437C458.118 228.095 460.169 225.548 461.472 223.08C463.744 218.784 465.821 217.044 470.176 217.382C466.039 225.196 467.405 228.595 475.86 231.423C483.183 233.873 490.657 234.297 498.177 232.644C509.132 230.235 511.807 222.396 504.236 214.039C500.859 210.311 496.593 207.343 492.534 204.29C487.31 200.361 484.051 195.237 483.237 188.865C482.124 180.147 481.961 171.291 480.536 162.635C478.595 150.846 480.451 150.986 468.164 150.861ZM349.787 250.556C341.331 253.73 332.99 253.44 324.352 250.973C335.561 263.88 346.519 276.497 357.476 289.115C353.033 276.533 348.332 264.308 349.787 250.556ZM308.572 289.01C308.57 289.009 308.567 289.009 308.565 289.008L308.569 289.006C308.57 289.007 308.571 289.009 308.572 289.01ZM210.958 271.841C215.955 273.882 220.722 275.83 225.157 277.64C236.719 269.756 247.921 262.117 259.584 254.164C252.316 242.519 238.55 242.377 227.528 236.634C221.878 248.641 216.478 260.111 210.958 271.841ZM483.844 256.892C474.225 263.38 463.594 265.053 451.815 265.263C467.133 277.332 479.022 274.63 483.844 256.892ZM89.8201 187.222C83.9967 185.308 80.0503 187.369 77.491 192.966C74.0243 200.543 70.7236 208.195 67.3591 215.819C66.6666 217.39 66.0034 218.973 65.3298 220.543C109.586 235.973 153.421 251.259 197.596 266.661C203.022 255.11 208.464 243.522 214.078 231.568V231.566C212.937 231.073 212.081 230.666 211.2 230.33C193.484 223.572 175.885 216.48 158.013 210.159C135.406 202.163 112.604 194.704 89.8201 187.222ZM327.48 201.415C327.508 196.063 332.588 193.179 338.726 195.169C343.563 196.736 347.369 199.96 348.84 204.688C350.969 211.541 352.19 218.676 353.927 226.246H353.925C346.687 225.976 340.365 221.548 338.177 215.67C339.504 215.175 340.827 214.679 343.18 213.8C341.584 210.666 340.318 207.436 338.41 204.645C336.62 202.025 333.922 203.264 331.693 204.318C328.429 205.863 327.465 204.449 327.48 201.415ZM158.017 180.675C150.681 180.604 144.847 184.169 139.688 189.3C159.657 196.695 179.214 203.939 199.131 211.315C198.89 204.701 196.93 198.962 192.483 194.389C183.084 184.72 171.209 180.803 158.017 180.675ZM452.455 188.03C457.215 187.992 462.099 188.152 465.2 192.321C466.457 194.011 467.321 197.01 466.696 198.848C465.77 201.573 462.976 200.117 461.035 199.374C455.288 197.175 449.752 197.281 444.569 200.763C442.029 202.468 438.932 202.787 437.658 200.484C436.642 198.647 437.111 194.943 438.394 193.083C441.679 188.318 447.144 188.013 452.455 188.03ZM431.776 166.283C438.321 164.517 443.843 161.849 451.83 162.182C455.188 162.322 457.56 162.774 460.347 163.409C464.315 164.315 466.44 167.321 465.687 170.907C464.927 174.526 461.7 175.353 458.969 174.773C448.318 172.507 439.078 176.254 429.842 180.628C428.695 181.17 426.528 181.35 425.852 180.677C424.806 179.633 424.19 177.712 424.177 176.159C424.139 171.016 426.905 167.598 431.776 166.283ZM453.394 99.748C437.188 100.134 420.921 100.586 404.822 102.34C385.662 104.43 366.903 109.161 348.773 115.699C334.003 121.027 319.643 127.495 305.135 133.542C303.144 134.371 301.268 135.436 301.781 138.375C303.686 149.284 305.431 160.223 307.246 171.215H307.248C361.925 149.759 417.347 135.077 476.431 138.027C473.955 127.922 471.556 117.843 468.962 107.815C468.525 106.129 467.613 103.759 466.314 103.253C462.158 101.629 457.692 99.6459 453.394 99.748ZM467.739 25.498C447.386 12.0314 425.084 11.5259 402.098 16.3467C386.164 19.6887 372.37 27.7999 358.519 35.793C354.608 38.051 350.579 40.1405 346.836 42.6514C338.434 48.2859 329.343 47.4323 319.89 46.7119C297.489 45.0063 278.224 52.2325 263.123 69.1729C253.843 79.5833 249.805 92.03 252.503 105.746C255.964 123.344 274.974 132.8 291.601 124.798C303.537 119.054 315.284 112.397 325.855 104.468C339.338 94.3569 354.207 87.4098 369.492 80.9561C369.731 80.8556 370.09 81.0412 371.751 81.3252C364 88.2603 357.005 94.5203 350.01 100.778C351.289 101.192 352.112 101.107 352.885 100.861C368.034 96.0561 383.517 92.9117 399.321 91.2061C407.619 90.3108 415.993 89.531 424.114 87.7197C435.162 85.2557 443.126 77.7458 450.293 69.4307C451.894 67.5727 453.153 65.422 455.018 62.7676C455.65 72.52 451.343 79.6856 447.107 86.4805C455.204 87.5939 463.033 88.6728 471.632 89.8555V89.8604C474.314 86.8214 477.781 83.6313 480.368 79.8408C492.307 62.3446 486.702 38.047 467.739 25.498Z" fill="black"/>
</svg>
