<svg width="2012" height="1716" viewBox="0 0 2012 1716" fill="none" xmlns="http://www.w3.org/2000/svg">
<g id="Group 33">
<path id="Vector" d="M1862.12 1715.42C1815.76 1715.4 1781.69 1680.91 1781.77 1634.09C1781.86 1587.03 1820.12 1549.16 1866.75 1549.95C1908.77 1550.68 1947.29 1589.21 1947.99 1631.23C1948.73 1675.6 1908.11 1715.43 1862.12 1715.42Z" fill="#FFF1D8"/>
<path id="Vector_2" d="M1222.54 1549.88C1268.05 1549.49 1304.24 1584.63 1305.19 1630.14C1306.12 1674.23 1266.95 1714.64 1222.92 1715.04C1180.63 1715.42 1140.59 1676.09 1139.81 1633.38C1139.01 1588.56 1176.94 1550.26 1222.55 1549.87L1222.54 1549.88Z" fill="#FFF1D8"/>
<path id="Vector_3" d="M1382.54 476.976C1451.56 529.548 1513.1 529.892 1568.94 475.616C1592.28 452.938 1609.93 453.024 1634.95 474.204C1679.92 512.294 1722.35 553.466 1777.71 577.59C1830.91 600.768 1884.48 607.191 1940.34 589.179C1962.15 582.136 1983.52 581.379 2000.23 600.751C2017.69 621.001 2013.52 642.508 2002.02 663.723C1967.73 726.901 1912.61 764.905 1844.41 777.837C1736.01 798.397 1632.02 783.932 1539.91 717.361C1523.64 705.6 1509.43 690.947 1492.56 676.121C1451.02 716.965 1402.14 746.462 1346.93 763.579C1254.33 792.284 1161.7 800.652 1072.25 751.852C1033.79 730.879 1003.11 701.244 982.256 662.431C971.821 643.008 967.93 622.809 982.911 603.351C997.978 583.772 1016.83 583.651 1039.39 589.11C1126.21 610.084 1201.74 583.565 1269.72 530.099C1274.15 526.62 1277.8 518.235 1277.09 512.759C1272.99 481.23 1284.18 454.298 1299.68 428.245C1330.99 375.605 1360.95 322.104 1394.11 270.669C1403.71 255.774 1420.74 240.259 1437.11 236.23C1477.15 226.415 1504.11 259.907 1493.26 301.664C1480.02 352.668 1454.28 396.802 1418.84 435.563C1406.82 448.719 1395.35 462.374 1382.58 477.011L1382.54 476.976Z" fill="#FFF1D8"/>
<path id="Vector_4" d="M1314.75 135.193C1301.01 131.129 1286.94 127.892 1273.56 122.864C1225.62 104.852 1179.57 106.264 1133.72 130.992C1121.23 137.724 1104.15 141.427 1090.39 139.154C1065.63 135.056 1051.24 115.718 1048.69 91.4901C1046.1 66.8661 1058.92 46.0132 1080.34 35.7332C1168.38 -6.47197 1257.53 -6.09322 1345.5 36.1119C1367.83 46.8225 1375.57 72.7208 1368.66 96.501C1361.72 120.402 1343.18 133.041 1314.75 135.193Z" fill="#FFF1D8"/>
<path id="Vector_5" d="M1766.06 0C1813.43 5.18309 1857.13 14.895 1897.82 36.1784C1929.73 52.8641 1940.77 81.1386 1927.61 108.225C1913.34 137.619 1884.17 149.569 1852.43 134.812C1799.07 109.998 1746.69 105.831 1691.4 128.923C1659.58 142.216 1627.53 127.184 1616.94 98.9436C1605.87 69.4121 1618.47 38.6235 1651.9 27.6375C1688.97 15.446 1727.92 8.97138 1766.04 0.0172101L1766.06 0Z" fill="#FFF1D8"/>
<path id="Vector_6" d="M1209.81 225.33C1253.2 228.326 1293.47 237.314 1319.65 276.127C1334.08 297.531 1334.16 320.588 1320.96 333.934C1307.06 347.95 1288.86 346.28 1264.75 328.75C1222.15 297.807 1190.73 298.323 1148.61 330.679C1120.66 352.152 1086.63 346.194 1083.62 317.351C1082.16 303.386 1090.06 285.839 1099.01 273.889C1126.41 237.383 1167 227.689 1209.81 225.33Z" fill="#FFF1D8"/>
<path id="Vector_7" d="M1764.67 229.064C1820.08 228.823 1858.95 242.84 1887.9 278.691C1901.07 295.015 1912.31 313.698 1893.99 332.313C1876.72 349.877 1857.26 343.454 1839.58 330.281C1814.35 311.529 1787.75 296.135 1755.08 308.05C1742.63 312.596 1731.25 320.844 1720.43 328.817C1702.94 341.697 1685.03 345.847 1667.59 331.056C1650.06 316.212 1653.86 297.925 1664.73 280.981C1690.54 240.739 1730.72 230.132 1764.71 229.047L1764.67 229.064Z" fill="#FFF1D8"/>
<path id="Vector_8" d="M47.6674 994.576C20.3916 994.955 0.296415 975.6 0.00368275 948.686C-0.306269 921.307 18.9797 901.315 46.1349 900.867C74.1683 900.385 95.0728 918.896 96.3126 945.259C97.5008 970.658 74.2888 994.214 47.6674 994.576Z" fill="#FFF1D8"/>
</g>
</svg>
