<svg width="40" height="40" viewBox="0 0 40 40" fill="none" xmlns="http://www.w3.org/2000/svg">
<path id="Money" d="M8.24207 0C11.7171 0 14.777 2.12011 16.037 5.39844C16.5536 6.73672 17.1755 7.88326 17.8905 8.82324C18.8488 7.68658 19.729 6.31498 20.5106 4.52832C21.1206 3.13833 22.3193 2.14159 23.8026 1.79492C25.3175 1.44339 26.864 1.81355 28.0555 2.81348L36.3143 9.75195C38.1307 11.277 38.8053 13.7788 37.9921 15.9736C36.7588 19.3133 35.2243 21.6201 33.5477 23.3867C33.9126 23.565 34.2971 23.7371 34.7069 23.9004L34.704 23.9014C37.919 25.173 39.9969 28.2169 39.9969 31.6553V36.4814C39.9969 38.143 38.8624 39.6866 37.2225 39.9551C35.5227 40.2334 34.0258 39.2118 33.5223 37.7354C32.989 38.1003 32.3589 38.333 31.6639 38.333C30.2106 38.333 28.9851 37.3928 28.5302 36.0928C27.8319 36.5661 26.9472 36.7835 26.0106 36.6035C24.4174 36.2985 23.3321 34.7902 23.3319 33.167V30.9814C21.932 32.203 20.6074 33.7114 19.3925 35.8262C18.6508 37.1162 17.3986 38.0028 15.9569 38.2578C15.6787 38.3061 15.3972 38.332 15.119 38.332C13.9974 38.332 12.9036 37.9369 12.0253 37.2002L3.66687 30.1797C1.62561 28.4647 1.07231 25.5 2.35535 23.1318C3.93357 20.2154 5.73378 18.2219 7.56531 16.667H6.83386C5.21224 16.6669 3.70233 15.5816 3.39734 13.9883C3.21738 13.0518 3.43397 12.167 3.9071 11.4688C2.60714 11.0137 1.66687 9.78827 1.66687 8.33496C1.66687 7.63998 1.90051 7.00989 2.2655 6.47656C0.788931 5.97151 -0.232546 4.4763 0.0457764 2.77637C0.314249 1.13487 1.85618 0 3.51941 0H8.24207ZM25.911 5.36523C25.531 5.0469 25.0388 4.92866 24.5604 5.04199C24.2954 5.10372 23.8143 5.29208 23.5643 5.86523C20.9843 11.7618 17.3638 14.0567 13.8622 16.2783C10.7256 18.2683 7.76195 20.1465 5.28699 24.7197C4.75369 25.703 4.97555 26.9282 5.81042 27.6299L14.1688 34.6504C14.5137 34.9385 14.942 35.0564 15.3768 34.9766C15.8433 34.8949 16.2535 34.5984 16.5018 34.167C19.3302 29.2403 22.8206 27.0266 25.9022 25.0732C29.5289 22.7732 32.6624 20.7864 34.869 14.8164C35.1889 13.9498 34.9017 12.917 34.1718 12.3037L25.911 5.36523ZM30.8934 25.7314C29.8352 26.523 28.7572 27.2114 27.6874 27.8896C27.3342 28.1129 26.9858 28.3347 26.6376 28.5596C26.1276 31.3012 28.1825 31.9552 28.7509 32.2119C29.7845 32.6798 29.9965 31.6881 30.0009 31.667C30.0009 30.7471 30.7454 30.0002 31.6669 30C32.5885 30 33.3339 30.747 33.3339 31.667V32.8281C33.3339 33.5681 33.8706 34.233 34.5839 34.4297C35.6355 34.718 36.6669 33.9279 36.6669 32.8379V31.6553C36.6669 29.5953 35.417 27.767 33.4803 27.002C32.5204 26.622 31.6617 26.1914 30.8934 25.7314ZM19.9999 15.4268C22.7565 15.4268 24.9999 17.6701 24.9999 20.4268C24.9997 23.1832 22.7564 25.4267 19.9999 25.4268C17.2433 25.4268 15.0001 23.1832 14.9999 20.4268C14.9999 17.6701 17.2432 15.4268 19.9999 15.4268ZM19.9999 18.7598C19.0815 18.7598 18.3329 19.5084 18.3329 20.4268C18.3331 21.3449 19.0817 22.0928 19.9999 22.0928C20.9181 22.0927 21.6667 21.3449 21.6669 20.4268C21.6669 19.5084 20.9182 18.7598 19.9999 18.7598ZM7.16101 3.33301C6.07101 3.33301 5.28088 4.36533 5.56921 5.41699C5.76768 6.13014 6.43286 6.66699 7.17273 6.66699H8.33386C9.25376 6.66699 10.0007 7.41315 10.0009 8.33301C10.0009 9.25301 9.25386 10 8.33386 10C8.32094 10.001 7.23246 10.0913 7.78894 11.4414C8.15561 12.3297 9.12087 14.5787 11.3475 13.9287C11.5908 13.7721 11.8371 13.6135 12.077 13.4619C13.2754 12.7019 14.4143 11.9735 15.4843 11.1318C14.4743 9.87851 13.6103 8.36639 12.9286 6.59473C12.1652 4.61328 10.3272 3.33302 8.24402 3.33301H7.16101Z" fill="#A72901"/>
</svg>
