<svg width="40" height="40" viewBox="0 0 40 40" fill="none" xmlns="http://www.w3.org/2000/svg">
<path id="Food" d="M38.7762 16.7312C38.0205 15.8581 36.99 15.2999 35.8714 15.1016C38.0638 10.0896 38.8328 5.46753 37.8473 2.79158C37.3047 1.31364 36.3541 0.640482 35.6517 0.335563C31.3335 -1.54227 25.6487 4.77605 22.2029 11.4443C22.2029 11.4443 21.5554 12.6939 21.2058 13.3888C21.026 12.6856 20.8029 11.9908 20.5066 11.3193L19.0151 7.93187C18.5457 6.86549 18.3076 5.73579 18.3076 4.5711V3.34476C19.2282 3.34476 19.9723 2.59996 19.9723 1.67854C19.9723 0.757117 19.2282 0.0123156 18.3076 0.0123156H6.65501C5.73446 0.0123156 4.99036 0.757117 4.99036 1.67854C4.99036 2.59996 5.73446 3.34476 6.65501 3.34476V4.5711C6.65501 5.73413 6.41697 6.86549 5.94754 7.93187L4.456 11.3193C3.89335 12.5923 3.54044 13.9269 3.39728 15.2982C2.56662 15.5798 1.80587 16.053 1.21825 16.7312C0.269392 17.8259 -0.158424 19.2772 0.052987 20.7501L1.81253 31.4173C2.51168 36.311 6.76322 40 11.7006 40H28.2955C33.2329 40 37.4844 36.3093 38.1786 31.4523L39.9498 20.7135C40.1546 19.2772 39.7267 17.8259 38.7779 16.7295L38.7762 16.7312ZM25.1593 12.9739C25.672 11.9825 26.1947 11.081 26.7208 10.2513L29.2144 11.4993C29.4541 11.6176 29.7072 11.6742 29.9569 11.6742C30.5678 11.6742 31.1554 11.3376 31.4484 10.7528C31.8596 9.92968 31.5266 8.92828 30.7043 8.51672L28.6768 7.50199C31.242 4.3295 33.5375 3.05484 34.3249 3.38975C34.4814 3.45806 34.6146 3.64302 34.7244 3.94127C35.3254 5.57417 34.806 9.69807 32.2574 15.0067H24.1156C24.4835 14.2719 25.1593 12.9739 25.1593 12.9739ZM7.50232 12.6623L8.99386 9.27485C9.6514 7.78191 9.98433 6.199 9.98433 4.5711V3.34476H14.9783V4.5711C14.9783 6.20067 15.3112 7.78191 15.9688 9.27485L17.4603 12.6623C17.7932 13.4171 18.0163 14.2035 18.1545 15.0067H6.81149C6.94799 14.2035 7.17272 13.4171 7.50565 12.6623H7.50232ZM34.8859 30.9457C34.4198 34.2082 31.5866 36.6692 28.2939 36.6692H11.6989C8.40457 36.6692 5.57132 34.2082 5.10023 30.9108L3.34068 20.2436C3.27077 19.7587 3.4106 19.2872 3.73021 18.9156C4.03984 18.559 4.46766 18.3658 4.93542 18.3524C4.95374 18.3524 35.0008 18.3408 35.0008 18.3408C35.4902 18.3408 35.9363 18.544 36.2593 18.9156C36.5789 19.2872 36.7187 19.7587 36.6555 20.2069L34.8859 30.9457ZM13.312 23.3394V31.6706C13.312 32.592 12.5679 33.3368 11.6473 33.3368C10.7268 33.3368 9.98266 32.592 9.98266 31.6706V23.3394C9.98266 22.418 10.7268 21.6732 11.6473 21.6732C12.5679 21.6732 13.312 22.418 13.312 23.3394ZM21.6353 23.3394V31.6706C21.6353 32.592 20.8912 33.3368 19.9706 33.3368C19.05 33.3368 18.3059 32.592 18.3059 31.6706V23.3394C18.3059 22.418 19.05 21.6732 19.9706 21.6732C20.8912 21.6732 21.6353 22.418 21.6353 23.3394ZM29.9585 23.3394V31.6706C29.9585 32.592 29.2144 33.3368 28.2939 33.3368C27.3733 33.3368 26.6292 32.592 26.6292 31.6706V23.3394C26.6292 22.418 27.3733 21.6732 28.2939 21.6732C29.2144 21.6732 29.9585 22.418 29.9585 23.3394Z" fill="#A72901"/>
</svg>
