<svg width="592" height="932" viewBox="0 0 592 932" fill="none" xmlns="http://www.w3.org/2000/svg">
<g id="Group">
<path id="Vector" d="M337.272 294.081L345.238 294.416C348.484 299.436 345.472 306.531 342.929 311.351C341.59 313.894 337.54 318.48 336.938 320.588C336.168 323.266 336.302 328.654 335.766 332.001C333.357 346.694 329.675 361.085 322.713 374.271C341.824 385.249 358.424 400.611 374.422 415.706C378.907 419.923 385.467 428.156 389.985 431.302C390.554 431.704 390.655 432.239 391.659 431.938C394.202 426.282 395.976 417.178 399.591 412.359C400.361 411.355 401.967 410.953 402.235 410.217C403.105 407.807 403.44 402.921 404.276 399.841C407.422 388.529 411.338 380.597 419.471 371.929C410.736 364.733 399.557 345.522 412.844 337.456C402.369 331.231 405.448 311.083 413.514 304.289C415.823 302.348 419.304 301.544 420.81 298.666C402.001 299.637 403.707 277.012 407.389 264.361C431.854 179.518 581.861 190.73 586.546 272.494C587.048 281.129 584.705 293.78 577.275 299.001C587.383 306.364 594.177 324.972 583.333 334.243C589.692 344.987 589.324 354.826 582.63 365.235C590.797 370.59 595.248 384.111 589.19 392.479C572.054 416.208 528.846 413.731 504.113 426.048C502.172 427.018 493.872 431.135 494.441 433.511C497.185 435.787 500.733 437.795 500.231 442.012C491.663 470.527 483.229 501.921 467.766 527.591C448.422 559.621 409.297 571.97 374.422 558.55L376.43 589.341V616.584C374.188 630.942 378.874 647.007 361.805 653.132C356.851 719.199 344.033 784.329 334.595 849.827C345.639 855.751 357.855 860.503 367.427 868.803C379.041 878.877 387.475 894.373 371.042 904.849C354.609 915.324 311.033 911.208 291.42 908.363C271.808 905.518 253.065 901.402 235.227 895.31C238.105 908.798 226.659 918.805 215.313 923.457C186.262 935.406 124.312 936.175 99.6456 914.521C87.3291 903.744 88.0654 890.424 93.9224 876.267C94.4913 874.861 98.106 868.937 97.3697 868.1C88.5675 866.962 91.1445 856.788 90.7763 850.496C89.538 830.716 88.4001 810.635 86.0238 790.955C85.2875 784.864 83.8818 778.806 83.4467 772.648C78.2925 772.916 73.2388 771.142 69.2226 767.996C68.0177 767.059 64.7712 763.076 63.9345 762.942C62.8635 762.808 59.2489 764.147 56.6383 764.013C30.5329 762.541 19.321 724.118 15.3718 703.167C11.9245 684.893 10.6526 666.385 11.1212 647.777C10.7196 646.606 6.1008 645.869 4.32696 643.961C-0.0908884 639.242 0.879749 625.018 0.612001 618.525C-2.63445 545.33 5.02985 441.778 73.2053 398.101C84.1161 391.107 96.2651 385.283 108.046 379.894L108.582 379.158C106.942 373.703 110.824 368.816 112.631 363.963C107.243 355.362 104.867 345.556 101.888 335.95C89.2033 331.867 78.2592 323.968 70.9965 312.79C61.391 298.03 53.4589 267.574 61.6921 251.341C64.0015 246.79 68.1516 243.744 70.7622 239.46L56.1364 202.042C25.2784 192.303 9.31391 168.875 16.175 136.243C21.8981 109.1 42.3809 92.1649 68.0512 84.3668C80.1334 45.5098 120.363 23.7218 159.889 30.0473C189.609 -1.71433 245.401 -11.2862 280.945 15.9572C307.686 36.44 312.372 76.502 294.533 104.348C293.06 106.657 286.936 113.384 286.969 115.259C287.003 116.53 287.973 119.107 288.442 120.479C293.228 135.239 303.436 152.141 307.05 166.833C307.987 170.615 306.247 173.059 306.481 174.063C306.783 175.435 311.535 183.635 312.639 186.446C321.341 208.234 330.244 239.628 334.461 262.721C336.335 273.029 337.071 283.538 337.306 294.014L337.272 294.081ZM226.425 18.5008C211.698 19.1702 197.307 25.1944 185.827 34.2309C181.878 37.3435 171.503 48.9572 168.256 49.7939C162.834 51.233 156.408 47.3172 150.652 46.8151C121.668 44.2046 92.3493 64.2858 86.0906 92.9349C85.5552 95.445 86.8941 98.1224 83.748 99.8627C81.9072 100.9 74.6445 101.47 71.5989 102.306C58.6131 105.82 46.6982 113.92 39.7368 125.466C25.3118 149.43 31.7713 179.652 61.7256 184.505C107.611 143.272 167.419 119.275 228.299 110.506C241.485 108.598 254.839 107.795 268.026 105.82C306.113 66.5281 279.773 15.9907 226.391 18.4673L226.425 18.5008ZM284.258 158.165L270.57 124.395C212.067 128.445 152.961 143.205 103.595 175.368C93.7216 181.794 84.5846 189.358 74.8788 196.051L74.7785 196.855L86.325 225.705C145.129 185.844 212.702 161.177 284.258 158.132V158.165ZM297.512 195.315L291.286 177.343C289.646 176.104 279.405 177.175 276.661 177.41C256.078 179.116 234.189 182.363 214.141 187.149C185.091 194.044 157.011 205.691 131.24 220.283C135.524 241.636 138.569 264.562 137.13 286.45C136.561 295.219 135.825 300.039 125.55 299.369C122.94 299.202 115.175 297.026 113.468 295.186C111.36 292.91 109.686 276.677 108.448 272.059C105.436 260.981 100.281 252.614 87.2622 254.488C70.0593 256.964 75.5482 282.099 79.9995 293.211C83.7146 302.515 93.9559 315.501 104.465 317.141C111.895 318.279 116.614 314.564 118.388 324.437C122.003 344.753 123.542 353.186 139.406 367.712C159.889 386.421 199.081 407.238 226.826 394.788C231.043 392.913 241.485 385.249 242.858 380.999C243.929 377.618 239.912 368.749 239.812 364.064C239.444 351.212 252.095 354.458 260.663 353.053C268.227 351.781 271.674 348.534 277.832 345.723C285.162 342.376 290.349 350.375 288.576 357.136C287.237 362.156 278.535 364.566 287.873 369.72C294.232 373.234 302.231 372.799 306.782 366.708C312.773 358.742 316.053 343.681 317.392 333.909C299.654 342.778 281.447 340.569 264.143 332.068C257.684 336.552 252.363 342.075 245.167 345.522C224.182 355.563 195.801 354.893 175.987 342.376C169.997 338.594 158.182 329.156 162.366 321.057C165.579 314.798 173.711 320.621 178.832 321.659C197.173 325.407 210.56 316.706 223.948 305.728C226.257 303.82 227.83 300.674 231.077 300.206C234.323 299.737 240.849 302.917 244.899 303.318C255.81 304.423 272.377 302.615 276.125 290.299C281.681 272.059 260.864 269.08 253.467 258.303C249.819 252.982 250.79 245.551 258.086 245.083C268.561 244.38 274.251 249.903 286.166 244.012C290.55 241.837 294.165 236.181 299.352 238.289C300.357 238.691 302.599 240.933 303 241.937C307.351 252.614 289.278 259.173 281.614 261.014C290.617 269.649 293.998 279.723 291.856 292.207C300.658 296.759 310.732 299.871 320.739 298.499C322.111 297.562 320.906 286.25 320.705 283.873C318.563 259.173 311.97 235.176 303.302 212.116C293.194 208.97 281.982 208.97 271.975 212.585C266.687 214.526 257.651 222.257 253.467 214.526C248.982 206.226 261.935 200.135 267.992 197.993C277.397 194.679 287.672 193.742 297.512 195.349V195.315ZM569.31 281.831V271.222C569.31 268.545 566.699 261.181 565.461 258.504C547.823 220.45 482.928 216.3 450.463 235.21C433.461 245.117 422.852 262.353 422.149 282.133C436.172 282.3 450.229 281.932 464.285 282.133C487.111 282.401 509.903 282.334 532.494 282.133C544.309 282.032 556.157 282.601 567.971 282.534C568.741 282.534 568.841 282.501 569.31 281.798V281.831ZM566.632 300.708H434.699C435.603 307.401 443.234 317.61 449.894 318.982C459.533 320.99 470.076 309.309 480.083 309.276C488.852 309.276 497.085 320.354 507.226 321.291C522.722 322.697 528.411 309.778 539.724 309.276C553.178 308.707 586.814 335.18 566.565 300.708H566.632ZM571.285 345.12H420.81C421.714 351.68 426.132 358.407 432.055 361.386C439.151 364.967 452.839 366.038 460.872 366.373C490.692 367.645 522.454 365.67 552.174 364.131C561.612 362.993 571.519 355.161 571.285 345.12ZM573.929 374.975C573.025 374.339 565.963 378.723 564.189 379.426C554.483 383.342 547.221 383.007 537.147 383.542C511.309 384.881 480.083 385.685 454.278 384.245C447.417 383.877 440.59 382.371 433.896 380.999C425.696 388.964 421.914 401.181 420.14 412.292L477.84 429.294C481.89 415.806 501.837 407.673 514.455 403.925C531.691 398.838 550.099 399.44 565.796 389.634C570.816 386.521 576.238 381.367 573.929 374.941V374.975ZM372.548 537.899C397.717 547.873 424.994 550.082 444.372 528.093C462.78 507.209 471.749 475.112 479.781 448.94L412.51 430.064L400.829 460.051C394.169 466.912 392.194 458.445 388.981 454.831C384.865 450.145 377.2 444.824 372.381 440.272C359.094 427.721 344.435 411.924 329.909 401.214C327.433 399.407 313.711 390.236 311.502 391.642C295.069 429.16 256.881 450.112 219.63 462.495C213.606 464.503 192.789 469.088 189.509 472.167C185.927 475.547 186.028 484.015 186.095 488.701C186.429 507.845 187.3 527.189 188.136 546.333L188.772 655.407C198.512 653.968 208.485 655.14 218.292 654.772C253.534 653.5 291.454 649.049 326.094 642.589C336.034 640.748 345.84 638.305 355.68 636.063C358.291 618.626 358.458 600.486 357.789 582.814C356.885 558.851 353.739 533.046 349.622 509.418C347.38 496.566 341.858 479.062 341.222 466.779C340.92 461.156 343.196 456.906 349.455 457.876C354.274 458.646 357.521 469.724 359.127 474.075C366.658 494.759 369.268 516.245 372.481 537.933L372.548 537.899ZM217.957 443.251C183.116 433.243 150.618 415.036 120.697 394.955C106.205 400.879 91.3787 407.673 78.7945 417.111C22.7681 459.215 15.1373 551.789 17.7144 616.617C17.8817 620.567 18.7186 624.817 18.6851 628.901L65.8087 630.206L93.8554 627.428C95.0268 626.725 94.6921 610.091 94.6586 607.28C94.0896 576.723 93.9893 544.995 99.5786 514.806C101.018 507.142 101.687 493.286 112.163 494.959C118.187 495.93 118.053 502.49 117.852 507.209C117.083 524.479 113.234 542.552 112.531 560.223C111.594 583.818 113.435 609.221 111.895 632.515C111.795 634.122 111.36 638.138 110.924 639.477C110.456 640.882 108.682 641.685 108.615 643.024C108.615 643.392 109.686 647.844 109.887 648.212C110.858 650.053 136.796 652.998 140.711 653.332C150.718 654.236 160.859 654.504 170.867 654.671C170.666 638.004 171.101 621.27 170.867 604.602C170.398 568.423 169.494 532.109 168.892 495.897C168.557 475.246 165.746 461.257 188.404 452.488L217.923 443.217L217.957 443.251ZM268.327 415.404C250.388 420.257 231.746 419.923 213.305 420.358C218.292 423.203 224.316 425.345 229.872 426.984C234.557 428.357 244.196 431.101 248.782 430.666C254.438 430.097 265.114 420.157 268.327 415.404ZM93.9224 646.17C71.4984 648.915 49.0076 650.588 26.3828 648.714C26.1486 663.44 27.9559 678.769 30.5664 693.261C33.612 710.43 38.8331 731.649 52.254 743.497C50.6475 736.335 48.606 729.206 47.7023 721.843C46.966 715.752 44.2884 703 53.8939 703.669C56.5714 703.87 57.7428 705.142 58.7469 707.485C61.1901 713.208 62.0603 721.776 64.0015 728.068C66.4112 735.732 73.7074 751.63 80.4012 756.081C85.2206 759.261 88.3331 755.579 88.0319 750.458C87.1282 735.364 74.4103 716.32 76.82 699.452C77.9245 691.721 86.6597 692.056 90.3747 698.381C92.4498 701.929 96.6667 718.898 102.624 715.986C108.582 713.074 104.264 690.047 103.093 684.358C100.482 671.573 96.7003 658.888 93.9224 646.137V646.17ZM342.594 658.018C331.616 659.892 320.705 662.168 309.661 663.875C278.702 668.628 247.61 671.472 216.283 672.577C214.71 672.644 213.271 673.246 211.698 673.28H167.219L115.208 669.263C121.668 692.558 130.336 724.955 100.583 735.264C102.022 742.393 105.034 749.488 103.796 756.918C103.294 759.997 100.616 762.206 100.583 765.017L108.682 856.085C146.133 864.72 188.136 866.896 224.416 852.671L246.673 713.509C249.35 701.628 262.638 702.933 262.403 715.919L242.489 851.5C266.754 853.675 292.391 854.11 316.087 847.852C317.091 847.015 318.329 838.447 318.63 836.473C326.73 787.609 335.432 735.13 340.519 685.998C341.489 676.66 341.422 667.155 342.594 657.918V658.018Z" fill="#A72901"/>
<path id="Vector_2" d="M288.721 474.542C296.854 473.237 304.819 479.462 304.552 487.863C304.15 500.815 287.817 504.865 280.287 494.59C275.032 487.428 279.986 475.948 288.721 474.542Z" fill="#A72901"/>
<path id="Vector_3" d="M217.771 562.059C234.773 559.181 238.388 583.88 224.599 586.792C204.852 590.976 202.811 564.603 217.771 562.059Z" fill="#A72901"/>
<path id="Vector_4" d="M225.043 485.885C235.954 496.829 221.261 514.701 208.376 505.531C194.084 495.356 212.425 473.234 225.043 485.885Z" fill="#A72901"/>
<path id="Vector_5" d="M296 556.112C313.47 553.133 316.918 578.301 300.987 580.979C283.683 583.89 280.805 558.689 296 556.112Z" fill="#A72901"/>
<path id="Vector_6" d="M203.231 211.412C210.025 210.71 222.275 209.806 221.973 219.511C221.739 228.381 210.393 225.268 204.436 225.871C199.516 226.373 192.153 229.285 187.902 231.895C183.116 234.874 179.736 240.798 173.511 238.053C170.766 236.848 169.26 233.803 169.561 230.857C170.565 220.583 194.429 212.316 203.198 211.412H203.231Z" fill="#A72901"/>
<path id="Vector_7" d="M220.422 249.838C228.254 248.232 232.036 254.959 227.518 261.586C218.916 274.136 196.76 280.428 183.908 270.823C177.616 266.104 181.431 255.695 189.062 257.034C193.078 257.737 193.882 262.757 201.546 261.485C209.21 260.213 215.235 250.943 220.422 249.872V249.838Z" fill="#A72901"/>
<path id="Vector_8" d="M520.09 239.868C525.077 238.998 530.599 244.554 526.248 248.738C517.914 256.837 509.213 241.776 520.09 239.868Z" fill="#A72901"/>
<path id="Vector_9" d="M457.138 252.448C464.769 251.511 466.409 262.756 460.117 264.128C452.352 265.835 448.537 253.485 457.138 252.448Z" fill="#A72901"/>
<path id="Vector_10" d="M484.92 242.838C480.1 247.256 472.101 241.299 476.854 234.471C482.309 226.639 490.074 238.119 484.92 242.838Z" fill="#A72901"/>
<path id="Vector_11" d="M496.844 253.787C506.248 251.678 506.483 264.129 498.618 264.899C490.752 265.669 490.686 255.193 496.844 253.787Z" fill="#A72901"/>
</g>
</svg>
