<svg width="40" height="40" viewBox="0 0 40 40" fill="none" xmlns="http://www.w3.org/2000/svg">
<path id="Pay" d="M33.3333 5H25.96C24.67 2.06167 21.7417 0 18.3333 0H8.33333C3.73833 0 0 3.73833 0 8.33333V31.6667C0 36.2617 3.73833 40 8.33333 40H18.3333C22.9283 40 26.6667 36.2617 26.6667 31.6667V26.6667H33.3333C37.01 26.6667 40 23.6767 40 20V11.6667C40 7.99 37.01 5 33.3333 5ZM33.3333 8.33333C35.1717 8.33333 36.6667 9.82833 36.6667 11.6667H26.6667V8.33333H33.3333ZM23.3333 31.6667C23.3333 34.4233 21.09 36.6667 18.3333 36.6667H8.33333C5.57667 36.6667 3.33333 34.4233 3.33333 31.6667V30H23.3333V31.6667ZM23.3333 26.6667H3.33333V8.33333C3.33333 5.57667 5.57667 3.33333 8.33333 3.33333H18.3333C21.09 3.33333 23.3333 5.57667 23.3333 8.33333V26.6667ZM33.3333 23.3333H26.6667V15H36.6667V20C36.6667 21.8383 35.1717 23.3333 33.3333 23.3333ZM20.3033 10.6683C20.9767 11.295 21.015 12.35 20.3883 13.0233L15.175 18.6233C13.44 20.4383 10.43 20.4433 8.7 18.6667L6.32167 16.2867C5.67 15.635 5.67 14.58 6.32167 13.93C6.97333 13.2783 8.02667 13.2783 8.67833 13.93L11.0567 16.3083C11.5167 16.7683 12.3183 16.7667 12.775 16.3083L17.9467 10.7517C18.5767 10.0783 19.63 10.0433 20.3033 10.6683ZM10 33.3333C10 32.4133 10.745 31.6667 11.6667 31.6667H15C15.9217 31.6667 16.6667 32.4133 16.6667 33.3333C16.6667 34.2533 15.9217 35 15 35H11.6667C10.745 35 10 34.2533 10 33.3333Z" fill="#A72901"/>
</svg>
