<svg width="40" height="40" viewBox="0 0 40 40" fill="none" xmlns="http://www.w3.org/2000/svg">
<path id="Moto" d="M39.7807 28.1072C38.4076 19.2432 34.8538 11.7422 34.4066 10.8246C31.9941 4.34659 25.2002 0 17.4669 0C7.83501 0 0 7.86438 0 17.5287C0 19.4408 0.545581 24.6681 1.01441 27.8895C1.54498 31.5446 4.44807 34.4512 8.07026 34.9602C14.976 35.9297 21.9 37.4483 29.8651 39.7405C30.4708 39.9146 31.0848 40 31.6954 40C33.8661 40 35.9516 38.9217 37.253 36.9979L38.7463 34.5534C40.2479 32.062 40.1227 30.3089 39.7807 28.1072ZM36.4088 28.1925L21.0891 23.1913C22.4472 21.964 23.3182 20.2059 23.3182 18.2319C23.3182 17.0063 22.9645 15.8728 22.3905 14.8832H32.4946C32.5113 14.8832 32.5246 14.8748 32.5413 14.8732C33.7259 17.7614 35.5078 22.7141 36.4088 28.1925ZM16.6444 14.8832C18.4847 14.8832 19.9813 16.3851 19.9813 18.2319C19.9813 20.0787 18.4847 21.5806 16.6444 21.5806C14.8041 21.5806 13.3075 20.0787 13.3075 18.2319C13.3075 16.3851 14.8041 14.8832 16.6444 14.8832ZM35.8966 32.8121L34.4517 35.1812C33.6408 36.3784 32.1726 36.9192 30.7861 36.5224C22.6675 34.185 15.5966 32.6362 8.53409 31.6434C6.37012 31.3386 4.6366 29.5956 4.31793 27.4056C3.87413 24.36 3.33856 19.275 3.33856 17.5303C3.33689 9.7095 9.6753 3.34868 17.4669 3.34868C23.6135 3.34868 28.9725 6.62537 31.0564 11.5345H16.6444C12.9638 11.5345 9.97062 14.5383 9.97062 18.2319C9.97062 21.0883 11.7609 23.5262 14.2735 24.4872C14.2986 24.4973 14.3236 24.504 14.3503 24.514L36.4321 31.7221C36.3103 32.0569 36.1385 32.4102 35.8966 32.8121Z" fill="#A72901"/>
</svg>
