<svg width="1084" height="781" viewBox="0 0 1084 781" fill="none" xmlns="http://www.w3.org/2000/svg">
<path d="M739.392 8.19238C756.458 1.49989 774.171 -0.980057 792.272 0.342773C809.105 1.57395 824.733 6.87995 837.614 18.3311C850.705 29.9692 858.203 44.5342 857.27 62.252C856.54 76.0821 850.634 87.89 839.451 96.5791C837.084 98.418 836.494 100.098 837.348 103.208C840.844 115.956 844.083 128.785 846.994 141.679C847.791 145.206 849.529 149.495 845.14 152.534C849.017 162.046 849.243 172.247 849.884 182.325C850.227 187.712 851.592 191.757 856.272 195.212C861.855 199.333 866.984 204.282 871.507 209.56C876.144 214.973 877.564 221.692 875.995 228.878C873.886 238.542 866.353 242.031 858.078 244.275C854.917 245.133 854.069 246.744 854.144 249.445C854.396 258.678 850.902 266.486 845.357 273.633C844.596 274.615 844.46 276.385 844.609 277.727C845.922 289.507 844.822 300.826 837.816 310.809C829.808 322.221 818.417 328.249 804.878 330.558C791.578 332.826 778.704 330.718 765.374 326.373C770.008 338.903 773.14 351.244 771.945 365.012C781.519 362.343 790.329 359.518 799.317 357.488C807.955 355.537 816.734 353.995 825.534 353.036C834.26 352.084 842.341 354.886 849.586 359.741C851.981 361.346 853.587 360.919 855.157 358.894C866.174 344.672 881.538 337.393 898.132 332.226C908.307 329.059 918.677 327.832 929.375 329.635C935.327 330.637 938.76 334.688 941.957 338.884C949.268 348.48 952.841 359.618 954.335 371.502C955.698 382.35 955.931 393.145 952.685 403.73C948.466 417.49 940.738 424.091 926.3 424.82C916.347 425.322 906.324 424.43 896.333 424.169C895.244 424.141 894.154 424.165 892.691 424.165C907.117 449.992 921.375 475.52 935.37 500.573C944.123 498.714 952.459 496.718 960.882 495.208C972.871 493.057 984.94 493.241 997.058 494.386C1017.15 496.284 1035.3 503.364 1051.94 514.502C1055.23 516.703 1058.28 519.366 1061.07 522.175C1066.89 528.014 1065.53 537.36 1058.02 540.744C1053.77 542.661 1048.89 543.366 1044.21 544.074C1040.89 544.576 1037.43 544.172 1033.46 544.172C1039.37 548.274 1044.96 551.661 1049.99 555.747C1067.02 569.581 1077.88 587.351 1081.75 608.956C1088.59 647.148 1076.28 679.296 1049.46 706.333C1034.05 721.876 1015.63 732.215 993.921 736.472C945.82 745.903 899.176 717.82 888.175 669.301C886.255 660.833 886.39 651.898 885.609 643.175C885.504 641.987 885.595 640.781 885.595 639.829C879.349 641.753 873.367 644.665 867.181 645.202C860.764 645.76 857.179 649.158 853.013 653.159C836.142 669.363 815.885 679.679 792.879 683.007C774.422 685.677 755.647 686.394 736.98 687.312C716.873 688.3 696.726 688.479 676.6 689.141C675.369 689.181 673.706 690.032 673.034 691.034C663.171 705.744 649.775 713.797 631.768 714.019C617.846 714.19 603.925 714.808 590.016 715.437C588.632 715.499 586.697 716.696 586.057 717.911C575.08 738.753 561.86 754.646 538.023 766.847C505.273 783.61 475.85 786.859 443.841 769.091C426.404 759.412 415.899 748.378 407.703 733.009C399.457 717.544 396.319 701.126 398.631 683.218C394.955 683.218 391.306 683.325 387.666 683.193C381.774 682.98 375.682 683.469 370.044 682.118C360.752 679.891 356.525 671.769 359.692 662.678C362.641 654.212 366.561 646.082 370.052 637.807C367.57 636.039 364.639 634.274 362.099 632.062C358.726 629.125 357.962 625.289 359.881 621.218C364.721 610.948 369.685 600.736 374.593 590.499C376.795 585.904 380.521 583.995 385.519 583.895C391.581 583.773 398.327 584.956 403.497 582.676C408.411 580.508 411.649 574.577 415.673 570.347C429.602 555.697 445.078 543.084 463.401 534.239C463.993 533.954 464.551 533.595 464.733 533.492C458.036 533.492 451.032 533.584 444.033 533.463C438.685 533.369 435.542 531.064 434.245 525.884C433.527 523.013 433.322 519.875 433.59 516.923C434.322 508.878 436.866 501.451 442.179 495.149C445.576 491.122 450.11 489.205 455.121 488.798C464.863 488.007 474.638 487.627 484.399 487.054C490.285 486.709 496.169 486.323 502.522 485.925C495.014 468.791 493.636 451.229 497.936 432.538C485.69 427.51 473.485 422.412 461.215 417.477C431.565 405.551 401.879 393.708 372.215 381.815C364.989 378.918 358.344 375.077 357.119 366.602C356.582 362.882 357.122 358.567 358.54 355.076C369.389 328.363 380.556 301.777 391.664 275.169C397.815 260.436 404.047 245.736 410.295 230.895C407.125 227.961 406.794 224.638 408.456 220.576C413.112 209.205 417.346 197.662 421.988 186.285C425.813 176.914 437.147 171.163 447.147 173.575C456.423 175.812 465.575 178.571 474.83 180.903C476.13 181.231 478.25 180.962 479.083 180.097C494.286 164.296 512.503 163.004 532.243 168.778C546.259 172.879 558.575 179.456 567.023 192.01C572.526 200.188 574.786 209.112 574.216 219.122C586.02 223.432 597.773 227.712 609.517 232.017C612.334 233.049 615.075 234.305 617.931 235.212C624.497 237.298 629.718 240.935 632.398 247.071C642.829 244.251 653.039 241.489 663.354 238.697C653.888 221.754 650.219 203.842 657.957 184.964C652.996 180.396 652.924 174.047 651.38 168.411C649.113 160.129 647.535 151.658 645.538 142.706C640.329 142.138 634.902 141.741 629.539 140.924C612.926 138.39 598.012 122.977 595.771 106.46C592.267 80.6365 603.422 61.498 623.877 47.4893C643.342 34.1594 665.254 30.066 688.62 33.9014C690.282 34.1749 692.411 33.5082 693.907 32.5957C708.624 23.6278 723.234 14.5283 739.392 8.19238ZM463.202 683.309C453.947 683.309 444.752 683.242 435.564 683.441C434.865 683.457 433.679 685.32 433.609 686.382C432.285 706.713 439.283 723.352 456.354 734.941C476.218 748.425 505.111 747.35 526.858 732.708C534.256 727.726 540.495 721.532 546.306 713.911C543.982 713.911 542.483 713.892 540.983 713.914C522.66 714.189 504.335 714.468 486.013 714.754C478.783 714.866 473.01 711.796 468.447 706.425C462.603 699.547 461.275 691.548 463.204 683.31L463.202 683.309ZM289.454 717.222H174.163V702.504H289.454V717.222ZM998.615 568.352C989.064 567.356 979.422 567.966 970.098 571.742C973.876 579.281 977.573 586.661 981.15 593.801C983.368 593.491 984.99 593.122 986.621 593.057C1009.21 592.143 1024.95 611.232 1025.42 630.584C1025.88 648.802 1017.5 662.894 1002.69 672.889C984.281 685.309 960.551 680.997 948.918 663.322C941.38 651.868 940.866 639.493 945.715 626.766C946.186 625.528 946.568 623.688 945.997 622.71C942.274 616.333 938.276 610.116 934.071 603.37L934.07 603.368C933.38 604.265 933.105 604.58 932.877 604.925C921.468 622.12 916.112 640.778 921.367 661.155C929.397 692.291 955.369 706.408 983.286 703.717C1001.09 702.001 1016.15 693.609 1028.57 680.77C1047.83 660.868 1054.5 637.341 1047.69 610.442C1041.99 587.909 1022.01 570.791 998.615 568.352ZM475.851 694.685C479.447 701.292 485.083 703.224 491.5 703.087C510.641 702.682 529.781 702.152 548.91 701.385C552.365 701.246 555.987 700.228 559.125 698.749C561.857 697.461 564.016 694.948 566.426 692.976L565.702 692.131C536.005 692.974 506.308 693.819 475.851 694.685ZM289.457 679.2H82.1777V664.482H289.457V679.2ZM866.092 416.847C859.028 424.181 856.118 431.621 858.416 441.239C863.204 461.281 867.702 481.403 871.756 501.604C874.125 513.404 873.661 525.405 871.895 537.346C869.55 553.209 863.687 567.908 857.245 582.41C848.856 601.304 839.593 619.619 823.803 633.758C809.832 646.267 793.679 654.354 775.161 656.565C760.564 658.309 745.775 658.482 731.065 659.238C722.531 659.678 713.985 659.9 705.443 660.212C683.263 661.021 661.082 661.881 638.898 662.593C633.642 662.761 631.094 660.452 631.508 655.078C632.136 646.931 633.366 638.807 634.769 630.75C635.338 627.476 636.125 624.755 633.391 621.908C631.893 620.35 631.191 617.827 630.616 615.614C627.189 602.444 628.821 589.662 634.936 577.695C641.739 564.381 644.097 549.861 648.104 534.941C642.08 534.941 636.557 535.297 631.096 534.873C616.58 533.746 602.111 531.903 587.581 531.063C573.827 530.267 559.977 529.573 546.251 530.322C532.49 531.074 518.454 532.242 505.19 535.714C459.679 547.626 424.086 574.084 399.038 613.748C389.09 629.5 381.8 646.933 373.325 663.613C372.414 665.405 370.877 667.754 373.735 668.796C376.144 669.674 379.134 670.317 380.521 666.521C382.023 662.415 383.808 658.406 385.612 654.42C400.544 621.423 421.874 593.575 452.515 573.744C486.707 551.616 523.883 541.969 564.489 550.072C583.088 553.783 598.434 563.264 608.919 579.425C616.635 591.319 619.655 604.66 620.057 618.792C620.604 638.047 616.109 655.696 604.775 671.439C604.266 672.148 604.015 673.043 603.461 674.25C611.52 674.25 619.106 674.409 626.684 674.224C670.382 673.148 714.087 672.228 757.771 670.72C770.745 670.271 783.908 669.22 796.556 666.474C824.244 660.461 846.762 646.274 859.039 619.702C866.762 602.987 872.972 585.569 879.762 568.428C886.253 552.04 893.694 536.206 905.368 522.732C909.666 517.773 913.949 512.798 918.378 507.666C901.553 478.444 883.943 447.854 866.092 416.847ZM546.081 560.817C521.326 559.082 497.904 564.627 475.701 575.349C450.387 587.574 430.295 605.916 414.268 628.866C405.707 641.128 398.752 654.212 393.765 668.252V668.254C394.071 668.493 394.175 668.645 394.277 668.644C419.072 668.27 443.871 668.013 468.66 667.452C483.81 667.109 498.954 666.359 514.095 665.686C536.242 664.702 558.379 663.483 580.531 662.644C591.092 662.244 598.259 657.512 601.608 647.547C605.882 634.826 606.866 621.751 604.75 608.56C603.107 598.312 599.527 588.802 592.381 580.869C579.976 567.096 563.757 562.057 546.081 560.817ZM1012.98 623.939C1009.75 612.057 997.952 603.052 986.42 604.151L986.424 604.152C988.62 608.684 990.631 612.83 992.635 616.979C994.721 621.299 996.889 625.583 998.865 629.955C1003.44 640.085 998.822 651.609 988.529 655.935C979.021 659.931 969.989 657.017 963.437 647.822C960.654 643.917 957.898 639.992 954.806 635.616C951.175 652.525 962.297 671.683 985.016 668.179C1004.48 665.178 1018.16 642.963 1012.98 623.939ZM844.199 425.388C839.924 426.318 835.952 427.919 832.033 427.798C828.984 427.703 826.656 428.117 823.978 429.483C817.687 432.69 811.209 433.003 804.649 429.701C803.042 428.893 800.753 428.713 798.975 429.114C793.839 430.274 788.622 430.697 784.196 427.829C780.811 425.637 777.755 424.984 774.489 425.983C772.593 430.624 770.955 435.095 768.953 439.396C767.09 443.403 763.566 445.813 759.332 446.341C750.345 447.459 741.283 448.881 732.286 448.677C726.16 448.537 724.172 451.887 721.596 455.873C732.463 460.99 741.767 467.503 748.317 477.534C759.909 495.28 760.771 514.527 754.931 533.957C747.358 559.147 738.417 583.924 730.359 608.974C728.896 613.522 726.605 615.322 722.096 614.563C717.727 613.829 715.874 615.746 716.024 620.099C718.031 620.48 719.928 620.744 721.775 621.206C731.554 623.649 741.419 625.821 751.059 628.731C757.688 630.733 761.408 635.694 761.546 643.832C765.857 643.451 769.801 643.209 773.717 642.738C794.011 640.293 810.542 631.013 823.444 615.198C836.106 599.68 843.683 581.501 850.925 563.108C860.116 539.76 862.201 516.068 856.811 491.382C852.017 469.43 844.218 448.025 844.199 425.388ZM943.562 584.714L943.56 584.716C951.984 600.719 960.16 616.342 968.444 631.907C970.044 634.915 971.837 637.881 973.958 640.534C976.031 643.126 978.742 644.929 982.124 642.321C985.367 639.821 984.984 637.041 983.104 633.737C976.541 622.21 970.174 610.57 963.743 598.968C959.871 591.984 956.02 584.989 952.046 577.792C948.976 580.298 946.33 582.456 943.562 584.714ZM289.455 641.178H0V626.46H289.455V641.178ZM1047.33 528.076C1018.85 508.383 987.591 503.25 954.108 510.773C929.023 516.41 911.437 531.725 901.444 554.999C890.961 579.413 881.713 604.357 871.619 629.838C880.601 625.924 887.994 620.877 893.838 613.748C899.322 607.059 904.463 600.082 910.046 593.478C927.27 573.105 947.514 556.478 971.549 544.66C983.622 538.724 996.15 533.976 1009.6 532.692C1021.1 531.596 1032.68 531.376 1044.21 530.744C1045.79 530.658 1047.36 530.427 1048.87 530.27C1048.87 529.612 1048.92 529.428 1048.86 529.371C1048.36 528.923 1047.88 528.454 1047.33 528.076ZM391.959 599.178C388.023 597.666 385.524 598.492 383.87 602.508C381.337 608.656 378.328 614.606 375.607 620.681C375.142 621.719 375.105 622.949 374.871 624.092C375.261 624.17 375.649 624.248 376.038 624.326C381.328 615.971 386.617 607.616 391.959 599.178ZM510.63 428.738C510.05 437.393 508.795 446.389 509.013 455.349C509.293 466.756 513.298 477.186 521.663 485.264C530.867 494.15 542.148 499.851 553.972 504.408C572.867 511.691 592.587 515.252 612.701 516.871C631.07 518.35 649.479 521 666.748 515.042C661.856 542.152 656.92 569.515 651.901 597.328L651.903 597.325C654.203 597.64 655.01 597.832 655.82 597.85C675.394 598.241 694.967 598.67 714.543 598.855C715.745 598.867 717.653 597.173 718.077 595.89C725.667 572.986 733.499 550.145 740.361 527.021C744.285 513.799 743.77 500.275 736.132 488.124C729.134 476.992 718.412 470.334 706.466 465.532C690.911 459.28 674.62 456.955 657.955 456.214C641.522 455.483 625.25 456.571 609.12 459.513C598.301 461.485 587.594 464.084 575.506 466.688C580.803 462.396 585.247 458.796 589.183 455.606C575.986 452.079 562.46 449.213 549.47 444.782C536.514 440.363 524.095 434.376 510.63 428.738ZM497.287 502.94C485.029 502.965 472.755 503.001 460.523 503.687C453.348 504.089 448.9 510.481 449.591 518.052V518.05C471.878 517.51 493.891 516.976 515.989 516.441C511.716 512.63 507.659 508.742 503.287 505.253C501.672 503.963 499.308 502.935 497.287 502.94ZM663.825 255.924C662.786 254.828 660.431 254.047 658.999 254.398C643.792 258.139 629.432 263.998 616.083 272.258C593.063 286.502 574.119 305.124 557.932 326.643C539.532 351.105 525.071 377.63 516.14 407.057C515.186 410.198 516.128 411.49 518.462 413.021C547.297 431.923 579.409 440.406 613.402 442.202C628.81 443.016 644.298 442.291 659.749 442.401C664.331 442.434 668.909 442.936 673.491 443.222C673.166 442.377 672.731 442.086 672.255 441.93C659.865 437.847 649.283 430.842 640.047 421.764C622.374 404.396 608.324 384.691 601.231 360.604C598.696 351.995 598.137 341.09 599.863 335.73C609.588 359.531 622.974 380.939 639.791 400.207C651.278 413.367 664.281 424.543 681.771 428.572C690.817 430.657 700.151 431.93 709.42 432.498C721.366 433.23 733.381 432.896 745.365 432.986C745.703 432.988 746.043 432.598 746.444 432.353C744.392 412.191 745.088 392.418 754.832 373.554C729.483 372.264 704.704 366.033 678.83 372.66C684.865 364.827 692.181 360.402 700.309 356.481C690.392 333.241 681.432 309.615 665.487 289.01C666.674 289.467 667.55 289.727 668.357 290.128C677.339 294.599 684.691 301.263 689.729 309.65C697.091 321.91 703.608 334.717 709.786 347.626C712.216 352.705 714.721 355.763 720.588 354.674C720.837 354.627 721.08 354.548 721.727 354.38C721.366 342.269 728.399 335.103 739.473 330.582C735.925 328.277 732.911 326.464 730.049 324.437C712.293 311.865 698.969 294.886 684.731 278.807C677.883 271.072 670.932 263.422 663.825 255.924ZM849.456 376.711C839.238 365.265 826.588 362.935 812.377 366.497C799.43 369.744 786.544 373.241 773.654 376.711C771.753 377.222 769.326 377.673 768.245 379.032C760.311 388.999 758.299 400.642 759.118 413.156C761.968 413.156 764.568 413.279 767.147 413.121C769.856 412.957 772.548 412.522 775.215 412.209C775.371 397.352 787.404 392.29 798.097 393.564C803.158 394.167 807.435 396.588 810.682 400.644C815.173 406.257 814.919 412.475 812.412 419.639C814.49 419.424 815.995 419.599 817.214 419.088C822.829 416.731 825.8 412.257 825.913 406.295C826.109 395.964 820.919 387.997 813.853 380.939C819.028 380.939 823.248 382.87 826.8 386.44C834.472 394.153 836.621 403.431 834.152 414.156C840.838 410.837 843.383 404.612 840.829 395.852C838.933 389.353 835.754 383.228 833.234 377.148C842.943 378.151 848.413 386.913 850.989 406.342C856.906 399.557 855.937 383.97 849.456 376.711ZM422.391 234.836C420.806 238.521 419.428 241.622 418.131 244.758C402.64 282.238 387.156 319.724 371.686 357.213C368.801 364.203 369.031 365.233 376.051 368.423C383.258 371.696 390.662 374.544 398.04 377.426C427.533 388.946 457.048 400.409 487.39 412.217C507.977 368.354 528.453 324.726 549.215 280.488L549.217 280.486C506.443 265.091 464.531 250.005 422.391 234.836ZM912.606 342.671C893.24 346.887 875.467 353.309 862.374 369.758C873.865 373.775 878.215 382.352 879.93 392.804C880.551 396.592 880.839 400.437 881.524 404.212C881.694 405.142 882.677 406.376 883.548 406.657C894.595 410.219 905.956 411.72 917.938 411.713C909.266 388.938 906.678 366.376 912.606 342.671ZM927.834 343.489C924.116 346.878 921.98 350.631 922.053 355.245C922.196 364.41 921.814 373.684 923.114 382.7C924.122 389.682 927.088 396.452 929.779 403.072C930.559 404.991 933.398 406.07 935.294 407.535C936.681 405.598 938.627 403.85 939.361 401.69C943.553 389.356 942.518 376.892 939.518 364.503C937.601 356.589 934.518 349.242 927.834 343.489ZM754.321 336.101C748.283 339.091 743.035 341.632 737.842 344.281C732.753 346.877 731.779 349.128 732.98 355.771C735.358 354.165 737.436 352.465 739.769 351.258C743.121 349.524 745.257 350.832 745.667 354.51C745.754 355.285 745.928 356.051 746.051 356.757C748.996 357.145 751.674 357.497 754.323 357.847V336.101H754.321ZM561.568 286.338C557.958 295.243 554.462 303.872 550.964 312.499C551.109 312.535 551.257 312.572 551.402 312.608C557.712 305.095 564.021 297.583 570.533 289.827C567.278 288.56 564.536 287.493 561.566 286.336L561.568 286.338ZM825.079 150.861C809.514 150.704 793.934 150.512 778.561 153.385C764.888 155.939 751.276 158.83 737.682 161.777C736.575 162.019 735.029 163.806 735.003 164.903C734.759 175.379 734.785 185.864 734.763 196.346C734.742 205.681 734.759 215.016 734.759 224.556C725.898 223.549 720.021 219.551 716.757 211.329C713.803 203.889 710.576 196.44 706.434 189.625C703.202 184.307 697.451 181.104 691.019 181.777C681.723 182.751 675.091 190.999 674.385 200.424C673.491 212.33 678.12 222.14 685.426 230.921C692.517 239.442 701.189 243.033 712.051 238.173C712.529 237.96 713.097 237.95 713.764 237.816C714.401 240.279 714.96 242.646 715.625 244.983C727.237 285.79 769.854 306.11 807.442 298.975C817.06 297.149 823.945 291.028 828.45 282.435C828.097 282.049 828.014 281.879 827.933 281.879C826.833 281.896 825.735 281.955 824.636 281.971C814.587 282.125 806.057 278.239 800.578 270.114C797.614 265.718 794.507 263.443 789.651 262.797C789.106 262.724 788.541 262.709 788.017 262.561C775.106 258.895 765.869 251.394 762.624 237.85C761.634 233.713 761.525 229.56 765.518 226.661C767.589 225.158 769.194 224.396 770.936 227.729C773.968 233.532 779.048 236.649 785.845 237.07C795.737 237.683 804.398 234.108 812.659 229.437C815.033 228.095 817.084 225.548 818.388 223.08C820.659 218.784 822.736 217.044 827.091 217.382C822.954 225.196 824.321 228.595 832.775 231.423C840.098 233.873 847.573 234.297 855.093 232.644C866.047 230.235 868.722 222.396 861.151 214.039C857.775 210.311 853.508 207.343 849.449 204.29C844.225 200.361 840.966 195.237 840.152 188.865C839.039 180.147 838.876 171.291 837.451 162.635C835.51 150.846 837.366 150.986 825.079 150.861ZM706.702 250.556C698.247 253.73 689.905 253.44 681.268 250.973C692.476 263.88 703.434 276.497 714.392 289.115C709.948 276.533 705.248 264.308 706.702 250.556ZM665.487 289.01C665.485 289.009 665.483 289.009 665.48 289.008L665.484 289.006C665.485 289.007 665.486 289.009 665.487 289.01ZM567.873 271.841C572.87 273.882 577.638 275.83 582.072 277.64C593.634 269.756 604.837 262.117 616.499 254.164C609.232 242.519 595.465 242.377 584.443 236.634C578.793 248.641 573.393 260.111 567.873 271.841ZM840.76 256.892C831.141 263.38 820.509 265.053 808.73 265.263C824.048 277.332 835.937 274.63 840.76 256.892ZM446.735 187.222C440.912 185.308 436.966 187.369 434.406 192.966C430.94 200.543 427.639 208.195 424.274 215.819C423.582 217.39 422.919 218.973 422.245 220.543C466.501 235.973 510.337 251.259 554.512 266.661C559.937 255.11 565.379 243.522 570.993 231.568V231.566C569.852 231.073 568.996 230.666 568.115 230.33C550.399 223.572 532.8 216.479 514.929 210.159C492.321 202.163 469.52 194.704 446.735 187.222ZM684.396 201.415C684.423 196.063 689.503 193.18 695.642 195.169C700.478 196.736 704.285 199.96 705.755 204.688C707.885 211.541 709.105 218.676 710.842 226.246H710.84C703.602 225.976 697.28 221.548 695.093 215.67C696.419 215.175 697.743 214.679 700.096 213.8C698.499 210.666 697.233 207.436 695.325 204.645C693.535 202.025 690.837 203.264 688.608 204.318C685.345 205.863 684.38 204.448 684.396 201.415ZM514.933 180.675C507.596 180.604 501.762 184.169 496.604 189.3C516.572 196.695 536.129 203.939 556.046 211.315C555.805 204.701 553.845 198.962 549.398 194.389C539.999 184.72 528.124 180.803 514.933 180.675ZM809.37 188.03C814.13 187.992 819.014 188.152 822.115 192.321C823.372 194.011 824.236 197.01 823.611 198.848C822.685 201.573 819.891 200.117 817.95 199.374C812.203 197.175 806.667 197.281 801.484 200.763C798.944 202.468 795.848 202.787 794.573 200.484C793.557 198.647 794.027 194.943 795.31 193.083C798.594 188.318 804.059 188.013 809.37 188.03ZM788.691 166.283C795.237 164.517 800.759 161.849 808.745 162.182C812.103 162.322 814.475 162.774 817.263 163.409C821.23 164.315 823.356 167.321 822.603 170.907C821.842 174.526 818.615 175.353 815.885 174.773C805.234 172.507 795.993 176.254 786.757 180.628C785.611 181.17 783.443 181.35 782.768 180.677C781.722 179.633 781.105 177.712 781.093 176.159C781.055 171.016 783.821 167.598 788.691 166.283ZM810.31 99.748C794.104 100.134 777.836 100.586 761.737 102.34C742.577 104.43 723.818 109.161 705.688 115.699C690.918 121.027 676.558 127.495 662.051 133.542C660.06 134.371 658.184 135.437 658.696 138.375C660.601 149.284 662.346 160.223 664.161 171.215H664.163C718.84 149.759 774.263 135.077 833.347 138.027C830.87 127.922 828.471 117.843 825.877 107.815C825.441 106.129 824.528 103.759 823.229 103.253C819.074 101.629 814.607 99.6459 810.31 99.748ZM824.654 25.498C804.301 12.0315 781.999 11.5259 759.014 16.3467C743.08 19.6888 729.286 27.7999 715.435 35.793C711.523 38.0509 707.495 40.1406 703.751 42.6514C695.349 48.2857 686.258 47.4323 676.806 46.7119C654.404 45.0064 635.139 52.2326 620.038 69.1729C610.759 79.5832 606.72 92.0301 609.418 105.746C612.88 123.344 631.89 132.799 648.517 124.798C660.452 119.054 672.199 112.397 682.771 104.468C696.253 94.357 711.122 87.4097 726.407 80.9561C726.646 80.8556 727.006 81.0412 728.666 81.3252C720.915 88.2602 713.92 94.5203 706.925 100.778C708.204 101.192 709.028 101.107 709.8 100.861C724.95 96.0562 740.432 92.9117 756.236 91.2061C764.534 90.3108 772.908 89.5309 781.029 87.7197C792.077 85.2557 800.041 77.7457 807.208 69.4307C808.81 67.5728 810.069 65.4219 811.934 62.7676C812.566 72.5199 808.258 79.6857 804.022 86.4805C812.119 87.5939 819.948 88.6728 828.547 89.8555V89.8604C831.229 86.8214 834.696 83.6312 837.283 79.8408C849.222 62.3446 843.617 38.047 824.654 25.498Z" fill="black"/>
<path d="M739.392 8.19238C756.458 1.49989 774.171 -0.980057 792.272 0.342773C809.105 1.57395 824.733 6.87995 837.614 18.3311C850.705 29.9692 858.203 44.5342 857.27 62.252C856.54 76.0821 850.634 87.89 839.451 96.5791C837.084 98.418 836.494 100.098 837.348 103.208C840.844 115.956 844.083 128.785 846.994 141.679C847.791 145.206 849.529 149.495 845.14 152.534C849.017 162.046 849.243 172.247 849.884 182.325C850.227 187.712 851.592 191.757 856.272 195.212C861.855 199.333 866.984 204.282 871.507 209.56C876.144 214.973 877.564 221.692 875.995 228.878C873.886 238.542 866.353 242.031 858.078 244.275C854.917 245.133 854.069 246.744 854.144 249.445C854.396 258.678 850.902 266.486 845.357 273.633C844.596 274.615 844.46 276.385 844.609 277.727C845.922 289.507 844.822 300.826 837.816 310.809C829.808 322.221 818.417 328.249 804.878 330.558C791.578 332.826 778.704 330.718 765.374 326.373C770.008 338.903 773.14 351.244 771.945 365.012C781.519 362.343 790.329 359.518 799.317 357.488C807.955 355.537 816.734 353.995 825.534 353.036C834.26 352.084 842.341 354.886 849.586 359.741C851.981 361.346 853.587 360.919 855.157 358.894C866.174 344.672 881.538 337.393 898.132 332.226C908.307 329.059 918.677 327.832 929.375 329.635C935.327 330.637 938.76 334.688 941.957 338.884C949.268 348.48 952.841 359.618 954.335 371.502C955.698 382.35 955.931 393.145 952.685 403.73C948.466 417.49 940.738 424.091 926.3 424.82C916.347 425.322 906.324 424.43 896.333 424.169C895.244 424.141 894.154 424.165 892.691 424.165C907.117 449.992 921.375 475.52 935.37 500.573C944.123 498.714 952.459 496.718 960.882 495.208C972.871 493.057 984.94 493.241 997.058 494.386C1017.15 496.284 1035.3 503.364 1051.94 514.502C1055.23 516.703 1058.28 519.366 1061.07 522.175C1066.89 528.014 1065.53 537.36 1058.02 540.744C1053.77 542.661 1048.89 543.366 1044.21 544.074C1040.89 544.576 1037.43 544.172 1033.46 544.172C1039.37 548.274 1044.96 551.661 1049.99 555.747C1067.02 569.581 1077.88 587.351 1081.75 608.956C1088.59 647.148 1076.28 679.296 1049.46 706.333C1034.05 721.876 1015.63 732.215 993.921 736.472C945.82 745.903 899.176 717.82 888.175 669.301C886.255 660.833 886.39 651.898 885.609 643.175C885.504 641.987 885.595 640.781 885.595 639.829C879.349 641.753 873.367 644.665 867.181 645.202C860.764 645.76 857.179 649.158 853.013 653.159C836.142 669.363 815.885 679.679 792.879 683.007C774.422 685.677 755.647 686.394 736.98 687.312C716.873 688.3 696.726 688.479 676.6 689.141C675.369 689.181 673.706 690.032 673.034 691.034C663.171 705.744 649.775 713.797 631.768 714.019C617.846 714.19 603.925 714.808 590.016 715.437C588.632 715.499 586.697 716.696 586.057 717.911C575.08 738.753 561.86 754.646 538.023 766.847C505.273 783.61 475.85 786.859 443.841 769.091C426.404 759.412 415.899 748.378 407.703 733.009C399.457 717.544 396.319 701.126 398.631 683.218C394.955 683.218 391.306 683.325 387.666 683.193C381.774 682.98 375.682 683.469 370.044 682.118C360.752 679.891 356.525 671.769 359.692 662.678C362.641 654.212 366.561 646.082 370.052 637.807C367.57 636.039 364.639 634.274 362.099 632.062C358.726 629.125 357.962 625.289 359.881 621.218C364.721 610.948 369.685 600.736 374.593 590.499C376.795 585.904 380.521 583.995 385.519 583.895C391.581 583.773 398.327 584.956 403.497 582.676C408.411 580.508 411.649 574.577 415.673 570.347C429.602 555.697 445.078 543.084 463.401 534.239C463.993 533.954 464.551 533.595 464.733 533.492C458.036 533.492 451.032 533.584 444.033 533.463C438.685 533.369 435.542 531.064 434.245 525.884C433.527 523.013 433.322 519.875 433.59 516.923C434.322 508.878 436.866 501.451 442.179 495.149C445.576 491.122 450.11 489.205 455.121 488.798C464.863 488.007 474.638 487.627 484.399 487.054C490.285 486.709 496.169 486.323 502.522 485.925C495.014 468.791 493.636 451.229 497.936 432.538C485.69 427.51 473.485 422.412 461.215 417.477C431.565 405.551 401.879 393.708 372.215 381.815C364.989 378.918 358.344 375.077 357.119 366.602C356.582 362.882 357.122 358.567 358.54 355.076C369.389 328.363 380.556 301.777 391.664 275.169C397.815 260.436 404.047 245.736 410.295 230.895C407.125 227.961 406.794 224.638 408.456 220.576C413.112 209.205 417.346 197.662 421.988 186.285C425.813 176.914 437.147 171.163 447.147 173.575C456.423 175.812 465.575 178.571 474.83 180.903C476.13 181.231 478.25 180.962 479.083 180.097C494.286 164.296 512.503 163.004 532.243 168.778C546.259 172.879 558.575 179.456 567.023 192.01C572.526 200.188 574.786 209.112 574.216 219.122C586.02 223.432 597.773 227.712 609.517 232.017C612.334 233.049 615.075 234.305 617.931 235.212C624.497 237.298 629.718 240.935 632.398 247.071C642.829 244.251 653.039 241.489 663.354 238.697C653.888 221.754 650.219 203.842 657.957 184.964C652.996 180.396 652.924 174.047 651.38 168.411C649.113 160.129 647.535 151.658 645.538 142.706C640.329 142.138 634.902 141.741 629.539 140.924C612.926 138.39 598.012 122.977 595.771 106.46C592.267 80.6365 603.422 61.498 623.877 47.4893C643.342 34.1594 665.254 30.066 688.62 33.9014C690.282 34.1749 692.411 33.5082 693.907 32.5957C708.624 23.6278 723.234 14.5283 739.392 8.19238ZM463.202 683.309C453.947 683.309 444.752 683.242 435.564 683.441C434.865 683.457 433.679 685.32 433.609 686.382C432.285 706.713 439.283 723.352 456.354 734.941C476.218 748.425 505.111 747.35 526.858 732.708C534.256 727.726 540.495 721.532 546.306 713.911C543.982 713.911 542.483 713.892 540.983 713.914C522.66 714.189 504.335 714.468 486.013 714.754C478.783 714.866 473.01 711.796 468.447 706.425C462.603 699.547 461.275 691.548 463.204 683.31L463.202 683.309ZM289.454 717.222H174.163V702.504H289.454V717.222ZM998.615 568.352C989.064 567.356 979.422 567.966 970.098 571.742C973.876 579.281 977.573 586.661 981.15 593.801C983.368 593.491 984.99 593.122 986.621 593.057C1009.21 592.143 1024.95 611.232 1025.42 630.584C1025.88 648.802 1017.5 662.894 1002.69 672.889C984.281 685.309 960.551 680.997 948.918 663.322C941.38 651.868 940.866 639.493 945.715 626.766C946.186 625.528 946.568 623.688 945.997 622.71C942.274 616.333 938.276 610.116 934.071 603.37L934.07 603.368C933.38 604.265 933.105 604.58 932.877 604.925C921.468 622.12 916.112 640.778 921.367 661.155C929.397 692.291 955.369 706.408 983.286 703.717C1001.09 702.001 1016.15 693.609 1028.57 680.77C1047.83 660.868 1054.5 637.341 1047.69 610.442C1041.99 587.909 1022.01 570.791 998.615 568.352ZM475.851 694.685C479.447 701.292 485.083 703.224 491.5 703.087C510.641 702.682 529.781 702.152 548.91 701.385C552.365 701.246 555.987 700.228 559.125 698.749C561.857 697.461 564.016 694.948 566.426 692.976L565.702 692.131C536.005 692.974 506.308 693.819 475.851 694.685ZM289.457 679.2H82.1777V664.482H289.457V679.2ZM866.092 416.847C859.028 424.181 856.118 431.621 858.416 441.239C863.204 461.281 867.702 481.403 871.756 501.604C874.125 513.404 873.661 525.405 871.895 537.346C869.55 553.209 863.687 567.908 857.245 582.41C848.856 601.304 839.593 619.619 823.803 633.758C809.832 646.267 793.679 654.354 775.161 656.565C760.564 658.309 745.775 658.482 731.065 659.238C722.531 659.678 713.985 659.9 705.443 660.212C683.263 661.021 661.082 661.881 638.898 662.593C633.642 662.761 631.094 660.452 631.508 655.078C632.136 646.931 633.366 638.807 634.769 630.75C635.338 627.476 636.125 624.755 633.391 621.908C631.893 620.35 631.191 617.827 630.616 615.614C627.189 602.444 628.821 589.662 634.936 577.695C641.739 564.381 644.097 549.861 648.104 534.941C642.08 534.941 636.557 535.297 631.096 534.873C616.58 533.746 602.111 531.903 587.581 531.063C573.827 530.267 559.977 529.573 546.251 530.322C532.49 531.074 518.454 532.242 505.19 535.714C459.679 547.626 424.086 574.084 399.038 613.748C389.09 629.5 381.8 646.933 373.325 663.613C372.414 665.405 370.877 667.754 373.735 668.796C376.144 669.674 379.134 670.317 380.521 666.521C382.023 662.415 383.808 658.406 385.612 654.42C400.544 621.423 421.874 593.575 452.515 573.744C486.707 551.616 523.883 541.969 564.489 550.072C583.088 553.783 598.434 563.264 608.919 579.425C616.635 591.319 619.655 604.66 620.057 618.792C620.604 638.047 616.109 655.696 604.775 671.439C604.266 672.148 604.015 673.043 603.461 674.25C611.52 674.25 619.106 674.409 626.684 674.224C670.382 673.148 714.087 672.228 757.771 670.72C770.745 670.271 783.908 669.22 796.556 666.474C824.244 660.461 846.762 646.274 859.039 619.702C866.762 602.987 872.972 585.569 879.762 568.428C886.253 552.04 893.694 536.206 905.368 522.732C909.666 517.773 913.949 512.798 918.378 507.666C901.553 478.444 883.943 447.854 866.092 416.847ZM546.081 560.817C521.326 559.082 497.904 564.627 475.701 575.349C450.387 587.574 430.295 605.916 414.268 628.866C405.707 641.128 398.752 654.212 393.765 668.252V668.254C394.071 668.493 394.175 668.645 394.277 668.644C419.072 668.27 443.871 668.013 468.66 667.452C483.81 667.109 498.954 666.359 514.095 665.686C536.242 664.702 558.379 663.483 580.531 662.644C591.092 662.244 598.259 657.512 601.608 647.547C605.882 634.826 606.866 621.751 604.75 608.56C603.107 598.312 599.527 588.802 592.381 580.869C579.976 567.096 563.757 562.057 546.081 560.817ZM1012.98 623.939C1009.75 612.057 997.952 603.052 986.42 604.151L986.424 604.152C988.62 608.684 990.631 612.83 992.635 616.979C994.721 621.299 996.889 625.583 998.865 629.955C1003.44 640.085 998.822 651.609 988.529 655.935C979.021 659.931 969.989 657.017 963.437 647.822C960.654 643.917 957.898 639.992 954.806 635.616C951.175 652.525 962.297 671.683 985.016 668.179C1004.48 665.178 1018.16 642.963 1012.98 623.939ZM844.199 425.388C839.924 426.318 835.952 427.919 832.033 427.798C828.984 427.703 826.656 428.117 823.978 429.483C817.687 432.69 811.209 433.003 804.649 429.701C803.042 428.893 800.753 428.713 798.975 429.114C793.839 430.274 788.622 430.697 784.196 427.829C780.811 425.637 777.755 424.984 774.489 425.983C772.593 430.624 770.955 435.095 768.953 439.396C767.09 443.403 763.566 445.813 759.332 446.341C750.345 447.459 741.283 448.881 732.286 448.677C726.16 448.537 724.172 451.887 721.596 455.873C732.463 460.99 741.767 467.503 748.317 477.534C759.909 495.28 760.771 514.527 754.931 533.957C747.358 559.147 738.417 583.924 730.359 608.974C728.896 613.522 726.605 615.322 722.096 614.563C717.727 613.829 715.874 615.746 716.024 620.099C718.031 620.48 719.928 620.744 721.775 621.206C731.554 623.649 741.419 625.821 751.059 628.731C757.688 630.733 761.408 635.694 761.546 643.832C765.857 643.451 769.801 643.209 773.717 642.738C794.011 640.293 810.542 631.013 823.444 615.198C836.106 599.68 843.683 581.501 850.925 563.108C860.116 539.76 862.201 516.068 856.811 491.382C852.017 469.43 844.218 448.025 844.199 425.388ZM943.562 584.714L943.56 584.716C951.984 600.719 960.16 616.342 968.444 631.907C970.044 634.915 971.837 637.881 973.958 640.534C976.031 643.126 978.742 644.929 982.124 642.321C985.367 639.821 984.984 637.041 983.104 633.737C976.541 622.21 970.174 610.57 963.743 598.968C959.871 591.984 956.02 584.989 952.046 577.792C948.976 580.298 946.33 582.456 943.562 584.714ZM289.455 641.178H0V626.46H289.455V641.178ZM1047.33 528.076C1018.85 508.383 987.591 503.25 954.108 510.773C929.023 516.41 911.437 531.725 901.444 554.999C890.961 579.413 881.713 604.357 871.619 629.838C880.601 625.924 887.994 620.877 893.838 613.748C899.322 607.059 904.463 600.082 910.046 593.478C927.27 573.105 947.514 556.478 971.549 544.66C983.622 538.724 996.15 533.976 1009.6 532.692C1021.1 531.596 1032.68 531.376 1044.21 530.744C1045.79 530.658 1047.36 530.427 1048.87 530.27C1048.87 529.612 1048.92 529.428 1048.86 529.371C1048.36 528.923 1047.88 528.454 1047.33 528.076ZM391.959 599.178C388.023 597.666 385.524 598.492 383.87 602.508C381.337 608.656 378.328 614.606 375.607 620.681C375.142 621.719 375.105 622.949 374.871 624.092C375.261 624.17 375.649 624.248 376.038 624.326C381.328 615.971 386.617 607.616 391.959 599.178ZM510.63 428.738C510.05 437.393 508.795 446.389 509.013 455.349C509.293 466.756 513.298 477.186 521.663 485.264C530.867 494.15 542.148 499.851 553.972 504.408C572.867 511.691 592.587 515.252 612.701 516.871C631.07 518.35 649.479 521 666.748 515.042C661.856 542.152 656.92 569.515 651.901 597.328L651.903 597.325C654.203 597.64 655.01 597.832 655.82 597.85C675.394 598.241 694.967 598.67 714.543 598.855C715.745 598.867 717.653 597.173 718.077 595.89C725.667 572.986 733.499 550.145 740.361 527.021C744.285 513.799 743.77 500.275 736.132 488.124C729.134 476.992 718.412 470.334 706.466 465.532C690.911 459.28 674.62 456.955 657.955 456.214C641.522 455.483 625.25 456.571 609.12 459.513C598.301 461.485 587.594 464.084 575.506 466.688C580.803 462.396 585.247 458.796 589.183 455.606C575.986 452.079 562.46 449.213 549.47 444.782C536.514 440.363 524.095 434.376 510.63 428.738ZM497.287 502.94C485.029 502.965 472.755 503.001 460.523 503.687C453.348 504.089 448.9 510.481 449.591 518.052V518.05C471.878 517.51 493.891 516.976 515.989 516.441C511.716 512.63 507.659 508.742 503.287 505.253C501.672 503.963 499.308 502.935 497.287 502.94ZM663.825 255.924C662.786 254.828 660.431 254.047 658.999 254.398C643.792 258.139 629.432 263.998 616.083 272.258C593.063 286.502 574.119 305.124 557.932 326.643C539.532 351.105 525.071 377.63 516.14 407.057C515.186 410.198 516.128 411.49 518.462 413.021C547.297 431.923 579.409 440.406 613.402 442.202C628.81 443.016 644.298 442.291 659.749 442.401C664.331 442.434 668.909 442.936 673.491 443.222C673.166 442.377 672.731 442.086 672.255 441.93C659.865 437.847 649.283 430.842 640.047 421.764C622.374 404.396 608.324 384.691 601.231 360.604C598.696 351.995 598.137 341.09 599.863 335.73C609.588 359.531 622.974 380.939 639.791 400.207C651.278 413.367 664.281 424.543 681.771 428.572C690.817 430.657 700.151 431.93 709.42 432.498C721.366 433.23 733.381 432.896 745.365 432.986C745.703 432.988 746.043 432.598 746.444 432.353C744.392 412.191 745.088 392.418 754.832 373.554C729.483 372.264 704.704 366.033 678.83 372.66C684.865 364.827 692.181 360.402 700.309 356.481C690.392 333.241 681.432 309.615 665.487 289.01C666.674 289.467 667.55 289.727 668.357 290.128C677.339 294.599 684.691 301.263 689.729 309.65C697.091 321.91 703.608 334.717 709.786 347.626C712.216 352.705 714.721 355.763 720.588 354.674C720.837 354.627 721.08 354.548 721.727 354.38C721.366 342.269 728.399 335.103 739.473 330.582C735.925 328.277 732.911 326.464 730.049 324.437C712.293 311.865 698.969 294.886 684.731 278.807C677.883 271.072 670.932 263.422 663.825 255.924ZM849.456 376.711C839.238 365.265 826.588 362.935 812.377 366.497C799.43 369.744 786.544 373.241 773.654 376.711C771.753 377.222 769.326 377.673 768.245 379.032C760.311 388.999 758.299 400.642 759.118 413.156C761.968 413.156 764.568 413.279 767.147 413.121C769.856 412.957 772.548 412.522 775.215 412.209C775.371 397.352 787.404 392.29 798.097 393.564C803.158 394.167 807.435 396.588 810.682 400.644C815.173 406.257 814.919 412.475 812.412 419.639C814.49 419.424 815.995 419.599 817.214 419.088C822.829 416.731 825.8 412.257 825.913 406.295C826.109 395.964 820.919 387.997 813.853 380.939C819.028 380.939 823.248 382.87 826.8 386.44C834.472 394.153 836.621 403.431 834.152 414.156C840.838 410.837 843.383 404.612 840.829 395.852C838.933 389.353 835.754 383.228 833.234 377.148C842.943 378.151 848.413 386.913 850.989 406.342C856.906 399.557 855.937 383.97 849.456 376.711ZM422.391 234.836C420.806 238.521 419.428 241.622 418.131 244.758C402.64 282.238 387.156 319.724 371.686 357.213C368.801 364.203 369.031 365.233 376.051 368.423C383.258 371.696 390.662 374.544 398.04 377.426C427.533 388.946 457.048 400.409 487.39 412.217C507.977 368.354 528.453 324.726 549.215 280.488L549.217 280.486C506.443 265.091 464.531 250.005 422.391 234.836ZM912.606 342.671C893.24 346.887 875.467 353.309 862.374 369.758C873.865 373.775 878.215 382.352 879.93 392.804C880.551 396.592 880.839 400.437 881.524 404.212C881.694 405.142 882.677 406.376 883.548 406.657C894.595 410.219 905.956 411.72 917.938 411.713C909.266 388.938 906.678 366.376 912.606 342.671ZM927.834 343.489C924.116 346.878 921.98 350.631 922.053 355.245C922.196 364.41 921.814 373.684 923.114 382.7C924.122 389.682 927.088 396.452 929.779 403.072C930.559 404.991 933.398 406.07 935.294 407.535C936.681 405.598 938.627 403.85 939.361 401.69C943.553 389.356 942.518 376.892 939.518 364.503C937.601 356.589 934.518 349.242 927.834 343.489ZM754.321 336.101C748.283 339.091 743.035 341.632 737.842 344.281C732.753 346.877 731.779 349.128 732.98 355.771C735.358 354.165 737.436 352.465 739.769 351.258C743.121 349.524 745.257 350.832 745.667 354.51C745.754 355.285 745.928 356.051 746.051 356.757C748.996 357.145 751.674 357.497 754.323 357.847V336.101H754.321ZM561.568 286.338C557.958 295.243 554.462 303.872 550.964 312.499C551.109 312.535 551.257 312.572 551.402 312.608C557.712 305.095 564.021 297.583 570.533 289.827C567.278 288.56 564.536 287.493 561.566 286.336L561.568 286.338ZM825.079 150.861C809.514 150.704 793.934 150.512 778.561 153.385C764.888 155.939 751.276 158.83 737.682 161.777C736.575 162.019 735.029 163.806 735.003 164.903C734.759 175.379 734.785 185.864 734.763 196.346C734.742 205.681 734.759 215.016 734.759 224.556C725.898 223.549 720.021 219.551 716.757 211.329C713.803 203.889 710.576 196.44 706.434 189.625C703.202 184.307 697.451 181.104 691.019 181.777C681.723 182.751 675.091 190.999 674.385 200.424C673.491 212.33 678.12 222.14 685.426 230.921C692.517 239.442 701.189 243.033 712.051 238.173C712.529 237.96 713.097 237.95 713.764 237.816C714.401 240.279 714.96 242.646 715.625 244.983C727.237 285.79 769.854 306.11 807.442 298.975C817.06 297.149 823.945 291.028 828.45 282.435C828.097 282.049 828.014 281.879 827.933 281.879C826.833 281.896 825.735 281.955 824.636 281.971C814.587 282.125 806.057 278.239 800.578 270.114C797.614 265.718 794.507 263.443 789.651 262.797C789.106 262.724 788.541 262.709 788.017 262.561C775.106 258.895 765.869 251.394 762.624 237.85C761.634 233.713 761.525 229.56 765.518 226.661C767.589 225.158 769.194 224.396 770.936 227.729C773.968 233.532 779.048 236.649 785.845 237.07C795.737 237.683 804.398 234.108 812.659 229.437C815.033 228.095 817.084 225.548 818.388 223.08C820.659 218.784 822.736 217.044 827.091 217.382C822.954 225.196 824.321 228.595 832.775 231.423C840.098 233.873 847.573 234.297 855.093 232.644C866.047 230.235 868.722 222.396 861.151 214.039C857.775 210.311 853.508 207.343 849.449 204.29C844.225 200.361 840.966 195.237 840.152 188.865C839.039 180.147 838.876 171.291 837.451 162.635C835.51 150.846 837.366 150.986 825.079 150.861ZM706.702 250.556C698.247 253.73 689.905 253.44 681.268 250.973C692.476 263.88 703.434 276.497 714.392 289.115C709.948 276.533 705.248 264.308 706.702 250.556ZM665.487 289.01C665.485 289.009 665.483 289.009 665.48 289.008L665.484 289.006C665.485 289.007 665.486 289.009 665.487 289.01ZM567.873 271.841C572.87 273.882 577.638 275.83 582.072 277.64C593.634 269.756 604.837 262.117 616.499 254.164C609.232 242.519 595.465 242.377 584.443 236.634C578.793 248.641 573.393 260.111 567.873 271.841ZM840.76 256.892C831.141 263.38 820.509 265.053 808.73 265.263C824.048 277.332 835.937 274.63 840.76 256.892ZM446.735 187.222C440.912 185.308 436.966 187.369 434.406 192.966C430.94 200.543 427.639 208.195 424.274 215.819C423.582 217.39 422.919 218.973 422.245 220.543C466.501 235.973 510.337 251.259 554.512 266.661C559.937 255.11 565.379 243.522 570.993 231.568V231.566C569.852 231.073 568.996 230.666 568.115 230.33C550.399 223.572 532.8 216.479 514.929 210.159C492.321 202.163 469.52 194.704 446.735 187.222ZM684.396 201.415C684.423 196.063 689.503 193.18 695.642 195.169C700.478 196.736 704.285 199.96 705.755 204.688C707.885 211.541 709.105 218.676 710.842 226.246H710.84C703.602 225.976 697.28 221.548 695.093 215.67C696.419 215.175 697.743 214.679 700.096 213.8C698.499 210.666 697.233 207.436 695.325 204.645C693.535 202.025 690.837 203.264 688.608 204.318C685.345 205.863 684.38 204.448 684.396 201.415ZM514.933 180.675C507.596 180.604 501.762 184.169 496.604 189.3C516.572 196.695 536.129 203.939 556.046 211.315C555.805 204.701 553.845 198.962 549.398 194.389C539.999 184.72 528.124 180.803 514.933 180.675ZM809.37 188.03C814.13 187.992 819.014 188.152 822.115 192.321C823.372 194.011 824.236 197.01 823.611 198.848C822.685 201.573 819.891 200.117 817.95 199.374C812.203 197.175 806.667 197.281 801.484 200.763C798.944 202.468 795.848 202.787 794.573 200.484C793.557 198.647 794.027 194.943 795.31 193.083C798.594 188.318 804.059 188.013 809.37 188.03ZM788.691 166.283C795.237 164.517 800.759 161.849 808.745 162.182C812.103 162.322 814.475 162.774 817.263 163.409C821.23 164.315 823.356 167.321 822.603 170.907C821.842 174.526 818.615 175.353 815.885 174.773C805.234 172.507 795.993 176.254 786.757 180.628C785.611 181.17 783.443 181.35 782.768 180.677C781.722 179.633 781.105 177.712 781.093 176.159C781.055 171.016 783.821 167.598 788.691 166.283ZM810.31 99.748C794.104 100.134 777.836 100.586 761.737 102.34C742.577 104.43 723.818 109.161 705.688 115.699C690.918 121.027 676.558 127.495 662.051 133.542C660.06 134.371 658.184 135.437 658.696 138.375C660.601 149.284 662.346 160.223 664.161 171.215H664.163C718.84 149.759 774.263 135.077 833.347 138.027C830.87 127.922 828.471 117.843 825.877 107.815C825.441 106.129 824.528 103.759 823.229 103.253C819.074 101.629 814.607 99.6459 810.31 99.748ZM824.654 25.498C804.301 12.0315 781.999 11.5259 759.014 16.3467C743.08 19.6888 729.286 27.7999 715.435 35.793C711.523 38.0509 707.495 40.1406 703.751 42.6514C695.349 48.2857 686.258 47.4323 676.806 46.7119C654.404 45.0064 635.139 52.2326 620.038 69.1729C610.759 79.5832 606.72 92.0301 609.418 105.746C612.88 123.344 631.89 132.799 648.517 124.798C660.452 119.054 672.199 112.397 682.771 104.468C696.253 94.357 711.122 87.4097 726.407 80.9561C726.646 80.8556 727.006 81.0412 728.666 81.3252C720.915 88.2602 713.92 94.5203 706.925 100.778C708.204 101.192 709.028 101.107 709.8 100.861C724.95 96.0562 740.432 92.9117 756.236 91.2061C764.534 90.3108 772.908 89.5309 781.029 87.7197C792.077 85.2557 800.041 77.7457 807.208 69.4307C808.81 67.5728 810.069 65.4219 811.934 62.7676C812.566 72.5199 808.258 79.6857 804.022 86.4805C812.119 87.5939 819.948 88.6728 828.547 89.8555V89.8604C831.229 86.8214 834.696 83.6312 837.283 79.8408C849.222 62.3446 843.617 38.047 824.654 25.498Z" fill="url(#paint0_linear_689_385)"/>
<defs>
<linearGradient id="paint0_linear_689_385" x1="-7.20905e-06" y1="1073.85" x2="1192.31" y2="985.505" gradientUnits="userSpaceOnUse">
<stop stop-color="#A72901"/>
<stop offset="0.716346" stop-color="#F96700"/>
<stop offset="1" stop-color="#FFDF0E"/>
</linearGradient>
</defs>
</svg>
