<svg width="46" height="40" viewBox="0 0 46 40" fill="none" xmlns="http://www.w3.org/2000/svg">
<path id="Heart" d="M33.5374 0C31.38 0.0332099 29.2697 0.629224 27.4195 1.72785C25.5693 2.82648 24.0449 4.38882 23 6.2571C21.9551 4.38882 20.4307 2.82648 18.5805 1.72785C16.7303 0.629224 14.62 0.0332099 12.4626 0C9.02344 0.147878 5.78322 1.63681 3.4498 4.14151C1.11639 6.6462 -0.120528 9.96306 0.00927504 13.3674C0.00927504 21.989 9.17874 31.405 16.8691 37.7891C18.5862 39.2171 20.7572 40 23 40C25.2428 40 27.4138 39.2171 29.1309 37.7891C36.8213 31.405 45.9907 21.989 45.9907 13.3674C46.1205 9.96306 44.8836 6.6462 42.5502 4.14151C40.2168 1.63681 36.9766 0.147878 33.5374 0ZM26.6689 34.8881C25.642 35.7439 24.3426 36.2133 23 36.2133C21.6574 36.2133 20.358 35.7439 19.3311 34.8881C9.4872 26.714 3.84106 18.8718 3.84106 13.3674C3.71009 10.9684 4.54298 8.61533 6.15807 6.82157C7.77317 5.02781 10.0394 3.93885 12.4626 3.79218C14.8857 3.93885 17.152 5.02781 18.7671 6.82157C20.3822 8.61533 21.2151 10.9684 21.0841 13.3674C21.0841 13.8703 21.286 14.3526 21.6453 14.7082C22.0046 15.0638 22.4919 15.2635 23 15.2635C23.5081 15.2635 23.9954 15.0638 24.3547 14.7082C24.714 14.3526 24.9159 13.8703 24.9159 13.3674C24.7849 10.9684 25.6178 8.61533 27.2329 6.82157C28.848 5.02781 31.1143 3.93885 33.5374 3.79218C35.9606 3.93885 38.2268 5.02781 39.8419 6.82157C41.457 8.61533 42.2899 10.9684 42.1589 13.3674C42.1589 18.8718 36.5128 26.714 26.6689 34.8805V34.8881Z" fill="#A72901"/>
</svg>
