<svg width="40" height="40" viewBox="0 0 40 40" fill="none" xmlns="http://www.w3.org/2000/svg">
<path id="Support" d="M36.666 23.4484L39.9993 20.1155V36.4182C40.0409 38.3463 38.3359 40.0361 36.4193 39.9994C35.726 39.9994 35.0343 39.7978 34.436 39.3995L27.8295 34.9934H18.3347C13.7397 34.9934 10.0015 31.2556 10.0015 26.6613C10.0015 25.7397 10.7481 24.9948 11.6681 24.9948C12.5881 24.9948 13.3348 25.7397 13.3348 26.6613C13.3348 29.4176 15.578 31.6606 18.3347 31.6606H28.3345C28.6628 31.6606 28.9861 31.7589 29.2595 31.9405L36.2843 36.6249C36.316 36.6449 36.4043 36.7099 36.5377 36.6366C36.6676 36.5666 36.6676 36.4549 36.6676 36.4182V23.4467L36.666 23.4484ZM25.7879 9.9986H26.5478L29.1061 7.44063C29.4011 7.14567 29.7294 6.90737 30.0544 6.66574H25.7862C24.8795 6.66574 24.1395 7.39563 24.1345 8.30051V8.34383C24.1295 9.25704 24.8729 9.99694 25.7862 9.99694L25.7879 9.9986ZM10.8331 21.6636H4.16659C1.86497 21.6636 0 19.7989 0 17.4976V10.8318C0 4.84932 4.84991 0 10.8331 0C16.8164 0 21.6663 4.84932 21.6663 10.8318C21.6663 16.8143 16.8164 21.6636 10.8331 21.6636ZM9.1665 8.33217C9.1665 7.83891 9.38316 7.3723 9.76315 7.05401C10.1465 6.73073 10.6415 6.60241 11.1498 6.6924C11.8014 6.80738 12.3581 7.36231 12.4731 8.01388C12.6281 8.90042 12.1198 9.527 11.6364 9.79197C10.5198 10.4069 9.70315 11.2651 9.61482 11.3601C8.98983 12.0317 9.0265 13.0798 9.69482 13.7081C10.0148 14.0097 10.4248 14.1597 10.8348 14.1597C11.2781 14.1597 11.7214 13.9847 12.0498 13.6381C12.0548 13.6331 12.5864 13.0748 13.2464 12.7116C15.1197 11.6784 16.128 9.55866 15.7564 7.43729C15.4014 5.41924 13.7431 3.76281 11.7264 3.40952C10.2498 3.14956 8.75317 3.54784 7.61986 4.50104C6.48488 5.45424 5.83489 6.84904 5.83489 8.3305C5.83489 9.25037 6.58154 9.99694 7.50153 9.99694C8.42151 9.99694 9.16816 9.25037 9.16816 8.3305L9.1665 8.33217ZM10.8331 18.3308C11.7531 18.3308 12.4998 17.5842 12.4998 16.6643C12.4998 15.7445 11.7531 14.9979 10.8331 14.9979C9.91315 14.9979 9.1665 15.7445 9.1665 16.6643C9.1665 17.5842 9.91315 18.3308 10.8331 18.3308ZM19.9996 24.02C19.9996 22.2402 20.6929 20.5655 21.9529 19.3073L31.4644 9.79697C33.4144 7.84724 36.5843 7.84724 38.5343 9.79697C40.4742 11.6584 40.4742 15.0062 38.5343 16.8676L29.0228 26.378C27.7628 27.6378 26.0895 28.331 24.3095 28.331H21.6663C20.7463 28.331 19.9996 27.5861 19.9996 26.6646V24.0216V24.02ZM23.3329 24.9965H24.3095C25.1995 24.9965 26.0362 24.6499 26.6662 24.02L36.1777 14.5096C36.8243 13.8897 36.8243 12.7732 36.1777 12.1533C35.526 11.5017 34.4727 11.5034 33.821 12.1533L24.3095 21.6636C23.6796 22.2936 23.3329 23.1301 23.3329 24.02V24.9965Z" fill="#A72901"/>
</svg>
