<svg width="40" height="40" viewBox="0 0 40 40" fill="none" xmlns="http://www.w3.org/2000/svg">
<path id="Grid" d="M11.666 21.666C13.4341 21.666 15.1306 22.3679 16.3809 23.6182C17.6311 24.8684 18.333 26.5649 18.333 28.333V33.333C18.3329 35.1009 17.6309 36.7967 16.3809 38.0469C15.1306 39.2971 13.4341 39.999 11.666 39.999H6.66699C4.89892 39.999 3.20237 39.2971 1.95215 38.0469C0.702096 36.7967 8.60506e-05 35.1009 0 33.333V28.333C0 26.5649 0.701929 24.8684 1.95215 23.6182C3.20237 22.3679 4.89892 21.666 6.66699 21.666H11.666ZM33.3301 21.666C35.0982 21.666 36.7947 22.3679 38.0449 23.6182C39.2951 24.8684 39.9971 26.5649 39.9971 28.333V33.333C39.997 35.1009 39.295 36.7967 38.0449 38.0469C36.7947 39.2971 35.0982 39.999 33.3301 39.999H28.3311C26.563 39.999 24.8664 39.2971 23.6162 38.0469C22.3662 36.7967 21.6641 35.1009 21.6641 33.333V28.333C21.6641 26.5649 22.366 24.8684 23.6162 23.6182C24.8664 22.3679 26.563 21.666 28.3311 21.666H33.3301ZM6.66699 24.999C5.78297 24.999 4.93468 25.3505 4.30957 25.9756C3.68446 26.6007 3.33301 27.449 3.33301 28.333V33.333C3.33309 34.2169 3.68461 35.0644 4.30957 35.6895C4.93468 36.3146 5.78295 36.666 6.66699 36.666H11.666C12.5501 36.666 13.3983 36.3146 14.0234 35.6895C14.6484 35.0644 14.9999 34.2169 15 33.333V28.333C15 27.449 14.6485 26.6007 14.0234 25.9756C13.3983 25.3505 12.55 24.999 11.666 24.999H6.66699ZM28.3311 24.999C27.447 24.999 26.5987 25.3505 25.9736 25.9756C25.3485 26.6007 24.9971 27.449 24.9971 28.333V33.333C24.9972 34.2169 25.3487 35.0644 25.9736 35.6895C26.5987 36.3146 27.447 36.666 28.3311 36.666H33.3301C34.2141 36.666 35.0624 36.3146 35.6875 35.6895C36.3125 35.0644 36.664 34.2169 36.6641 33.333V28.333C36.6641 27.449 36.3126 26.6007 35.6875 25.9756C35.0624 25.3505 34.2141 24.999 33.3301 24.999H28.3311ZM11.666 0C13.4341 0 15.1306 0.701912 16.3809 1.95215C17.6311 3.20239 18.333 4.89888 18.333 6.66699V11.667C18.3329 13.4349 17.6309 15.1307 16.3809 16.3809C15.1306 17.6311 13.4341 18.333 11.666 18.333H6.66699C4.89892 18.333 3.20237 17.6311 1.95215 16.3809C0.702097 15.1307 8.60505e-05 13.4349 0 11.667V6.66699C0 4.89888 0.701929 3.20239 1.95215 1.95215C3.20237 0.701917 4.89892 0 6.66699 0H11.666ZM29.9971 1.66602C30.4391 1.66602 30.8632 1.84174 31.1758 2.1543C31.4883 2.46685 31.6641 2.89102 31.6641 3.33301V8.33301H36.6641C37.106 8.33308 37.5293 8.5088 37.8418 8.82129C38.1543 9.13377 38.33 9.55711 38.3301 9.99902C38.3301 10.4411 38.1544 10.8652 37.8418 11.1777C37.5293 11.4901 37.1059 11.6659 36.6641 11.666H31.6641V16.666C31.6641 17.108 31.4883 17.5322 31.1758 17.8447C30.8632 18.1572 30.4391 18.333 29.9971 18.333C29.5551 18.333 29.1309 18.1572 28.8184 17.8447C28.5059 17.5322 28.3311 17.108 28.3311 16.666V11.666H23.3311C22.889 11.666 22.4649 11.4903 22.1523 11.1777C21.8398 10.8652 21.6641 10.4411 21.6641 9.99902C21.6641 9.55719 21.84 9.13376 22.1523 8.82129C22.4649 8.50873 22.889 8.33301 23.3311 8.33301H28.3311V3.33301C28.3311 2.8911 28.506 2.46683 28.8184 2.1543C29.1309 1.84178 29.5551 1.66606 29.9971 1.66602ZM6.66699 3.33301C5.78297 3.33301 4.93468 3.68447 4.30957 4.30957C3.68446 4.93469 3.33301 5.78294 3.33301 6.66699V11.667C3.33309 12.5509 3.68461 13.3984 4.30957 14.0234C4.93468 14.6486 5.78295 15 6.66699 15H11.666C12.5501 15 13.3983 14.6486 14.0234 14.0234C14.6484 13.3984 14.9999 12.5509 15 11.667V6.66699C15 5.78294 14.6485 4.93469 14.0234 4.30957C13.3983 3.68447 12.55 3.33301 11.666 3.33301H6.66699Z" fill="#A72901"/>
</svg>
