<svg width="181" height="30" viewBox="0 0 181 30" fill="none" xmlns="http://www.w3.org/2000/svg">
<path id="Union" d="M114.342 0.281839C115.303 0.168832 116.277 0.155015 117.266 0.239759C117.464 0.239759 117.62 0.323792 117.733 0.493219C118.524 1.76465 119.4 3.9547 120.361 7.06262C121.349 10.1423 122.353 12.5298 123.37 14.2251C124.217 15.666 124.895 17.39 125.403 19.396C125.912 21.3738 126.379 23.2667 126.803 25.0749C127.255 26.8549 127.806 28.254 128.456 29.2712C128.568 29.4123 128.582 29.5537 128.498 29.6949C128.469 29.7514 128.102 29.7514 127.396 29.6949C126.689 29.6384 125.87 29.5821 124.937 29.5256C124.005 29.4691 123.044 29.5254 122.055 29.6949C121.716 29.7796 121.49 29.6523 121.377 29.3132C121.038 28.4091 120.671 27.1234 120.275 25.4565C120.219 25.2306 120.091 25.1179 119.894 25.1179C119.385 25.0897 118.863 25.146 118.326 25.2872C117.817 25.4003 117.379 25.5128 117.012 25.6258C116.673 25.7388 116.249 25.7961 115.741 25.7961C115.232 25.7961 114.695 25.6826 114.13 25.4565C113.706 25.2589 113.268 25.1314 112.816 25.0749C112.365 24.9902 111.983 24.9625 111.672 24.9907C111.362 24.9907 110.923 25.0184 110.358 25.0749C109.821 25.1314 109.398 25.16 109.087 25.16C108.889 25.16 108.762 25.2588 108.705 25.4565C108.253 27.067 107.843 28.3526 107.476 29.3132C107.363 29.6523 107.137 29.7797 106.798 29.6949C106.374 29.6102 105.894 29.5677 105.357 29.5677C104.849 29.5394 104.397 29.5394 104.001 29.5677C103.634 29.5959 103.153 29.6384 102.56 29.6949C101.966 29.7514 101.5 29.78 101.161 29.78C100.935 29.8082 100.751 29.7232 100.61 29.5256C100.497 29.2996 100.497 29.0873 100.61 28.8895C101.175 27.8724 101.698 26.474 102.178 24.6942C102.658 22.9142 103.182 21.0767 103.747 19.1837C104.34 17.2625 105.046 15.6094 105.865 14.2251C106.854 12.5298 107.83 10.1423 108.79 7.06262C109.779 3.98306 110.655 1.82151 111.418 0.578358C111.559 0.380714 111.757 0.281839 112.011 0.281839C112.604 0.366601 113.381 0.366603 114.342 0.281839ZM130.739 0.113519C133.818 0.000499827 137.52 0.297685 141.843 1.00405C144.499 1.51264 146.689 2.27488 148.412 3.29204C149.401 3.94187 150.221 4.63405 150.871 5.36865C151.52 6.10327 152.114 6.99385 152.651 8.03927V8.08135C153.47 9.88963 153.865 11.9384 153.837 14.227C153.837 15.3571 153.809 16.3179 153.753 17.109C153.696 17.9001 153.498 18.8185 153.159 19.8638C152.848 20.9091 152.41 21.7288 151.845 22.3221C151.648 22.5199 151.308 22.9148 150.828 23.5081C150.375 24.1015 149.952 24.6386 149.556 25.1189C149.161 25.571 148.54 26.1082 147.692 26.7297C146.873 27.3513 145.968 27.8736 144.979 28.2974C143.99 28.693 142.69 29.0465 141.08 29.3573C139.498 29.6398 137.732 29.781 135.782 29.781C135.5 29.781 134.624 29.7386 133.155 29.6538C131.686 29.569 130.866 29.5691 130.697 29.6538C130.499 29.682 130.329 29.6534 130.188 29.5687C130.047 29.4558 129.99 29.329 130.018 29.188C130.188 27.973 130.174 26.5878 129.976 25.0338C129.807 23.4517 129.637 22.0672 129.467 20.8806C129.326 19.6939 129.425 17.9846 129.764 15.7527C130.131 13.7467 130.23 11.1191 130.06 7.86997C129.919 4.62069 130.004 2.17603 130.315 0.537256V0.495176C130.4 0.240978 130.541 0.113612 130.739 0.113519ZM9.13189 0.11254C11.1944 -0.000472969 12.6498 -0.028119 13.4975 0.0283796H13.5395C15.4609 0.254417 17.0722 0.904092 18.3719 1.97777C19.1063 2.65575 19.6852 3.44697 20.1089 4.35089V4.39395C20.4762 5.26979 20.6747 6.23062 20.703 7.27595C20.7312 8.43416 20.5613 9.56414 20.1941 10.6659C20.0245 11.0897 19.8686 11.4431 19.7273 11.7257C19.6709 11.8104 19.657 11.9094 19.6852 12.0222C19.7417 12.1352 19.8266 12.2201 19.9396 12.2766C21.4935 12.8982 22.6943 13.8305 23.5419 15.0735C24.4178 16.3167 24.8414 17.8007 24.8131 19.5242C24.6718 22.3213 23.3299 24.6378 20.7871 26.4743C18.9788 27.6892 16.7464 28.5937 14.0905 29.187C12.254 29.5543 10.0075 29.7518 7.3518 29.78C7.01232 29.78 5.9812 29.7375 4.25841 29.6528C2.53488 29.5398 1.54557 29.5398 1.29127 29.6528C1.09376 29.681 0.924519 29.6532 0.783376 29.5687C0.642113 29.4556 0.584858 29.3283 0.613098 29.187C0.78262 27.9721 0.768782 26.5877 0.571018 25.0338C0.401506 23.4517 0.231654 22.0672 0.0621416 20.8806C-0.0791315 19.6939 0.020583 17.9838 0.359639 15.7517C0.726896 13.7457 0.825675 11.1319 0.656157 7.91107C0.514897 4.69015 0.599801 2.26015 0.910595 0.621416C0.91066 0.593292 0.924486 0.579336 0.952675 0.579336C1.00918 0.381553 1.13655 0.254187 1.33433 0.197679H1.37641C2.02622 0.112927 3.09976 0.0704669 4.59701 0.0704598H4.64007C5.60069 0.211688 7.09792 0.225528 9.13189 0.11254ZM62.6461 0.15462C64.2565 0.15462 65.6271 0.268183 66.7572 0.494197C67.9157 0.691981 69.0324 1.14418 70.106 1.85055H70.1481C71.5324 2.86766 72.677 4.18106 73.5811 5.79141H73.6232C75.0924 8.70158 75.827 12.3184 75.827 16.6412V16.6843C75.7987 18.6054 75.5163 20.3148 74.9795 21.8122C74.4709 23.2814 73.6089 24.7082 72.394 26.0926V26.1347C71.1509 27.4061 69.7102 28.3669 68.0715 29.0167C66.6306 29.5253 64.8364 29.78 62.6892 29.78C60.5418 29.78 58.733 29.5253 57.2638 29.0167C55.6251 28.3669 54.1844 27.4061 52.9413 26.1347V26.0926C51.7264 24.7082 50.8505 23.2814 50.3137 21.8122C49.8051 20.3148 49.5366 18.6054 49.5083 16.6843V16.6412C49.5366 12.2901 50.285 8.67333 51.7542 5.79141V5.74932C52.6583 4.16722 53.8167 2.86767 55.2292 1.85055C56.3028 1.14427 57.4049 0.69202 58.535 0.494197C59.6933 0.268175 61.064 0.154635 62.6461 0.15462ZM167.819 0.15462C169.429 0.15462 170.8 0.268196 171.93 0.494197C173.089 0.691981 174.205 1.14418 175.279 1.85055H175.321C176.705 2.86766 177.85 4.18105 178.754 5.79141H178.796C180.265 8.70158 181 12.3184 181 16.6412V16.6843C180.972 18.6054 180.689 20.3148 180.153 21.8122C179.644 23.2814 178.782 24.7082 177.567 26.0926V26.1347C176.324 27.4061 174.883 28.3669 173.245 29.0167C171.804 29.5253 170.009 29.78 167.862 29.78C165.715 29.78 163.906 29.5253 162.437 29.0167C160.798 28.3669 159.357 27.4061 158.114 26.1347V26.0926C156.899 24.7082 156.024 23.2814 155.487 21.8122C154.978 20.3148 154.71 18.6054 154.681 16.6843V16.6412C154.71 12.2901 155.458 8.67333 156.927 5.79141V5.74932C157.831 4.16725 158.99 2.86766 160.402 1.85055C161.476 1.14418 162.579 0.691981 163.709 0.494197C164.867 0.268232 166.237 0.154641 167.819 0.15462ZM88.8836 0.11254C90.5223 0.0842876 91.9214 0.281759 93.0799 0.705577C94.2663 1.10113 95.4101 1.83602 96.5118 2.9094C97.5572 3.98302 98.3629 5.26871 98.928 6.7661C99.2953 7.72676 99.5501 8.75853 99.6913 9.86046C99.776 10.5102 99.705 10.9339 99.479 11.1317C98.9704 11.499 98.3345 11.5977 97.5717 11.4282C97.4586 11.3999 97.2469 11.3574 96.9366 11.301C96.654 11.2162 96.4556 11.1599 96.3425 11.1317C96.2577 11.1034 96.1025 11.0748 95.8767 11.0465C95.6508 11.0183 95.467 11.0183 95.3258 11.0465C95.1845 11.0748 95.0007 11.1173 94.7748 11.1738C94.577 11.2303 94.3647 11.3013 94.1387 11.3861V11.4282C93.9692 11.5129 93.7855 11.428 93.5878 11.1738C93.4184 10.9478 93.3056 10.679 93.2492 10.3684C93.1926 10.0012 93.1077 9.63361 92.9947 9.26644C92.7122 8.53199 92.3586 7.95316 91.9349 7.52941V7.48733C91.5393 7.12002 91.0447 6.85147 90.4513 6.68194V6.63888C89.8015 6.49769 89.0104 6.46998 88.0782 6.55472C87.2871 6.696 86.6087 6.9784 86.0437 7.40219V7.44427C85.5352 7.83978 85.0976 8.39095 84.7304 9.09714C83.8827 10.8772 83.3881 13.2084 83.2468 16.0903C83.1903 18.5484 83.7551 20.4984 84.9417 21.9394C85.535 22.5892 86.2274 23.0691 87.0184 23.3799C87.866 23.6907 88.8415 23.8319 89.9434 23.8037H89.9855C90.8049 23.7472 91.5681 23.5359 92.2745 23.1686C93.6588 22.4622 94.7184 21.3601 95.453 19.8628C95.679 19.3542 95.8479 18.8734 95.9609 18.4213C96.0456 18.1105 96.1878 17.9131 96.3856 17.8283L96.4277 17.7852C97.0775 17.5875 97.7984 17.6161 98.5894 17.8704C99.3804 18.0963 100.073 18.125 100.666 17.9555H100.708C100.821 17.9273 100.906 17.9697 100.963 18.0827C101.047 18.1956 101.104 18.3224 101.132 18.4634C101.273 18.859 101.273 19.326 101.132 19.8628C100.962 20.5125 100.765 21.1339 100.539 21.7271V21.7691C99.9737 23.1254 99.2243 24.3694 98.2919 25.4996C97.2749 26.6861 96.1026 27.6471 94.7748 28.3816C93.2773 29.1445 91.6807 29.5957 89.9855 29.737C88.0361 29.85 86.228 29.61 84.5611 29.0167C82.9223 28.3669 81.4808 27.4062 80.2376 26.1347V26.0926C79.0227 24.7082 78.1469 23.2814 77.61 21.8122C77.1014 20.3147 76.8329 18.6046 76.8046 16.6833V16.6412C76.8329 12.2901 77.5813 8.67335 79.0505 5.79141V5.74932C79.9547 4.16707 81.1138 2.86674 82.5265 1.84957C84.25 0.719562 86.3691 0.140792 88.8836 0.11254ZM27.1383 0.113519C27.6469 0.000499827 28.3113 0.000499827 29.1307 0.113519C29.9498 0.226481 30.5712 0.268945 30.995 0.240738C34.3288 0.0712196 37.2675 0.113702 39.8103 0.367957H39.8533C41.0398 0.537464 42.071 0.791324 42.9467 1.13029C43.8226 1.44109 44.6846 1.93578 45.5322 2.61386C46.4646 3.43323 47.1715 4.40779 47.6519 5.53795V5.581C48.1038 6.7393 48.2728 7.99654 48.1598 9.35256C48.1315 9.66324 48.0752 10.0022 47.9905 10.3693C47.7644 11.2452 47.4534 12.0509 47.0579 12.7855C46.521 13.7461 45.815 14.5657 44.9392 15.2438V15.2859C44.0633 15.9357 43.1164 16.4728 42.0992 16.8967C41.9863 16.9531 41.9161 17.052 41.8879 17.1932C41.8596 17.3344 41.8873 17.4618 41.972 17.5748C42.9327 18.5637 43.5547 19.6518 43.8373 20.8385H43.8793C44.1901 21.9403 44.6562 22.915 45.2778 23.7626C45.9276 24.6102 46.5921 25.4574 47.2702 26.305C47.9766 27.1244 48.5275 27.9864 48.9231 28.8905C49.0078 29.0883 48.993 29.2719 48.88 29.4414C48.767 29.6109 48.612 29.7097 48.4142 29.738C47.8491 29.7945 47.0157 29.752 45.9139 29.6107C44.8403 29.4695 43.9644 29.4557 43.2863 29.5687C42.9475 29.6251 42.6648 29.5548 42.4388 29.3573C42.2411 29.1596 41.8735 28.8344 41.3369 28.3826C40.8283 27.9023 40.4324 27.5202 40.1499 27.2376C39.8673 26.9551 39.5425 26.5453 39.1752 26.0085C38.8361 25.4717 38.5814 24.9068 38.4119 24.3135C38.2989 24.0311 38.1862 23.7485 38.0733 23.4661C37.9602 23.1835 37.819 22.8863 37.6495 22.5755C37.4801 22.2649 37.3387 22.0109 37.2258 21.8132C37.1128 21.6155 36.929 21.3467 36.6748 21.0078C36.4488 20.6405 36.279 20.3857 36.1659 20.2445C36.0811 20.1031 35.8836 19.8345 35.5729 19.4391C35.2905 19.0155 35.1206 18.7616 35.064 18.6767C34.9793 18.5355 34.8519 18.4792 34.6824 18.5074C34.0608 18.5357 33.4673 18.5357 32.9023 18.5074C32.7611 18.5075 32.6484 18.5499 32.5637 18.6347C32.5072 18.7194 32.4785 18.8182 32.4785 18.9312C32.5068 19.5527 32.5779 20.3577 32.6909 21.3464C32.8039 22.307 32.8888 23.1413 32.9453 23.8477C33.0018 24.5257 33.0295 25.3594 33.0295 26.3481C33.0295 27.3086 32.9594 28.227 32.8181 29.1028C32.7616 29.3853 32.6056 29.5404 32.3513 29.5687C31.7863 29.7099 31.1503 29.7237 30.444 29.6107C30.2745 29.5825 30.0343 29.541 29.7238 29.4845C29.4412 29.3997 29.2151 29.3573 29.0456 29.3573C28.9043 29.329 28.7206 29.3004 28.4946 29.2721C28.2686 29.2439 28.0425 29.2439 27.8165 29.2721C27.5906 29.2721 27.3364 29.286 27.0541 29.3142C26.8563 29.3425 26.7003 29.2862 26.5873 29.1449C26.4461 28.9754 26.3898 28.7917 26.418 28.594C26.6158 26.9552 26.5309 24.6665 26.1636 21.728C25.7963 18.7616 25.825 16.4449 26.2487 14.778C26.5595 13.2522 26.6869 11.627 26.6304 9.90352C26.6021 8.1519 26.531 6.66866 26.418 5.45379C26.305 4.21058 26.3899 2.58541 26.6725 0.579336C26.729 0.297031 26.8842 0.141845 27.1383 0.113519ZM136.503 6.76806C136.361 6.73983 136.234 6.78133 136.121 6.8943C136.036 6.97906 136.009 7.0926 136.037 7.23387C136.206 8.3638 136.319 9.25371 136.375 9.90352C136.46 10.5534 136.503 11.444 136.503 12.5741C136.503 13.6759 136.418 14.7494 136.248 15.7947C136.164 16.2184 136.093 16.6423 136.037 17.066C136.009 17.4897 135.994 17.9421 135.994 18.4223V19.5673C135.994 19.8498 136.009 20.2736 136.037 20.8385C136.093 21.3753 136.121 21.7288 136.121 21.8983C136.149 22.068 136.207 22.478 136.291 23.1275C136.376 23.7481 136.418 24.1011 136.419 24.1863C136.447 24.4406 136.588 24.5541 136.842 24.5259C137.774 24.4411 138.622 24.2999 139.385 24.1021C140.148 23.9044 140.77 23.7059 141.25 23.5081C141.758 23.3104 142.281 23.014 142.818 22.6186C143.383 22.1948 143.792 21.8699 144.047 21.6439C144.301 21.3896 144.682 20.9936 145.191 20.4568C145.699 19.9202 146.067 19.5389 146.293 19.3128C147.027 18.5782 147.479 17.6452 147.649 16.515C147.818 15.3569 147.791 14.3117 147.565 13.3795C147.367 12.4472 147.07 11.5852 146.674 10.7941C146.109 9.72038 145.318 8.95716 144.301 8.50509C143.312 8.02478 142.027 7.62981 140.445 7.31901C139.286 7.14949 137.972 6.96584 136.503 6.76806ZM64.5965 6.55472C63.3251 6.44171 62.0532 6.44172 60.7819 6.55472V6.5968C59.9907 6.70982 59.3124 6.97838 58.7473 7.40219V7.44427C58.2388 7.86808 57.8004 8.41907 57.4331 9.09714V9.1402C56.5856 10.8919 56.0917 13.2087 55.9505 16.0903C55.9222 18.5484 56.487 20.4984 57.6454 21.9394H57.6875C58.2526 22.5892 58.931 23.0691 59.722 23.3799H59.7641C60.5552 23.6625 61.5161 23.8036 62.6461 23.8037C63.8046 23.8037 64.7939 23.6625 65.6133 23.3799H65.6553C66.4464 23.0692 67.1248 22.5892 67.6899 21.9394C68.8766 20.4984 69.4413 18.5484 69.3848 16.0903C69.2718 13.2086 68.7918 10.8919 67.9443 9.1402V9.09714C67.5488 8.39087 67.1103 7.8398 66.63 7.44427V7.40219C66.0651 6.97854 65.3873 6.70984 64.5965 6.5968V6.55472ZM169.769 6.55472C168.498 6.4417 167.226 6.44171 165.955 6.55472V6.5968C165.164 6.70982 164.485 6.97837 163.92 7.40219V7.44427C163.412 7.868 162.974 8.41924 162.607 9.09714V9.1402C161.759 10.8919 161.265 13.2085 161.123 16.0903C161.095 18.5484 161.66 20.4984 162.818 21.9394H162.861C163.426 22.5892 164.104 23.0691 164.895 23.3799H164.937C165.728 23.6624 166.689 23.8036 167.819 23.8037C168.978 23.8037 169.967 23.6625 170.786 23.3799H170.828C171.619 23.0692 172.298 22.5892 172.863 21.9394C174.05 20.4984 174.614 18.5484 174.558 16.0903C174.445 13.2086 173.965 10.8919 173.117 9.1402V9.09714C172.722 8.39089 172.283 7.8398 171.803 7.44427V7.40219C171.238 6.97855 170.56 6.70983 169.769 6.5968V6.55472ZM15.2775 17.3625C14.1474 17.2495 12.6781 17.2633 10.8699 17.4046C9.06162 17.5176 7.77608 17.56 7.0132 17.5318C6.73066 17.5318 6.58947 17.6591 6.58946 17.9134C6.53295 19.2131 6.63169 20.937 6.88598 23.0844C6.91432 23.3384 7.05561 23.465 7.30972 23.4651C9.1179 23.4368 11.0534 23.183 13.1158 22.7027C13.2571 22.6745 13.6392 22.6034 14.2608 22.4904C14.882 22.3492 15.3623 22.2227 15.7013 22.1097C16.0686 21.9967 16.4784 21.8268 16.9304 21.6008C17.4107 21.3748 17.7642 21.0776 17.9902 20.7103C18.2444 20.3431 18.3719 19.9193 18.3719 19.4391C18.3719 19.2697 18.3432 19.1144 18.2868 18.9733C18.2585 18.8039 18.2021 18.6625 18.1175 18.5495C18.061 18.4365 17.976 18.323 17.863 18.2099C17.75 18.0969 17.6365 18.012 17.5235 17.9555C17.4387 17.871 17.3119 17.8005 17.1428 17.7441C16.9735 17.6877 16.832 17.6452 16.719 17.6169C16.6343 17.5887 16.4921 17.56 16.2943 17.5318C16.1252 17.4754 15.9983 17.4477 15.9136 17.4476C15.8571 17.4194 15.7436 17.4046 15.5741 17.4046C15.4047 17.3763 15.3058 17.3625 15.2775 17.3625ZM114.597 10.0298C114.286 10.0298 114.087 10.1848 114.003 10.4956C113.211 13.4904 112.505 15.5106 111.884 16.5561C111.601 17.0364 111.319 17.6022 111.036 18.252C110.98 18.3932 110.994 18.5346 111.078 18.6758C111.191 18.7887 111.333 18.8311 111.502 18.803C112.519 18.5769 113.424 18.6332 114.215 18.9723C114.469 19.0853 114.709 19.1702 114.935 19.2267C115.189 19.2832 115.472 19.297 115.783 19.2688C116.093 19.2406 116.306 19.2267 116.419 19.2267C116.532 19.1985 116.786 19.1422 117.182 19.0574C117.577 18.9444 117.818 18.8733 117.902 18.8451C118.015 18.8168 118.1 18.7457 118.157 18.6327C118.213 18.5199 118.213 18.4069 118.157 18.2941C117.902 17.6725 117.62 17.0929 117.309 16.5561C116.716 15.4824 116.009 13.4622 115.19 10.4956C115.105 10.185 114.907 10.0298 114.597 10.0298ZM167.978 12.719C168.289 12.719 168.554 12.74 168.772 12.7826C168.996 12.8199 169.213 12.9048 169.42 13.038H169.428C169.696 13.2298 169.917 13.4781 170.091 13.7817H170.1C170.384 14.3303 170.526 15.0123 170.526 15.827V15.8349C170.52 16.197 170.465 16.5195 170.362 16.8017C170.263 17.0785 170.097 17.3473 169.862 17.6081V17.6169C169.622 17.8565 169.343 18.0375 169.027 18.16C168.748 18.2559 168.401 18.3039 167.985 18.3039C167.57 18.3039 167.22 18.2559 166.936 18.16C166.62 18.0375 166.341 17.8565 166.101 17.6169V17.6081C165.866 17.3473 165.697 17.0785 165.593 16.8017C165.494 16.5195 165.443 16.197 165.437 15.8349V15.827C165.443 15.0069 165.588 14.325 165.872 13.7817V13.7729C166.046 13.4748 166.271 13.2297 166.544 13.038C166.751 12.905 166.965 12.8198 167.183 12.7826C167.407 12.74 167.672 12.719 167.978 12.719ZM32.9023 6.68292C32.7611 6.68297 32.6484 6.73927 32.5637 6.85222C32.4789 6.93697 32.4503 7.03573 32.4785 7.14873C32.8741 9.43736 33.0439 11.2175 32.9874 12.489C32.9875 12.6302 33.0299 12.7429 33.1146 12.8276C33.1994 12.9124 33.2981 12.941 33.4112 12.9127C35.0782 12.7715 36.7597 12.3903 38.4549 11.7687C39.1047 11.5145 39.7683 11.1748 40.4464 10.751C41.1245 10.3272 41.5342 9.87496 41.6755 9.39464V9.35256C41.7603 8.87225 41.7464 8.4763 41.6334 8.16551V8.12343C41.5204 7.89742 41.3505 7.69991 41.1246 7.53039C40.5595 7.1631 39.6836 6.92316 38.497 6.81014C37.8189 6.75363 36.8442 6.725 35.5729 6.725C34.3015 6.725 33.4109 6.71117 32.9023 6.68292ZM9.64076 6.59778C8.51065 6.65428 7.63478 6.66811 7.0132 6.63986C6.87192 6.63986 6.75838 6.69614 6.67362 6.80916C6.61721 6.89381 6.58952 6.99285 6.58946 7.10568C6.90026 8.97048 7.07008 10.3982 7.09834 11.3871C7.12672 11.641 7.26795 11.7678 7.52207 11.7678C7.91762 11.7678 8.48261 11.7539 9.21702 11.7257L9.2591 11.6836C10.0784 11.6836 10.8556 11.5987 11.5901 11.4292C12.353 11.2314 13.0175 10.8779 13.5826 10.3693C14.1757 9.83261 14.4444 9.16874 14.388 8.37787C14.3597 7.72801 14.1761 7.26101 13.837 6.97846C13.498 6.69594 13.0032 6.52709 12.3535 6.47056H12.3114C11.6898 6.49881 10.7992 6.54127 9.64076 6.59778Z" fill="url(#paint0_linear_0_13)"/>
<defs>
<linearGradient id="paint0_linear_0_13" x1="0.000488775" y1="40.9534" x2="180.951" y2="-46.109" gradientUnits="userSpaceOnUse">
<stop stop-color="#A72901"/>
<stop offset="0.5" stop-color="#F96700"/>
<stop offset="1" stop-color="#FFDF0E"/>
</linearGradient>
</defs>
</svg>
