<svg width="4" height="4" viewBox="0 0 4 4" fill="none" xmlns="http://www.w3.org/2000/svg">
<path id="*" d="M0.282944 3.03426C0.20673 2.87231 0.140043 2.75323 0.0828826 2.67701C0.0352489 2.59127 0.0447757 2.53411 0.111463 2.50553C0.292471 2.42932 0.483005 2.30071 0.683067 2.1197C0.721174 2.09112 0.735464 2.04825 0.725937 1.99109C0.71641 1.94345 0.692594 1.91011 0.654487 1.89106C0.397265 1.77674 0.187677 1.6386 0.0257222 1.47664C-0.00285803 1.44806 -0.00762138 1.40996 0.0114321 1.36232C0.049539 1.27658 0.116226 1.1575 0.211493 1.00507C0.316288 0.852643 0.392501 0.733559 0.440135 0.647818C0.478242 0.562077 0.525876 0.543024 0.583036 0.590657C0.725937 0.704978 0.906945 0.795482 1.12606 0.862169C1.17369 0.881223 1.21656 0.876459 1.25467 0.847879C1.29278 0.819299 1.30707 0.776429 1.29754 0.719268C1.26896 0.471573 1.28325 0.257222 1.34041 0.0762138C1.34994 0.0381068 1.37852 0.0190532 1.42615 0.0190532C1.54047 1.10621e-08 1.66432 -0.00476331 1.79769 0.0047633C2.1216 0.0428703 2.34548 0.0571603 2.46933 0.0476331C2.50744 0.0476331 2.53602 0.05716 2.55507 0.0762138C2.58365 0.0952671 2.59794 0.119084 2.59794 0.147664C2.55983 0.300092 2.55031 0.46681 2.56936 0.647818C2.56936 0.695452 2.59318 0.728795 2.64081 0.747848C2.69797 0.776429 2.7456 0.771665 2.78371 0.733558C2.97425 0.600184 3.16002 0.514443 3.34103 0.476336C3.36961 0.46681 3.39819 0.4811 3.42677 0.519207C3.51251 0.614474 3.59348 0.762138 3.6697 0.9622C3.75544 1.16226 3.84118 1.31945 3.92692 1.43377C3.98408 1.51951 3.97455 1.57191 3.89834 1.59096C3.75544 1.62907 3.61254 1.70052 3.46964 1.80532C3.43153 1.8339 3.41248 1.87677 3.41248 1.93393C3.422 1.98156 3.45058 2.0149 3.49822 2.03396C3.68875 2.12922 3.84118 2.23878 3.9555 2.36263C3.98408 2.39121 3.98884 2.42455 3.96979 2.46266C3.92216 2.58651 3.83165 2.73417 3.69828 2.90565C3.5649 3.07713 3.46964 3.2248 3.41248 3.34865C3.39342 3.38675 3.36961 3.41057 3.34103 3.4201C3.31245 3.42962 3.28863 3.42486 3.26958 3.40581C3.14573 3.29149 2.98377 3.19622 2.78371 3.12001C2.73608 3.09142 2.69321 3.09619 2.6551 3.1343C2.61699 3.16288 2.59794 3.20098 2.59794 3.24862C2.60747 3.48678 2.58841 3.71543 2.54078 3.93454C2.53125 3.96312 2.50267 3.98217 2.45504 3.9917C2.35977 4.00123 2.22163 4.00123 2.04063 3.9917C1.85962 3.97265 1.71672 3.96788 1.61192 3.97741C1.58334 3.97741 1.55476 3.97265 1.52618 3.96312C1.4976 3.94407 1.48808 3.91549 1.4976 3.87738C1.52618 3.67732 1.50713 3.4582 1.44044 3.22004C1.43092 3.1724 1.4071 3.13906 1.36899 3.12001C1.32136 3.10095 1.27849 3.10571 1.24038 3.1343C1.03079 3.2772 0.816441 3.37723 0.597326 3.43439C0.559219 3.44391 0.525876 3.42962 0.497296 3.39152C0.440135 3.3153 0.368685 3.19622 0.282944 3.03426Z" fill="black"/>
</svg>
