<svg width="30" height="9" viewBox="0 0 30 9" fill="none" xmlns="http://www.w3.org/2000/svg">
<g id="Food">
<path id="Vector" d="M27.8153 5.56562C28.028 5.35292 28.1589 5.08295 28.208 4.75572C28.2571 4.42031 28.2489 4.11762 28.1835 3.84765C28.1262 3.57769 28.0403 3.32817 27.9258 3.09911C27.7622 2.78824 27.5331 2.56736 27.2386 2.43647C26.9523 2.29739 26.58 2.18286 26.1219 2.09287C25.7865 2.04379 25.4061 1.99061 24.9807 1.93335C24.9398 1.92517 24.903 1.93744 24.8702 1.97016C24.8457 1.9947 24.8375 2.02743 24.8457 2.06833C24.8948 2.39556 24.9275 2.65326 24.9439 2.84141C24.9684 3.02957 24.9807 3.28727 24.9807 3.6145C24.9807 3.93355 24.9561 4.24442 24.9071 4.54711C24.8825 4.66982 24.8621 4.79253 24.8457 4.91524C24.8375 5.03796 24.8334 5.16885 24.8334 5.30792C24.8334 5.43882 24.8334 5.54926 24.8334 5.63924C24.8334 5.72105 24.8375 5.84376 24.8457 6.00738C24.8621 6.16281 24.8702 6.26507 24.8702 6.31416C24.8784 6.36324 24.8948 6.48187 24.9193 6.67002C24.9439 6.85 24.9561 6.95226 24.9561 6.9768C24.9643 7.05043 25.0052 7.08315 25.0789 7.07497C25.3488 7.05043 25.5942 7.00953 25.8151 6.95226C26.036 6.895 26.216 6.83773 26.3551 6.78046C26.5023 6.7232 26.6537 6.6373 26.8091 6.52277C26.9727 6.40006 27.0913 6.30598 27.165 6.24053C27.2386 6.1669 27.349 6.05237 27.4963 5.89694C27.6435 5.7415 27.7499 5.63106 27.8153 5.56562ZM23.0296 4.53484C23.1359 3.954 23.1645 3.19319 23.1155 2.2524C23.0746 1.31161 23.0991 0.603968 23.1891 0.129482C23.1891 0.129482 23.1891 0.125392 23.1891 0.117211C23.2136 0.0435839 23.2545 0.00677032 23.3118 0.00677032C24.2035 -0.0259529 25.2752 0.0599456 26.5269 0.264466C27.2958 0.41172 27.9299 0.632601 28.4289 0.92711C28.7152 1.11527 28.9525 1.3157 29.1406 1.5284C29.3288 1.7411 29.5006 1.99879 29.656 2.30148V2.31375C29.8932 2.83732 30.0078 3.43043 29.9996 4.09308C29.9996 4.42031 29.9914 4.69845 29.9751 4.92752C29.9587 5.15658 29.9014 5.42245 29.8033 5.72514C29.7133 6.02783 29.5865 6.26507 29.4229 6.43687C29.3656 6.49414 29.2674 6.60867 29.1283 6.78046C28.9975 6.95226 28.8747 7.1077 28.7602 7.24677C28.6457 7.37766 28.4657 7.5331 28.2203 7.71307C27.983 7.89305 27.7212 8.0444 27.4349 8.16711C27.1486 8.28164 26.7723 8.3839 26.306 8.47389C25.8478 8.5557 25.3365 8.5966 24.7721 8.5966C24.6903 8.5966 24.4367 8.58433 24.0113 8.55979C23.5859 8.53524 23.3486 8.53524 23.2995 8.55979C23.2423 8.56797 23.1932 8.55979 23.1523 8.53524C23.1114 8.50252 23.095 8.46571 23.1032 8.4248C23.1523 8.07303 23.1482 7.67217 23.0909 7.22223C23.0418 6.7641 22.9928 6.36324 22.9437 6.01965C22.9028 5.67606 22.9314 5.18112 23.0296 4.53484Z" fill="black"/>
<path id="Vector_2" d="M16.9655 6.3275C16.9737 6.3275 16.9778 6.3275 16.9778 6.3275C17.1414 6.51566 17.3377 6.65473 17.5668 6.74472H17.579C17.8081 6.82653 18.0863 6.86743 18.4135 6.86743C18.7489 6.86743 19.0352 6.82653 19.2725 6.74472H19.2847C19.5138 6.65473 19.7101 6.51566 19.8738 6.3275C20.2173 5.91028 20.381 5.34581 20.3646 4.63408C20.3319 3.79964 20.1928 3.12881 19.9474 2.6216V2.60933C19.8329 2.40481 19.706 2.24529 19.567 2.13076V2.11848C19.4034 1.99577 19.207 1.91805 18.978 1.88533V1.87306C18.6098 1.84034 18.2417 1.84034 17.8736 1.87306V1.88533C17.6445 1.91805 17.4482 1.99577 17.2845 2.11848V2.13076C17.1373 2.25347 17.0105 2.41299 16.9041 2.60933V2.6216C16.6587 3.12881 16.5155 3.79964 16.4746 4.63408C16.4665 5.34581 16.6301 5.91028 16.9655 6.3275ZM14.6094 4.80587V4.7936C14.6176 3.53376 14.8344 2.48662 15.2598 1.65218V1.63991C15.5216 1.18178 15.857 0.805467 16.266 0.510958C16.5769 0.306439 16.8959 0.175546 17.2232 0.11828C17.5586 0.0528338 17.9554 0.0201105 18.4135 0.0201105C18.8798 0.0201105 19.2766 0.0528338 19.6038 0.11828C19.9392 0.175546 20.2623 0.306439 20.5732 0.510958H20.5855C20.9863 0.805467 21.3177 1.18587 21.5795 1.65218H21.5917C22.0171 2.4948 22.2298 3.54194 22.2298 4.7936V4.80587C22.2216 5.36217 22.1398 5.85711 21.9844 6.29069C21.8371 6.71609 21.5876 7.12922 21.2359 7.53008V7.54235C20.8759 7.91048 20.4587 8.18863 19.9842 8.37679C19.567 8.52404 19.0475 8.59767 18.4258 8.59767C17.804 8.59767 17.2804 8.52404 16.855 8.37679C16.3806 8.18863 15.9633 7.91048 15.6034 7.54235V7.53008C15.2516 7.12922 14.998 6.71609 14.8426 6.29069C14.6953 5.85711 14.6176 5.36217 14.6094 4.80587Z" fill="black"/>
<path id="Vector_3" d="M8.81796 6.3275C8.82614 6.3275 8.83023 6.3275 8.83023 6.3275C8.99384 6.51566 9.19018 6.65473 9.41924 6.74472H9.43152C9.66058 6.82653 9.93872 6.86743 10.266 6.86743C10.6014 6.86743 10.8877 6.82653 11.1249 6.74472H11.1372C11.3663 6.65473 11.5626 6.51566 11.7262 6.3275C12.0698 5.91028 12.2334 5.34581 12.2171 4.63408C12.1844 3.79964 12.0453 3.12881 11.7999 2.6216V2.60933C11.6853 2.40481 11.5585 2.24529 11.4194 2.13076V2.11848C11.2558 1.99577 11.0595 1.91805 10.8304 1.88533V1.87306C10.4623 1.84034 10.0942 1.84034 9.72602 1.87306V1.88533C9.49696 1.91805 9.30062 1.99577 9.13701 2.11848V2.13076C8.98975 2.25347 8.86295 2.41299 8.7566 2.60933V2.6216C8.51118 3.12881 8.36801 3.79964 8.32711 4.63408C8.31893 5.34581 8.48254 5.91028 8.81796 6.3275ZM6.46189 4.80587V4.7936C6.47007 3.53376 6.68686 2.48662 7.11226 1.65218V1.63991C7.37405 1.18178 7.70946 0.805467 8.1185 0.510958C8.42937 0.306439 8.74842 0.175546 9.07565 0.11828C9.41106 0.0528338 9.80783 0.0201105 10.266 0.0201105C10.7323 0.0201105 11.129 0.0528338 11.4563 0.11828C11.7917 0.175546 12.1148 0.306439 12.4257 0.510958H12.438C12.8388 0.805467 13.1701 1.18587 13.4319 1.65218H13.4442C13.8696 2.4948 14.0823 3.54194 14.0823 4.7936V4.80587C14.0741 5.36217 13.9923 5.85711 13.8369 6.29069C13.6896 6.71609 13.4401 7.12922 13.0883 7.53008V7.54235C12.7284 7.91048 12.3112 8.18863 11.8367 8.37679C11.4194 8.52404 10.9 8.59767 10.2782 8.59767C9.65649 8.59767 9.13292 8.52404 8.70752 8.37679C8.23303 8.18863 7.81581 7.91048 7.45585 7.54235V7.53008C7.10408 7.12922 6.85048 6.71609 6.69504 6.29069C6.54779 5.85711 6.47007 5.36217 6.46189 4.80587Z" fill="black"/>
<path id="Vector_4" d="M0.103944 4.53693C0.136667 4.33241 0.1653 4.11153 0.189843 3.87429C0.214385 3.62886 0.230746 3.40798 0.238927 3.21164C0.247108 3.0153 0.251198 2.76988 0.251198 2.47537C0.251198 2.18086 0.247108 1.95589 0.238927 1.80046C0.230746 1.64502 0.222566 1.41187 0.214385 1.101C0.206204 0.781947 0.198023 0.577427 0.189843 0.487439C0.189843 0.421992 0.202114 0.340184 0.226656 0.242015C0.259379 0.143846 0.300283 0.0783993 0.349368 0.0456761C0.365729 0.0374954 0.382091 0.0293144 0.398453 0.0211333C0.463899 0.0129526 0.975199 0.00886224 1.93235 0.00886224C2.08779 0.00886224 2.2964 0.0415855 2.55818 0.107032C2.88541 0.180659 3.25764 0.201111 3.67486 0.168388C4.10026 0.127484 4.47249 0.0824897 4.79154 0.0334051C5.11877 -0.0238607 5.53599 -0.00749915 6.0432 0.0824898C6.0432 0.0824898 6.04729 0.0824898 6.05547 0.0824898C6.11274 0.0988512 6.14546 0.139755 6.15364 0.205202C6.18636 0.368817 6.18636 0.552885 6.15364 0.757404C6.15364 0.781947 6.14137 0.867845 6.11683 1.0151C6.09228 1.16235 6.08001 1.24007 6.08001 1.24825C6.08819 1.24825 6.0841 1.32597 6.06774 1.4814C6.05956 1.62866 6.06774 1.71865 6.09228 1.75137C6.10046 1.80046 6.0841 1.84545 6.0432 1.88635C6.01048 1.92726 5.96957 1.94362 5.92049 1.93544V1.92317C5.56053 1.87408 5.16785 1.87408 4.74245 1.92317C4.31705 1.97225 3.96937 2.02134 3.6994 2.07042C3.42944 2.11133 3.04903 2.08269 2.55818 1.98452C2.40275 1.93544 2.23095 1.90272 2.04279 1.88635C2.00189 1.88635 1.96916 1.90272 1.94462 1.93544C1.92008 1.95998 1.90781 1.98861 1.90781 2.02134C1.98962 2.55309 2.0387 2.94577 2.05506 3.19937C2.05506 3.26482 2.08779 3.30163 2.15323 3.30981C2.25958 3.32617 2.35366 3.34662 2.43547 3.37117C2.71362 3.44479 3.01631 3.46525 3.34354 3.43252C3.67077 3.39162 3.92846 3.34662 4.11662 3.29754C4.31296 3.24027 4.5502 3.25255 4.82835 3.33435C4.86926 3.34253 4.8938 3.36708 4.90198 3.40798C4.90198 3.41616 4.90607 3.43661 4.91425 3.46934C4.92243 3.64113 4.92243 3.8252 4.91425 4.02154C4.88153 4.48785 4.86926 4.81508 4.87744 5.00323C4.88562 5.0605 4.88153 5.10959 4.86516 5.15049C4.84062 5.18321 4.82017 5.19548 4.80381 5.1873H4.79154C4.5952 5.13004 4.36614 5.12595 4.10435 5.17503C3.84257 5.22412 3.60123 5.2732 3.38035 5.32229C3.15947 5.37137 2.84451 5.34274 2.43547 5.23639C2.30458 5.20366 2.17368 5.17503 2.04279 5.15049C2.01007 5.15049 1.97735 5.15867 1.94462 5.17503C1.92008 5.19957 1.90781 5.22821 1.90781 5.26093C1.89963 5.59634 1.93644 6.12809 2.01825 6.85618C2.10006 7.57609 2.10415 8.11194 2.03052 8.46371C2.02234 8.49643 2.00598 8.52098 1.98144 8.53734C1.95689 8.5537 1.93235 8.56188 1.90781 8.56188C1.73601 8.5946 1.55194 8.60687 1.35561 8.59869C0.881119 8.56597 0.553888 8.56188 0.37391 8.58642C0.316645 8.5946 0.26756 8.58642 0.226656 8.56188C0.185752 8.53734 0.169391 8.50052 0.177571 8.45144C0.226656 8.09966 0.222566 7.69471 0.1653 7.23659C0.116215 6.77847 0.0671306 6.37352 0.0180459 6.02174C-0.0228581 5.66997 0.00577469 5.17503 0.103944 4.53693Z" fill="black"/>
</g>
</svg>
