<svg width="41" height="44" viewBox="0 0 41 44" fill="none" xmlns="http://www.w3.org/2000/svg">
<path id="Union" d="M24.5278 0.0196131C25.4761 0.0889818 26.3567 0.3875 27.0824 1.03263C27.8198 1.68823 28.242 2.50878 28.1895 3.50682C28.1485 4.286 27.8154 4.95113 27.1853 5.44067C27.0521 5.5442 27.0187 5.6393 27.0667 5.8143C27.2636 6.53242 27.447 7.25523 27.6109 7.98155C27.6558 8.18027 27.7533 8.42226 27.506 8.59347C27.7244 9.12921 27.7377 9.70374 27.7737 10.2714C27.793 10.5749 27.8699 10.8034 28.1336 10.998C28.448 11.2302 28.737 11.5088 28.9917 11.8061C29.253 12.1111 29.3331 12.4898 29.2447 12.8946C29.1259 13.4391 28.7008 13.6351 28.2346 13.7615C28.0568 13.8098 28.0088 13.9017 28.013 14.0538C28.0271 14.5737 27.831 15.0134 27.5188 15.4159C27.4759 15.4711 27.4682 15.5708 27.4766 15.6463C27.5505 16.31 27.4879 16.9482 27.0932 17.5106C26.642 18.1534 26.0004 18.4926 25.2378 18.6226C24.4885 18.7504 23.7635 18.632 23.0126 18.3873C23.2737 19.0931 23.4497 19.7887 23.3824 20.5643C23.9217 20.414 24.4185 20.255 24.9249 20.1407C25.4115 20.0308 25.9061 19.9437 26.4018 19.8896C26.8933 19.836 27.3489 19.9937 27.7571 20.2672C27.8918 20.3574 27.9824 20.3332 28.0709 20.2191C28.6915 19.4181 29.5574 19.0078 30.4921 18.7168C31.065 18.5385 31.649 18.4693 32.2514 18.5707C32.5867 18.6271 32.7803 18.856 32.9604 19.0924C33.3723 19.633 33.5735 20.2606 33.6577 20.9301C33.7344 21.5411 33.7483 22.1491 33.5655 22.7453C33.3278 23.5204 32.8921 23.8927 32.0788 23.9339C31.518 23.9621 30.953 23.9113 30.3901 23.8966C30.3288 23.895 30.2675 23.8966 30.1852 23.8966C30.9979 25.3516 31.8013 26.7902 32.5897 28.2017C33.0828 28.0969 33.5529 27.9847 34.0274 27.8996C34.7027 27.7785 35.3826 27.7881 36.0652 27.8525C37.1973 27.9595 38.2194 28.3587 39.1572 28.9862C39.3424 29.1102 39.5145 29.2604 39.672 29.4187C39.9991 29.7476 39.9223 30.2745 39.4994 30.465C39.2599 30.5729 38.9843 30.6124 38.7208 30.6523C38.5339 30.6805 38.3391 30.6572 38.1157 30.6572C38.4483 30.8883 38.764 31.0801 39.0473 31.3103C40.0064 32.0896 40.6191 33.0902 40.837 34.3072C41.2223 36.4589 40.5286 38.2707 39.0179 39.794C38.1495 40.6696 37.1117 41.2517 35.8886 41.4915C33.1787 42.0229 30.5509 40.4407 29.9312 37.7071C29.823 37.2301 29.83 36.7267 29.786 36.2352C29.7801 36.1683 29.785 36.1005 29.785 36.0469C29.4333 36.1553 29.096 36.3197 28.7475 36.3499C28.3863 36.3814 28.1839 36.5727 27.9493 36.7981C26.9989 37.7108 25.858 38.2924 24.5621 38.4799C23.5222 38.6303 22.4639 38.6704 21.4122 38.7221C20.2797 38.7778 19.1449 38.7878 18.0113 38.8251C17.9419 38.8273 17.8481 38.8755 17.8103 38.932C17.2546 39.7607 16.4996 40.214 15.4851 40.2264C14.7008 40.2361 13.9162 40.2714 13.1326 40.3069C13.0546 40.3105 12.946 40.3777 12.9099 40.4461C12.2916 41.6202 11.5462 42.5154 10.2033 43.2027C8.35844 44.147 6.70117 44.3301 4.898 43.3292C3.91566 42.7839 3.32292 42.1622 2.86118 41.2963C2.3968 40.4253 2.22012 39.5003 2.35026 38.4917C2.14325 38.4917 1.93741 38.4971 1.73245 38.4897C1.40063 38.4777 1.05751 38.5059 0.740026 38.4299C0.216678 38.3045 -0.0216261 37.8465 0.156537 37.3345C0.322635 36.8577 0.543389 36.3992 0.740026 35.9331C0.600398 35.8337 0.4358 35.734 0.292848 35.6095C0.102874 35.4441 0.0593727 35.2278 0.167324 34.9986C0.439972 34.42 0.719524 33.8444 0.995977 33.2677C1.12006 33.0088 1.33031 32.9017 1.61183 32.8961C1.95335 32.8892 2.33355 32.9559 2.62484 32.8274C2.90168 32.7053 3.08364 32.3704 3.31032 32.1321C4.09497 31.3069 4.9671 30.5966 5.99928 30.0982C6.03264 30.0821 6.06454 30.0618 6.07479 30.0561C5.69753 30.0561 5.30302 30.0609 4.90879 30.0541C4.60746 30.0488 4.42976 29.9194 4.35668 29.6275C4.31619 29.4658 4.30527 29.2888 4.3204 29.1225C4.36167 28.6693 4.50457 28.2507 4.80386 27.8957C4.99526 27.6688 5.25114 27.5607 5.53346 27.5378C6.08221 27.4932 6.63311 27.472 7.18293 27.4397C7.51442 27.4203 7.84596 27.3984 8.20379 27.3759C7.78084 26.4107 7.70267 25.4213 7.94489 24.3683C7.25517 24.0851 6.56778 23.798 5.87669 23.52C4.20629 22.8482 2.53379 22.1806 0.862608 21.5107C0.455506 21.3474 0.0803724 21.1311 0.0114001 20.6536C-0.0187969 20.4441 0.0119594 20.201 0.0918138 20.0044C0.703004 18.4994 1.33218 17.0012 1.958 15.5022C2.30444 14.6724 2.65539 13.8443 3.0073 13.0084C2.82879 12.8431 2.8107 12.6557 2.90433 12.4269C3.16663 11.7863 3.40478 11.1359 3.6663 10.495C3.8818 9.96699 4.52094 9.64319 5.08433 9.77909C5.60678 9.90511 6.12227 10.0606 6.64357 10.1919C6.71684 10.2103 6.83594 10.1946 6.88285 10.1459C7.73928 9.25582 8.7658 9.18321 9.87776 9.50842C10.6673 9.73943 11.3611 10.1104 11.8371 10.8176C12.1471 11.2782 12.2751 11.7807 12.2431 12.3445C12.9081 12.5873 13.5703 12.8286 14.2319 13.0711C14.3905 13.1293 14.5447 13.2005 14.7055 13.2516C15.0754 13.3691 15.3694 13.5738 15.5204 13.9194C16.1081 13.7605 16.6839 13.605 17.265 13.4477C16.7317 12.4931 16.5251 11.484 16.961 10.4204C16.6815 10.1631 16.6774 9.80538 16.5903 9.48783C16.4627 9.02124 16.3733 8.54375 16.2608 8.0394C15.9674 8.00741 15.6617 7.98542 15.3596 7.93938C14.4237 7.79665 13.5834 6.92827 13.4572 5.99768C13.2597 4.54283 13.8885 3.46445 15.0409 2.67523C16.1374 1.92442 17.3717 1.69427 18.688 1.91031C18.7816 1.92572 18.9018 1.88815 18.9861 1.83677C19.8152 1.33154 20.6383 0.818845 21.5485 0.461888C22.51 0.0848332 23.5079 -0.0549199 24.5278 0.0196131ZM4.43121 38.5044C4.39187 38.5056 4.32556 38.6094 4.32138 38.6692C4.24675 39.8146 4.64128 40.7522 5.60309 41.4052C6.72214 42.1647 8.34963 42.1045 9.57474 41.2797C9.99146 40.999 10.3428 40.6498 10.6701 40.2206C10.5393 40.2206 10.4545 40.2193 10.3701 40.2206C9.33785 40.2361 8.30525 40.2515 7.27315 40.2676C6.86603 40.2739 6.54064 40.1014 6.28367 39.7989C5.95449 39.4114 5.87984 38.9607 5.98849 38.4966L5.20887 38.4956C4.94935 38.4961 4.69016 38.4988 4.43121 38.5044ZM36.1524 32.0203C35.6145 31.9643 35.0713 31.9979 34.5461 32.2106C34.759 32.6353 34.9673 33.0518 35.1688 33.454C35.2937 33.4366 35.3849 33.4156 35.4768 33.4119C36.7493 33.3604 37.6357 34.4359 37.6626 35.5262C37.688 36.5525 37.2164 37.3461 36.3819 37.9092C35.3449 38.6088 34.0081 38.3664 33.3527 37.3708C32.9281 36.7256 32.8993 36.0283 33.1722 35.3114C33.1987 35.2417 33.22 35.1381 33.1879 35.0829C32.9782 34.7236 32.753 34.3725 32.5162 33.9924C32.4772 34.043 32.4624 34.0613 32.4495 34.0807C31.8067 35.0493 31.5043 36.1003 31.8003 37.2482C32.2527 39.0024 33.7167 39.7975 35.2895 39.6459C36.2922 39.5491 37.1403 39.0766 37.8401 38.3534C38.9249 37.2323 39.3012 35.9068 38.9179 34.3915C38.5965 33.122 37.4705 32.1578 36.1524 32.0203ZM6.70142 39.1369C6.90405 39.5092 7.22149 39.6183 7.58303 39.6106C8.66131 39.5878 9.73964 39.5577 10.8172 39.5145C11.0118 39.5067 11.2162 39.4497 11.3929 39.3664C11.5467 39.2938 11.668 39.1519 11.8038 39.0408L11.7636 38.9938C10.0906 39.0413 8.41719 39.0882 6.70142 39.1369ZM28.6867 23.4837C28.2887 23.897 28.1248 24.3167 28.2542 24.8586C28.524 25.9877 28.777 27.1214 29.0054 28.2595C29.1389 28.9243 29.1127 29.6001 29.0133 30.2728C28.8812 31.1664 28.5514 31.9948 28.1885 32.8117C27.7159 33.8761 27.1933 34.9081 26.3037 35.7046C25.5167 36.4093 24.6069 36.8647 23.5638 36.9893C22.7415 37.0875 21.9084 37.0977 21.0798 37.1403C20.599 37.1651 20.1174 37.1777 19.6363 37.1952C18.3868 37.2408 17.1369 37.2895 15.8872 37.3296C15.591 37.3391 15.4471 37.2088 15.4704 36.9059C15.5058 36.4469 15.5748 35.9889 15.6538 35.535C15.6859 35.3507 15.7303 35.1971 15.5763 35.0368C15.4922 34.949 15.4528 34.8073 15.4204 34.6828C15.2274 33.9408 15.3192 33.2202 15.6636 32.546C16.0468 31.7959 16.1803 30.9779 16.406 30.1375C16.0666 30.1375 15.7546 30.1574 15.4469 30.1335C14.6292 30.07 13.8137 29.9661 12.9953 29.9188C12.2205 29.8739 11.4404 29.8354 10.6672 29.8776C9.89193 29.9199 9.10109 29.986 8.35383 30.1816C5.78987 30.8527 3.7849 32.3433 2.3738 34.5779C1.81347 35.4652 1.40268 36.4469 0.92537 37.3865C0.874067 37.4874 0.787004 37.62 0.947925 37.6787C1.08363 37.7282 1.25224 37.7642 1.33038 37.5502C1.41493 37.3191 1.51513 37.0931 1.61673 36.8687C2.45796 35.0097 3.66012 33.4406 5.38637 32.3233C7.31266 31.0768 9.4073 30.5341 11.6949 30.9906C12.7427 31.1997 13.6069 31.7336 14.1975 32.644C14.6322 33.314 14.8025 34.0653 14.8252 34.8613C14.856 35.9461 14.6027 36.9408 13.9642 37.8278C13.9356 37.8676 13.9216 37.918 13.8906 37.9856C14.3446 37.9857 14.772 37.9951 15.1988 37.9847C17.6607 37.9241 20.1231 37.8725 22.5841 37.7876C23.315 37.7623 24.0565 37.703 24.769 37.5483C26.3289 37.2096 27.5979 36.4102 28.2895 34.9133C28.7246 33.9716 29.074 32.9899 29.4565 32.0242C29.8222 31.1011 30.2415 30.2091 30.8991 29.45C31.1412 29.1706 31.3831 28.8899 31.6326 28.6008C30.6847 26.9543 29.6925 25.2308 28.6867 23.4837ZM10.6574 31.5957C9.26282 31.498 7.94338 31.8105 6.6926 32.4145C5.2666 33.1032 4.13479 34.1362 3.23187 35.4291C2.74955 36.1199 2.35762 36.8573 2.07666 37.6483C2.09358 37.6615 2.09943 37.6697 2.1051 37.6699C3.50201 37.6488 4.8998 37.6348 6.29641 37.6032C7.14978 37.5839 8.00305 37.5411 8.85592 37.5032C10.1034 37.4478 11.3503 37.3798 12.5981 37.3325C13.1931 37.31 13.597 37.0428 13.7857 36.4813C14.0263 35.7649 14.0823 35.0286 13.9632 34.2856C13.8706 33.7083 13.6685 33.1723 13.2659 32.7254C12.567 31.9495 11.6532 31.6656 10.6574 31.5957ZM35.466 34.0366C35.5897 34.2918 35.7032 34.5256 35.8161 34.7593C35.9336 35.0027 36.0558 35.2445 36.1671 35.4909C36.4248 36.0614 36.1643 36.7103 35.5846 36.954C35.049 37.1792 34.5397 37.015 34.1705 36.497C34.0138 36.2771 33.8583 36.056 33.6841 35.8096C33.4796 36.7622 34.1067 37.8418 35.3865 37.6444C36.4831 37.4753 37.254 36.2233 36.9625 35.1516C36.7804 34.4823 36.1156 33.9748 35.466 34.0366ZM27.4531 23.9652C27.2122 24.0176 26.9883 24.1084 26.7676 24.1015C26.5959 24.0962 26.4644 24.1197 26.3135 24.1967C25.9592 24.3771 25.5944 24.3944 25.225 24.2084C25.1345 24.1629 25.0055 24.1525 24.9053 24.1751C24.616 24.2404 24.3221 24.2649 24.0727 24.1035C23.882 23.98 23.7095 23.9433 23.5255 23.9996C23.4188 24.2608 23.3264 24.5125 23.2137 24.7547C23.1088 24.9803 22.9107 25.1161 22.6724 25.1459C22.1661 25.209 21.6553 25.2888 21.1484 25.2773C20.8033 25.2694 20.6915 25.4588 20.5463 25.6833C21.1584 25.9716 21.6826 26.3383 22.0516 26.9033C22.7046 27.903 22.7533 28.9879 22.4243 30.0826C21.9977 31.5015 21.4935 32.8971 21.0396 34.3082C20.9571 34.5645 20.8278 34.6657 20.5738 34.623C20.3279 34.5818 20.224 34.6907 20.2325 34.9358C20.3454 34.9572 20.4522 34.9716 20.5561 34.9976C21.1069 35.1352 21.6626 35.2573 22.2056 35.4212C22.5791 35.534 22.7891 35.8139 22.7969 36.2724L23.4824 36.2107C24.6257 36.0729 25.5572 35.5502 26.2841 34.6593C26.9974 33.785 27.4246 32.7604 27.8326 31.7242C28.3502 30.409 28.4676 29.0743 28.164 27.6839C27.894 26.4472 27.4541 25.2406 27.4531 23.9652ZM33.0516 32.9421C33.5261 33.8436 33.9863 34.7239 34.453 35.6007C34.5431 35.7701 34.6444 35.9367 34.7638 36.0861C34.8806 36.2322 35.0332 36.334 35.2238 36.1871C35.4063 36.0463 35.3846 35.8898 35.2787 35.7037C34.909 35.0544 34.5504 34.3988 34.1882 33.7453C33.9701 33.3519 33.7531 32.9573 33.5292 32.5518C33.3562 32.693 33.2075 32.815 33.0516 32.9421ZM38.8973 29.7511C37.2923 28.6416 35.5312 28.3524 33.6449 28.7763C32.2318 29.0939 31.2414 29.957 30.6784 31.2682C30.0879 32.6435 29.5662 34.0486 28.9976 35.484C29.5035 35.2635 29.9206 34.9794 30.2499 34.5779C30.5588 34.201 30.8483 33.8075 31.1629 33.4354C32.1331 32.2878 33.2737 31.3515 34.6275 30.6857C35.3077 30.3512 36.0142 30.0833 36.7722 30.011C37.4196 29.9492 38.0719 29.9367 38.7218 29.9011C38.8104 29.8963 38.8986 29.8835 38.9836 29.8747C38.9836 29.8377 38.9871 29.8269 38.9836 29.8237C38.9558 29.7984 38.9281 29.7724 38.8973 29.7511ZM1.97467 33.7571C1.75292 33.6719 1.61183 33.7181 1.51867 33.9444C1.37597 34.2907 1.20705 34.626 1.05384 34.9682C1.02759 35.0267 1.02484 35.096 1.01167 35.1604C1.03347 35.1647 1.05557 35.1688 1.07737 35.1731C1.37533 34.7025 1.67379 34.2323 1.97467 33.7571ZM8.66077 24.1545C8.62809 24.6421 8.55728 25.1492 8.56957 25.6539C8.58546 26.2965 8.81131 26.8837 9.28251 27.3387C9.80099 27.8393 10.4365 28.1607 11.1026 28.4174C12.167 28.8277 13.2782 29.0283 14.4113 29.1196C15.4461 29.2029 16.4834 29.3522 17.4563 29.0166C17.1807 30.5438 16.9025 32.0853 16.6198 33.6521C16.7492 33.6699 16.7948 33.6806 16.8404 33.6816C17.943 33.7036 19.0455 33.728 20.1482 33.7384C20.2157 33.7391 20.3231 33.644 20.3472 33.5717C20.7748 32.2813 21.2168 30.994 21.6034 29.6913C21.8244 28.9466 21.7952 28.1848 21.3651 27.5005C20.9709 26.8733 20.3662 26.4981 19.6931 26.2276C18.8169 25.8754 17.8988 25.7437 16.96 25.702C16.0344 25.6608 15.1179 25.7226 14.2093 25.8883C13.5999 25.9994 12.9966 26.1456 12.3157 26.2923C12.614 26.0506 12.8638 25.8473 13.0855 25.6676C12.3422 25.469 11.5803 25.3082 10.8486 25.0587C10.1188 24.8097 9.41923 24.4721 8.66077 24.1545ZM7.90861 28.335C7.21805 28.3364 6.52656 28.3386 5.83747 28.3772C5.43324 28.3999 5.18269 28.7597 5.22162 29.1862C6.47724 29.1558 7.71782 29.1252 8.96281 29.095C8.72213 28.8804 8.49316 28.662 8.24694 28.4655C8.15592 28.3928 8.02246 28.3347 7.90861 28.335ZM17.0189 14.3323C16.1623 14.543 15.3535 14.8732 14.6016 15.3384C13.3047 16.1409 12.2371 17.1897 11.3252 18.402C10.2886 19.7801 9.47386 21.2748 8.97066 22.9326C8.91691 23.1096 8.97056 23.1827 9.10207 23.269C10.7265 24.3337 12.5356 24.8114 14.4506 24.9125C15.3186 24.9584 16.1916 24.9181 17.062 24.9243C17.32 24.9262 17.5778 24.9543 17.8358 24.9704C17.8175 24.9229 17.7929 24.9066 17.7661 24.8978C17.0682 24.6678 16.4723 24.2727 15.9519 23.7613C14.9564 22.7829 14.1647 21.673 13.7651 20.3162C13.6223 19.8314 13.5905 19.2169 13.6876 18.9149C14.2355 20.2556 14.9898 21.4618 15.9372 22.5472C16.5844 23.2885 17.3172 23.9177 18.3026 24.1447C18.8121 24.2621 19.3377 24.3343 19.8598 24.3663C20.5328 24.4076 21.2098 24.3887 21.8849 24.3938C21.9039 24.3939 21.9231 24.3713 21.9457 24.3575C21.8302 23.2219 21.8697 22.1083 22.4184 21.0458C20.9904 20.9731 19.5944 20.6216 18.1368 20.9948C18.4768 20.5536 18.8891 20.3046 19.347 20.0838C18.7883 18.7744 18.2831 17.4427 17.3847 16.2818C17.4517 16.3076 17.5009 16.3229 17.5465 16.3455C18.0524 16.5974 18.4669 16.9724 18.7507 17.4449C19.1655 18.1355 19.5324 18.8574 19.8804 19.5846C20.0173 19.8708 20.1589 20.0432 20.4894 19.9818C20.5034 19.9792 20.517 19.9745 20.5532 19.9651C20.5329 19.2828 20.9296 18.8793 21.5534 18.6246C21.3535 18.4947 21.1832 18.3927 21.0219 18.2784C20.0216 17.5702 19.2714 16.613 18.4693 15.7071C18.0835 15.2715 17.6918 14.8409 17.2915 14.4186C17.233 14.3568 17.0996 14.3125 17.0189 14.3323ZM27.7492 21.2233C27.1735 20.5785 26.461 20.447 25.6604 20.6477C24.931 20.8306 24.2047 21.0278 23.4785 21.2233C23.3716 21.252 23.2354 21.2775 23.1745 21.3537C22.7275 21.9153 22.6135 22.5718 22.6596 23.2768C22.8202 23.2768 22.9673 23.2837 23.1127 23.2749C23.2651 23.2656 23.4166 23.2405 23.5667 23.2229C23.5756 22.386 24.2539 22.1008 24.8563 22.1726C25.1413 22.2066 25.3825 22.3434 25.5653 22.5717C25.8181 22.8879 25.8036 23.2382 25.6624 23.6416C25.7794 23.6295 25.8644 23.639 25.933 23.6102C26.2491 23.4775 26.4169 23.226 26.4234 22.8904C26.4344 22.3085 26.1418 21.8592 25.7438 21.4616C26.0352 21.4617 26.2733 21.5704 26.4734 21.7715C26.9054 22.2059 27.0262 22.7286 26.8872 23.3327C27.2637 23.1457 27.4074 22.7953 27.2638 22.302C27.157 21.9359 26.9772 21.5904 26.8352 21.2478C27.3822 21.3043 27.6903 21.798 27.8355 22.8924C28.1688 22.5102 28.1144 21.6323 27.7492 21.2233ZM3.44957 13.789C2.57684 15.9006 1.70378 18.0129 0.832208 20.125C0.669823 20.5185 0.68297 20.5769 1.07835 20.7565C1.48427 20.9409 1.90134 21.1012 2.31692 21.2635C3.97839 21.9125 5.64136 22.5587 7.35062 23.2239C8.51043 20.7527 9.66423 18.2945 10.8339 15.8023C8.42419 14.9349 6.06287 14.0846 3.68885 13.23C3.59965 13.4375 3.5226 13.6124 3.44957 13.789ZM31.307 19.3052C30.216 19.5427 29.2145 19.9045 28.4769 20.8311C29.1241 21.0573 29.3697 21.5408 29.4663 22.1294C29.5014 22.3429 29.5169 22.5601 29.5556 22.7728C29.5652 22.8251 29.6213 22.8943 29.6703 22.91C30.2927 23.1107 30.933 23.1958 31.6081 23.1954C31.1194 21.9123 30.973 20.6407 31.307 19.3052ZM32.1651 19.3513C31.9556 19.5422 31.8354 19.7542 31.8395 20.0142C31.8476 20.5304 31.8261 21.0528 31.8993 21.5607C31.9561 21.9539 32.1234 22.3352 32.2749 22.708C32.3188 22.8161 32.479 22.8775 32.5858 22.9601C32.6639 22.8509 32.7729 22.7522 32.8143 22.6306C33.0504 21.9358 32.9921 21.2338 32.8231 20.5359C32.7151 20.0901 32.5417 19.6753 32.1651 19.3513ZM21.4613 19.3964C21.1745 19.5426 21.1199 19.6694 21.1877 20.0436C21.3215 19.9532 21.4388 19.8576 21.5701 19.7896C21.7588 19.6921 21.8783 19.7652 21.9016 19.972C21.9064 20.0157 21.9172 20.0597 21.9241 20.0995C22.0899 20.1213 22.2408 20.1406 22.3899 20.1603V18.9355C22.0498 19.1039 21.7538 19.2471 21.4613 19.3964ZM10.9329 17.6057C10.9411 17.6077 10.9493 17.6095 10.9575 17.6116C11.3129 17.1883 11.6683 16.7648 12.0352 16.3279C11.8519 16.2565 11.6974 16.1969 11.5302 16.1318L10.9329 17.6057ZM26.3763 8.49933C25.4994 8.49045 24.6211 8.47968 23.755 8.64153C22.9849 8.7854 22.2182 8.94819 21.4524 9.1142C21.3901 9.12776 21.3029 9.22887 21.3014 9.29072C21.2877 9.8808 21.2889 10.4714 21.2877 11.0618C21.2865 11.5877 21.2877 12.114 21.2877 12.6514C20.7886 12.5948 20.4576 12.3691 20.2737 11.9061C20.1073 11.487 19.9254 11.0671 19.6922 10.6832C19.5101 10.3837 19.1857 10.203 18.8233 10.241C18.2997 10.2958 17.9257 10.7603 17.8858 11.2913C17.8354 11.9621 18.0969 12.5147 18.5085 13.0094C18.9079 13.4894 19.3961 13.692 20.0079 13.4183C20.0348 13.4063 20.0674 13.4052 20.105 13.3977C20.1409 13.5364 20.1725 13.67 20.2099 13.8017C20.8641 16.1006 23.2644 17.2455 25.3819 16.8437C25.9236 16.7409 26.3117 16.3961 26.5656 15.9121C26.5463 15.891 26.5416 15.8813 26.5371 15.8807C26.4752 15.8817 26.4127 15.8847 26.3508 15.8856C25.7848 15.8942 25.3042 15.6755 24.9955 15.2178C24.8285 14.9701 24.6532 14.8423 24.3797 14.8059C24.349 14.8019 24.317 14.8006 24.2875 14.7922C23.5603 14.5856 23.0405 14.1626 22.8577 13.3997C22.802 13.1667 22.7957 12.9333 23.0205 12.7701C23.1372 12.6854 23.2273 12.6421 23.3255 12.8299C23.4963 13.1568 23.783 13.3328 24.1659 13.3565C24.7231 13.3909 25.2108 13.1891 25.6761 12.926C25.8098 12.8504 25.9253 12.707 25.9987 12.5681C26.1267 12.3261 26.2439 12.2275 26.4891 12.2464C26.256 12.6867 26.3334 12.8785 26.8097 13.0378C27.2223 13.1758 27.6433 13.1996 28.0669 13.1064C28.684 12.9707 28.8347 12.5289 28.4082 12.0581C28.218 11.8482 27.9778 11.6809 27.7492 11.509C27.4549 11.2876 27.2714 10.9991 27.2255 10.6401C27.1628 10.149 27.1528 9.64989 27.0726 9.16225C26.9633 8.49853 27.0681 8.50635 26.3763 8.49933ZM19.7069 14.1155C19.2305 14.2943 18.7607 14.2781 18.2741 14.1391C18.9056 14.8663 19.523 15.5778 20.1403 16.2887C19.89 15.5798 19.6249 14.8903 19.7069 14.1155ZM11.8852 15.3149C12.1667 15.4299 12.4356 15.5395 12.6854 15.6414C13.3367 15.1973 13.9681 14.7676 14.6251 14.3195C14.2157 13.6634 13.4397 13.6546 12.8187 13.331C12.5004 14.0075 12.1962 14.654 11.8852 15.3149ZM27.2599 14.4725C26.7179 14.838 26.1181 14.9324 25.4545 14.9442C26.3175 15.6242 26.9882 15.4719 27.2599 14.4725ZM5.06079 10.5479C4.73271 10.4401 4.51067 10.5562 4.36649 10.8715C4.17118 11.2984 3.98529 11.7296 3.79575 12.1591C3.75675 12.2476 3.71893 12.3365 3.68101 12.4249C6.17434 13.2942 8.64425 14.1559 11.133 15.0236C11.4386 14.3729 11.7454 13.72 12.0617 13.0466C11.9974 13.0188 11.9485 12.9949 11.8989 12.976C10.901 12.5953 9.90962 12.1964 8.90299 11.8404C7.62935 11.3899 6.34438 10.9694 5.06079 10.5479ZM18.4497 11.3472C18.4514 11.0459 18.7377 10.8834 19.0832 10.9951C19.3555 11.0833 19.57 11.2654 19.6529 11.5315C19.7729 11.9176 19.8424 12.32 19.9403 12.7465C19.5325 12.7313 19.176 12.4815 19.0528 12.1503C19.1274 12.1224 19.2019 12.0948 19.3342 12.0454C19.2443 11.8688 19.173 11.6868 19.0655 11.5296C18.9646 11.382 18.8125 11.4515 18.687 11.5109C18.5033 11.5977 18.4488 11.518 18.4497 11.3472ZM8.90299 10.1792C8.48973 10.1752 8.16094 10.3756 7.87036 10.6646C8.99535 11.0813 10.0972 11.4896 11.2193 11.9051C11.2057 11.5326 11.095 11.2095 10.8447 10.9519C10.3152 10.4072 9.64611 10.1864 8.90299 10.1792ZM25.4908 10.593C25.7589 10.5909 26.0339 10.6004 26.2086 10.8353C26.2794 10.9305 26.3282 11.0995 26.2929 11.203C26.2407 11.3562 26.0835 11.2742 25.9742 11.2324C25.6505 11.1086 25.3385 11.1147 25.0465 11.3109C24.9035 11.4068 24.729 11.4248 24.6572 11.2952C24.6 11.1918 24.6263 10.9833 24.6984 10.8784C24.8834 10.61 25.1916 10.5921 25.4908 10.593ZM25.4555 9.13676C25.6446 9.14464 25.7789 9.17058 25.936 9.20638C26.1592 9.25751 26.2785 9.42712 26.2361 9.62905C26.1931 9.83255 26.0113 9.87941 25.8575 9.84675C25.2576 9.71921 24.7372 9.92987 24.2169 10.1763C24.1524 10.2067 24.0305 10.217 23.9923 10.1792C23.9334 10.1204 23.8989 10.0117 23.8982 9.92422C23.8962 9.63472 24.0515 9.44224 24.3257 9.36819C24.6944 9.2687 25.0056 9.11808 25.4555 9.13676ZM25.5437 5.61915C24.6308 5.6409 23.7145 5.66648 22.8077 5.76527C21.7283 5.88301 20.6713 6.15007 19.65 6.51841C18.8179 6.81857 18.0087 7.18294 17.1915 7.52358C17.0793 7.57031 16.9733 7.63065 17.0022 7.7962C17.1095 8.4106 17.2079 9.02664 17.3101 9.64572L17.8887 9.42409C20.7821 8.33784 23.7215 7.62075 26.8421 7.77659C26.7026 7.20732 26.5675 6.63906 26.4214 6.07417C26.3968 5.97915 26.3445 5.84573 26.2714 5.81724C26.0373 5.72575 25.7858 5.6134 25.5437 5.61915ZM26.3518 1.43666C25.2051 0.678034 23.9487 0.649246 22.6537 0.920834C21.7563 1.10912 20.9793 1.56601 20.1992 2.01623C19.9788 2.14344 19.7511 2.26115 19.5402 2.4026C19.0669 2.71992 18.5546 2.67265 18.0221 2.63208C16.7602 2.53609 15.6749 2.94282 14.8242 3.89712C14.3015 4.4836 14.074 5.1848 14.226 5.95748C14.421 6.94882 15.4919 7.48181 16.4285 7.03129C17.1009 6.70774 17.7629 6.33251 18.3585 5.88589C19.118 5.31627 19.9559 4.92461 20.817 4.56102C20.8304 4.55537 20.8509 4.56562 20.9444 4.58162C20.5078 4.97233 20.1137 5.32542 19.7196 5.67799C19.7915 5.70119 19.838 5.69574 19.8814 5.68191C20.7349 5.41123 21.6075 5.23471 22.4978 5.13863C22.9652 5.0882 23.4368 5.04354 23.8943 4.94152C24.5166 4.8027 24.9654 4.38022 25.3692 3.91183C25.4594 3.80715 25.5308 3.68579 25.6359 3.53624C25.6715 4.08555 25.4283 4.48915 25.1897 4.87189C25.6459 4.93462 26.087 4.99551 26.5714 5.06214C26.7225 4.89102 26.9181 4.71169 27.0637 4.49826C27.7364 3.51255 27.4201 2.14365 26.3518 1.43666Z" fill="black"/>
</svg>
