<svg width="41" height="44" viewBox="0 0 41 44" fill="none" xmlns="http://www.w3.org/2000/svg">
<path id="Union" d="M24.5274 0.0193159C25.4757 0.0886775 26.3563 0.388168 27.082 1.0333C27.8194 1.68893 28.2417 2.50937 28.1891 3.50745C28.1481 4.28663 27.815 4.95175 27.185 5.44128C27.0517 5.54483 27.0192 5.63977 27.0673 5.8149C27.2642 6.53303 27.4466 7.2558 27.6106 7.98212C27.6554 8.18084 27.7529 8.42283 27.5056 8.59404C27.724 9.1298 27.7373 9.70426 27.7733 10.2719C27.7927 10.5754 27.8695 10.8039 28.1332 10.9986C28.4476 11.2307 28.7366 11.5094 28.9913 11.8066C29.2525 12.1116 29.3327 12.4903 29.2443 12.8951C29.1254 13.4394 28.7004 13.6356 28.2342 13.762C28.0565 13.8103 28.0085 13.9014 28.0126 14.0533C28.0269 14.5734 27.8307 15.0138 27.5184 15.4164C27.4754 15.4717 27.4678 15.5712 27.4762 15.6468C27.5502 16.3105 27.4875 16.9486 27.0928 17.511C26.6416 18.1537 26 18.493 25.2374 18.6231C24.4882 18.7508 23.7631 18.6324 23.0123 18.3877C23.2733 19.0935 23.4493 19.7892 23.382 20.5647C23.9214 20.4144 24.4182 20.2544 24.9246 20.1401C25.4111 20.0302 25.9058 19.9441 26.4014 19.89C26.893 19.8364 27.3485 19.9941 27.7567 20.2676C27.8914 20.3577 27.9821 20.3336 28.0705 20.2195C28.6911 19.4185 29.5569 19.0083 30.4917 18.7172C31.0648 18.5388 31.6494 18.4695 32.2519 18.5711C32.5867 18.6276 32.78 18.8557 32.9599 19.0918C33.3717 19.6323 33.573 20.2602 33.6572 20.9295C33.734 21.5407 33.7479 22.1493 33.565 22.7457C33.3274 23.5208 32.8917 23.8931 32.0784 23.9342C31.5176 23.9625 30.9526 23.9117 30.3897 23.8969C30.3284 23.8954 30.2671 23.8969 30.1847 23.8969C30.9975 25.3519 31.8008 26.7905 32.5893 28.2019C33.0824 28.0972 33.5524 27.984 34.0269 27.8989C34.7022 27.7779 35.3821 27.7884 36.0647 27.8528C37.1968 27.9598 38.2189 28.359 39.1566 28.9865C39.3418 29.1104 39.5139 29.2607 39.6715 29.4189C39.9984 29.7479 39.9217 30.2738 39.4989 30.4643C39.2593 30.5723 38.9839 30.6127 38.7202 30.6526C38.5334 30.6807 38.3386 30.6575 38.1152 30.6575C38.4477 30.8886 38.7635 31.0794 39.0468 31.3096C40.006 32.089 40.6185 33.0902 40.8365 34.3074C41.2217 36.4589 40.5278 38.27 39.0174 39.7931C38.149 40.6687 37.1113 41.2518 35.8881 41.4916C33.1783 42.023 30.5506 40.4407 29.9307 37.7073C29.8226 37.2303 29.8296 36.7268 29.7856 36.2354C29.7797 36.1685 29.7846 36.1007 29.7846 36.0471C29.4329 36.1555 29.0956 36.3189 28.7471 36.3491C28.3859 36.3806 28.1845 36.5729 27.9499 36.7982C26.9994 37.7111 25.8578 38.2915 24.5617 38.4791C23.5219 38.6295 22.4636 38.6706 21.4119 38.7223C20.2794 38.7779 19.1446 38.788 18.0111 38.8252C17.9419 38.8275 17.8481 38.8748 17.81 38.9311C17.2544 39.7599 16.4994 40.2141 15.4849 40.2266C14.7006 40.2362 13.916 40.2706 13.1324 40.306C13.0544 40.3097 12.9458 40.3778 12.9098 40.4462C12.2914 41.6202 11.546 42.5155 10.2032 43.2028C8.3584 44.147 6.70101 44.3301 4.89793 43.3293C3.9157 42.7841 3.32383 42.1622 2.86212 41.2964C2.39757 40.4252 2.21999 39.4997 2.35023 38.4908C2.14323 38.4908 1.93737 38.4973 1.73242 38.4899C1.40058 38.4779 1.05752 38.5051 0.740016 38.4291C0.216588 38.3036 -0.0218846 37.8458 0.156535 37.3337C0.322637 36.8569 0.544382 36.3994 0.740997 35.9333C0.6012 35.8337 0.435957 35.7334 0.292844 35.6087C0.102934 35.4434 0.0594929 35.228 0.167322 34.9988C0.439934 34.4203 0.719545 33.8446 0.995963 33.2679C1.12004 33.009 1.3303 32.901 1.61181 32.8953C1.95335 32.8885 2.33351 32.9551 2.62481 32.8267C2.90147 32.7045 3.08371 32.3706 3.31028 32.1324C4.09489 31.3072 4.96708 30.5968 5.99919 30.0985C6.0325 30.0824 6.06441 30.0621 6.0747 30.0563C5.69744 30.0563 5.30295 30.0612 4.90872 30.0544C4.60746 30.0491 4.42973 29.9195 4.35662 29.6278C4.31615 29.4661 4.30524 29.2891 4.32034 29.1228C4.3616 28.6696 4.50457 28.251 4.80379 27.896C4.99519 27.6691 5.25106 27.561 5.53339 27.5381C6.08214 27.4935 6.63301 27.4723 7.18283 27.44C7.51433 27.4206 7.84584 27.3987 8.20367 27.3762C7.7807 26.411 7.7026 25.4216 7.94478 24.3686C7.25507 24.0854 6.56769 23.7983 5.87661 23.5204C4.20626 22.8485 2.53373 22.181 0.862596 21.511C0.455515 21.3478 0.0803912 21.1315 0.0113999 20.654C-0.0188276 20.4445 0.0120005 20.2014 0.0918125 20.0048C0.702994 18.4998 1.33216 17.0017 1.95797 15.5027C2.30441 14.6728 2.65536 13.8448 3.00726 13.0089C2.82869 12.8437 2.8107 12.6562 2.90429 12.4274C3.16657 11.7868 3.40475 11.1363 3.66625 10.4955C3.88175 9.96753 4.52087 9.64374 5.08425 9.77963C5.60669 9.90565 6.1222 10.0611 6.64347 10.1925C6.71672 10.2109 6.83581 10.1951 6.88275 10.1464C7.7392 9.25629 8.76563 9.18374 9.87763 9.50898C10.6672 9.73999 11.361 10.1109 11.8369 10.8181C12.1469 11.2788 12.275 11.7811 12.2429 12.345C12.9079 12.5878 13.5701 12.8291 14.2317 13.0716C14.3903 13.1298 14.5445 13.201 14.7053 13.2521C15.0752 13.3696 15.3692 13.5742 15.5202 13.9199C16.1079 13.761 16.6837 13.6055 17.2648 13.4482C16.7315 12.4936 16.5248 11.4845 16.9608 10.421C16.6813 10.1637 16.6771 9.80589 16.5901 9.48838C16.4624 9.02178 16.3731 8.54433 16.2606 8.03998C15.9672 8.00799 15.6615 7.98599 15.3594 7.93995C14.4235 7.79724 13.5833 6.92878 13.457 5.99828C13.2595 4.54345 13.8883 3.46509 15.0407 2.67587C16.1372 1.92504 17.3715 1.69398 18.6877 1.90999C18.7814 1.9254 18.9015 1.88785 18.9858 1.83644C19.8149 1.33125 20.638 0.818508 21.5482 0.461585C22.5097 0.0845826 23.5076 -0.0552069 24.5274 0.0193159ZM4.43115 38.5036C4.39176 38.5047 4.32535 38.6096 4.32132 38.6693C4.24669 39.8147 4.64122 40.7524 5.60301 41.4053C6.722 42.1647 8.34956 42.1045 9.57461 41.2798C9.99127 40.9992 10.3427 40.6499 10.67 40.2207C10.5392 40.2207 10.4543 40.2194 10.3699 40.2207C9.33773 40.2362 8.30512 40.2517 7.27304 40.2678C6.86597 40.274 6.54054 40.1015 6.28358 39.799C5.9544 39.4116 5.87983 38.9608 5.98841 38.4967L5.2088 38.4957C4.94929 38.4962 4.69009 38.498 4.43115 38.5036ZM36.1519 32.0196C35.614 31.9635 35.0708 31.9981 34.5456 32.2108C34.7584 32.6354 34.9669 33.0512 35.1683 33.4533C35.2932 33.4358 35.3845 33.4158 35.4763 33.4121C36.7488 33.3606 37.6362 34.4361 37.6631 35.5264C37.6883 36.5525 37.2158 37.3463 36.3814 37.9093C35.3444 38.6089 34.0075 38.3656 33.3522 37.37C32.9278 36.7247 32.8987 36.0275 33.1718 35.3106C33.1983 35.2409 33.2196 35.1372 33.1875 35.0821C32.9778 34.723 32.7525 34.3726 32.5157 33.9926C32.4768 34.0431 32.4619 34.0615 32.449 34.0809C31.8063 35.0495 31.5038 36.1004 31.7998 37.2484C32.2522 39.0025 33.7162 39.7976 35.289 39.646C36.2917 39.5493 37.1398 39.0767 37.8396 38.3535C38.9244 37.2323 39.3008 35.9062 38.9173 34.3908C38.5959 33.1215 37.4699 32.157 36.1519 32.0196ZM6.70133 39.1371C6.90395 39.5093 7.22139 39.6184 7.58293 39.6107C8.6612 39.5879 9.73949 39.5578 10.8171 39.5146C11.0117 39.5068 11.216 39.4498 11.3927 39.3665C11.5466 39.294 11.6679 39.1521 11.8036 39.041L11.7634 38.9929C10.0905 39.0404 8.41708 39.0883 6.70133 39.1371ZM28.6863 23.4841C28.2883 23.8973 28.1244 24.317 28.2539 24.8589C28.5236 25.988 28.7767 27.1218 29.005 28.2598C29.1384 28.9246 29.1124 29.6004 29.0129 30.2731C28.8808 31.1667 28.551 31.995 28.1881 32.8119C27.7155 33.8764 27.193 34.9083 26.3034 35.7048C25.5164 36.4094 24.6066 36.8649 23.5634 36.9895C22.7412 37.0877 21.9081 37.0979 21.0795 37.1405C20.5988 37.1653 20.1171 37.1779 19.636 37.1954C18.3865 37.241 17.1367 37.2897 15.887 37.3298C15.5909 37.3392 15.447 37.2088 15.4702 36.9061C15.5056 36.4471 15.5746 35.9891 15.6536 35.5352C15.6857 35.3507 15.7301 35.1974 15.5761 35.037C15.492 34.9493 15.4525 34.8075 15.4202 34.683C15.2271 33.941 15.3189 33.2204 15.6634 32.5462C16.0466 31.7961 16.18 30.9782 16.4058 30.1377C16.0664 30.1377 15.7544 30.1577 15.4467 30.1338C14.629 30.0703 13.8135 29.9664 12.9951 29.9191C12.2204 29.8742 11.4402 29.8356 10.667 29.8779C9.8918 29.9202 9.10095 29.9853 8.35371 30.1809C5.78986 30.8519 3.78487 32.3427 2.37376 34.5771C1.81337 35.4645 1.40273 36.447 0.925357 37.3866C0.874049 37.4876 0.786919 37.6201 0.947912 37.6789C1.08361 37.7283 1.25222 37.7643 1.33036 37.5504C1.41491 37.3192 1.5151 37.0933 1.61671 36.8689C2.45792 35.0098 3.66006 33.4408 5.38629 32.3236C7.31259 31.077 9.40712 30.5334 11.6948 30.9899C12.7426 31.199 13.6067 31.7338 14.1973 32.6443C14.632 33.3143 14.8023 34.0654 14.825 34.8615C14.8558 35.9463 14.6025 36.9409 13.964 37.8279C13.9355 37.8677 13.9215 37.9181 13.8904 37.9858C14.3444 37.9858 14.7717 37.9953 15.1986 37.9848C17.6605 37.9242 20.1228 37.8717 22.5838 37.7867C23.3147 37.7615 24.0562 37.7022 24.7687 37.5475C26.3285 37.2087 27.5975 36.4094 28.2892 34.9125C28.7241 33.971 29.0737 32.9899 29.4561 32.0245C29.8218 31.1014 30.2411 30.2093 30.8986 29.4503C31.1408 29.1709 31.3826 28.8902 31.6322 28.6011C30.6842 26.9547 29.6921 25.231 28.6863 23.4841ZM10.6572 31.5959C9.26274 31.4983 7.94323 31.8098 6.69251 32.4138C5.26639 33.1025 4.13478 34.1363 3.23182 35.4293C2.74951 36.1201 2.35759 36.8575 2.07663 37.6485C2.09346 37.6616 2.09942 37.6699 2.10507 37.67C3.50196 37.649 4.89973 37.635 6.29633 37.6034C7.14969 37.584 8.00293 37.5413 8.8558 37.5033C10.1033 37.4479 11.3502 37.379 12.5979 37.3317C13.1929 37.3092 13.5968 37.0429 13.7855 36.4815C14.0262 35.7649 14.0822 35.028 13.963 34.2849C13.8704 33.7077 13.6682 33.1724 13.2657 32.7256C12.5669 31.9497 11.6531 31.6658 10.6572 31.5959ZM35.4655 34.0368C35.5892 34.2921 35.7027 34.5258 35.8156 34.7595C35.9331 35.0029 36.0553 35.2448 36.1666 35.4911C36.4242 36.0616 36.1638 36.7105 35.5841 36.9542C35.0485 37.1793 34.5392 37.0152 34.1701 36.4972C34.0133 36.2772 33.8579 36.0562 33.6837 35.8098C33.4793 36.7623 34.1063 37.841 35.3861 37.6436C36.4825 37.4745 37.2533 36.2235 36.9619 35.1517C36.7799 34.4824 36.1151 33.975 35.4655 34.0368ZM27.4527 23.9656C27.2119 24.018 26.9879 24.1087 26.7672 24.1019C26.5955 24.0965 26.464 24.1191 26.3132 24.196C25.9588 24.3766 25.5941 24.3948 25.2247 24.2088C25.1341 24.1632 25.0051 24.1528 24.905 24.1754C24.6156 24.2408 24.3218 24.2644 24.0724 24.1029C23.8818 23.9795 23.7091 23.9427 23.5252 23.9989C23.4184 24.2604 23.3261 24.5127 23.2134 24.755C23.1084 24.9805 22.9103 25.1164 22.672 25.1463C22.1658 25.2093 21.655 25.2892 21.1481 25.2777C20.803 25.2698 20.6912 25.4591 20.546 25.6837C21.1581 25.9719 21.6824 26.3386 22.0513 26.9036C22.7041 27.9031 22.7528 28.9874 22.4239 30.0818C21.9973 31.5009 21.4932 32.8972 21.0393 34.3084C20.9568 34.5647 20.8275 34.6659 20.5735 34.6232C20.3277 34.582 20.2238 34.6901 20.2322 34.935C20.3451 34.9565 20.4518 34.9718 20.5558 34.9978C21.1066 35.1354 21.6623 35.2575 22.2053 35.4214C22.5788 35.5342 22.7889 35.814 22.7966 36.2726C23.0394 36.2512 23.2615 36.2374 23.4821 36.2108C24.6254 36.0731 25.5569 35.5504 26.2837 34.6595C26.9971 33.7852 27.4242 32.7606 27.8322 31.7244C28.3499 30.4091 28.4673 29.0738 28.1636 27.6832C27.8936 26.4466 27.4537 25.2408 27.4527 23.9656ZM33.0511 32.9414C33.5257 33.843 33.9858 34.724 34.4525 35.6009C34.5426 35.7702 34.6439 35.9369 34.7633 36.0863C34.8801 36.2323 35.0327 36.3342 35.2233 36.1873C35.4059 36.0465 35.3841 35.8899 35.2782 35.7039C34.9084 35.0544 34.55 34.3981 34.1877 33.7445C33.9697 33.3512 33.7525 32.9574 33.5287 32.5521C33.3559 32.6931 33.2069 32.8143 33.0511 32.9414ZM38.8967 29.7514C37.2918 28.6419 35.5308 28.3527 33.6444 28.7766C32.2315 29.0942 31.2409 29.9565 30.678 31.2674C30.0874 32.6429 29.5658 34.0487 28.9972 35.4842C29.5032 35.2637 29.9202 34.9787 30.2495 34.5771C30.5583 34.2004 30.848 33.8076 31.1624 33.4356C32.1328 32.2879 33.2731 31.3507 34.627 30.6849C35.3072 30.3505 36.0137 30.0835 36.7717 30.0112C37.4191 29.9495 38.0713 29.937 38.7212 29.9014C38.8098 29.8965 38.8981 29.8838 38.983 29.8749C38.983 29.8383 38.9864 29.8273 38.983 29.8239C38.9553 29.7987 38.9276 29.7726 38.8967 29.7514ZM1.97464 33.7563C1.75299 33.6712 1.61179 33.7184 1.51864 33.9446C1.37596 34.2908 1.20702 34.6263 1.05382 34.9684C1.02763 35.0269 1.02481 35.0962 1.01165 35.1606C1.03347 35.1649 1.05555 35.169 1.07736 35.1733C1.37539 34.7026 1.67369 34.2317 1.97464 33.7563ZM8.66065 24.1548C8.62797 24.6422 8.5572 25.1487 8.56945 25.6533C8.58526 26.296 8.81109 26.8839 9.28238 27.339C9.80084 27.8395 10.4364 28.161 11.1024 28.4177C12.1669 28.8279 13.2781 29.0286 14.4111 29.1198C15.4459 29.2031 16.4832 29.3525 17.456 29.0169C17.1804 30.5441 16.9022 32.0855 16.6195 33.6524L16.8402 33.6818C17.9427 33.7038 19.0452 33.7282 20.1479 33.7386C20.2156 33.7393 20.323 33.6432 20.3469 33.571C20.7745 32.2807 21.2166 30.9942 21.6031 29.6915C21.8242 28.9466 21.7952 28.1843 21.3649 27.4998C20.9706 26.8727 20.3658 26.4974 19.6929 26.2269C18.8167 25.8748 17.8985 25.744 16.9598 25.7023C16.0342 25.6612 15.1177 25.7229 14.2091 25.8886C13.5996 25.9997 12.9965 26.1459 12.3155 26.2926C12.6139 26.0508 12.8646 25.8477 13.0863 25.668C12.3428 25.4693 11.5803 25.3077 10.8485 25.058C10.1187 24.8091 9.41904 24.4724 8.66065 24.1548ZM7.9085 28.3343C7.21796 28.3357 6.52646 28.3379 5.83739 28.3765C5.43315 28.3992 5.18262 28.76 5.22154 29.1865C6.47716 29.1561 7.7177 29.1255 8.96269 29.0953C8.72192 28.8806 8.49315 28.6613 8.24682 28.4648C8.1558 28.3921 8.0223 28.334 7.9085 28.3343ZM17.0187 14.3327C16.1621 14.5435 15.3533 14.8736 14.6014 15.3389C13.3045 16.1414 12.237 17.1901 11.3251 18.4024C10.2884 19.7806 9.47372 21.2751 8.97053 22.933C8.91679 23.1099 8.97044 23.1831 9.10194 23.2693C10.7263 24.334 12.5354 24.8117 14.4504 24.9129C15.3184 24.9587 16.1913 24.9184 17.0618 24.9246C17.3198 24.9265 17.5775 24.9547 17.8355 24.9707C17.8172 24.9231 17.7927 24.906 17.7659 24.8972C17.068 24.6672 16.472 24.273 15.9517 23.7616C14.9561 22.7831 14.1645 21.6726 13.7649 20.3156C13.6221 19.8306 13.5902 19.2162 13.6874 18.9143C14.2352 20.2551 14.9897 21.4612 15.937 22.5466C16.5842 23.288 17.3169 23.918 18.3023 24.145C18.8118 24.2625 19.3375 24.3347 19.8596 24.3667C20.5325 24.4079 21.2095 24.3891 21.8846 24.3941C21.9036 24.3942 21.9228 24.3717 21.9454 24.3578C21.8298 23.2221 21.8692 22.1079 22.4181 21.0452C20.99 20.9726 19.5941 20.622 18.1366 20.9952C18.4765 20.5539 18.8888 20.3051 19.3467 20.0842C18.788 18.7748 18.2828 17.4432 17.3844 16.2823L17.5462 16.346C18.0522 16.5979 18.4667 16.9728 18.7505 17.4453C19.1653 18.136 19.5321 18.8578 19.8802 19.5851C20.017 19.8711 20.1587 20.0436 20.4891 19.9822C20.5031 19.9796 20.5167 19.9749 20.5529 19.9655C20.5326 19.2832 20.9293 18.8797 21.5531 18.625C21.3533 18.4952 21.1829 18.3931 21.0216 18.2788C20.0213 17.5706 19.2711 16.6135 18.469 15.7076C18.0832 15.2718 17.6916 14.8405 17.2913 14.4181C17.2327 14.3564 17.0993 14.313 17.0187 14.3327ZM27.7488 21.2237C27.1732 20.5789 26.4607 20.4474 25.6601 20.6481C24.9306 20.831 24.2043 21.0282 23.4781 21.2237C23.3712 21.2524 23.235 21.2778 23.1741 21.3541C22.7272 21.9155 22.6132 22.5713 22.6593 23.2762C22.8199 23.2762 22.967 23.2831 23.1124 23.2742C23.2648 23.2649 23.4163 23.2409 23.5664 23.2232C23.5752 22.3862 24.2535 22.1012 24.8559 22.173C25.1409 22.207 25.3821 22.3437 25.5649 22.5721C25.8176 22.8882 25.8032 23.2386 25.662 23.642C25.7791 23.6299 25.864 23.6394 25.9327 23.6106C26.2489 23.4778 26.4167 23.2256 26.423 22.8898C26.4339 22.3081 26.1413 21.8595 25.7434 21.462C26.0349 21.4621 26.273 21.5708 26.473 21.7719C26.905 22.2063 27.0259 22.729 26.8868 23.3331C27.2635 23.1461 27.4073 22.795 27.2634 22.3014C27.1566 21.9354 26.9768 21.5907 26.8349 21.2482C27.3819 21.3047 27.69 21.7982 27.8351 22.8928C28.1684 22.5106 28.1139 21.6327 27.7488 21.2237ZM3.44953 13.7895C2.57684 15.9009 1.70371 18.0124 0.832196 20.1244C0.66967 20.5182 0.682849 20.5772 1.07834 20.7569C1.48425 20.9412 1.90132 21.1016 2.31689 21.2639C3.97844 21.9129 5.64214 22.558 7.3515 23.2232C8.51117 20.7524 9.66422 18.2946 10.8338 15.8027C8.42405 14.9354 6.0628 14.0851 3.6888 13.2305C3.59959 13.438 3.52256 13.6129 3.44953 13.7895ZM31.3066 19.3056C30.2156 19.5431 29.214 19.9048 28.4765 20.8315C29.1238 21.0578 29.3693 21.5411 29.4659 22.1298C29.5009 22.3433 29.5165 22.5605 29.5552 22.7731C29.5649 22.8255 29.6209 22.8946 29.6699 22.9104C30.2922 23.111 30.9326 23.1962 31.6076 23.1958C31.119 21.9126 30.9726 20.6411 31.3066 19.3056ZM32.1646 19.3517C31.9553 19.5425 31.8351 19.7538 31.8391 20.0136C31.8472 20.53 31.8256 21.0531 31.8989 21.5611C31.9557 21.9543 32.1229 22.3355 32.2745 22.7084C32.3184 22.8165 32.4785 22.8779 32.5853 22.9604C32.6634 22.8513 32.7724 22.7525 32.8138 22.6309C33.05 21.936 32.9917 21.2333 32.8227 20.5353C32.7147 20.0896 32.5411 19.6757 32.1646 19.3517ZM21.461 19.3968C21.1743 19.543 21.1197 19.6698 21.1874 20.044C21.3213 19.9536 21.4384 19.857 21.5698 19.789C21.7584 19.6917 21.8781 19.7655 21.9013 19.9724C21.9061 20.016 21.9169 20.0592 21.9238 20.0989C22.0896 20.1207 22.2405 20.141 22.3896 20.1607V18.9359C22.0494 19.1044 21.7535 19.2475 21.461 19.3968ZM10.9328 17.6061C10.9409 17.6082 10.9492 17.61 10.9573 17.612C11.3128 17.1887 11.6681 16.7653 12.035 16.3284C11.8517 16.257 11.6972 16.1974 11.53 16.1322L10.9328 17.6061ZM26.3759 8.4999C25.499 8.49102 24.6208 8.48025 23.7547 8.64209C22.9845 8.78596 22.2179 8.94875 21.4521 9.11476C21.3899 9.12829 21.3029 9.22841 21.3011 9.29029C21.2874 9.8805 21.2886 10.4718 21.2874 11.0623C21.2862 11.588 21.2874 12.1137 21.2874 12.6509C20.7884 12.5943 20.4573 12.3695 20.2734 11.9066C20.107 11.4876 19.9251 11.0676 19.6919 10.6838C19.5098 10.3842 19.1854 10.2036 18.823 10.2415C18.2994 10.2963 17.9253 10.7608 17.8855 11.2918C17.8352 11.9626 18.0967 12.5152 18.5082 13.0099C18.9076 13.4897 19.3959 13.6924 20.0076 13.4188C20.0346 13.4068 20.0672 13.4057 20.1047 13.3982C20.1406 13.5369 20.1722 13.6705 20.2097 13.8022C20.8639 16.1009 23.2641 17.2459 25.3816 16.8442C25.9232 16.7414 26.3113 16.3964 26.5652 15.9126C26.5459 15.8914 26.5412 15.8817 26.5368 15.8812C26.4748 15.8822 26.4124 15.8852 26.3504 15.8861C25.7845 15.8947 25.3038 15.6758 24.9952 15.2183C24.8282 14.9706 24.6529 14.8418 24.3793 14.8054C24.3487 14.8014 24.3166 14.801 24.2872 14.7927C23.56 14.5861 23.0402 14.1631 22.8574 13.4002C22.8016 13.1671 22.7952 12.9329 23.0202 12.7696C23.1368 12.685 23.2271 12.6427 23.3252 12.8304C23.496 13.1572 23.7827 13.3323 24.1656 13.356C24.7227 13.3905 25.2105 13.1896 25.6757 12.9265C25.8094 12.851 25.9249 12.7075 25.9984 12.5686C26.1263 12.3266 26.2436 12.228 26.4887 12.2469C26.2556 12.6872 26.333 12.879 26.8094 13.0383C27.2219 13.1763 27.6429 13.2001 28.0665 13.1069C28.6837 12.9712 28.8343 12.5294 28.4078 12.0586C28.2176 11.8487 27.9774 11.6814 27.7488 11.5095C27.4545 11.2881 27.271 10.9996 27.2252 10.6406C27.1624 10.1494 27.1525 9.65049 27.0722 9.16281C26.9629 8.49886 27.0678 8.50692 26.3759 8.4999ZM19.7066 14.116C19.2303 14.2948 18.7604 14.2785 18.2739 14.1396C18.9053 14.8667 19.5227 15.5773 20.14 16.2881C19.8897 15.5794 19.6246 14.8907 19.7066 14.116ZM11.885 15.3153C12.1665 15.4304 12.4354 15.54 12.6852 15.6419C13.3366 15.1977 13.9679 14.7671 14.6249 14.319C14.2154 13.6632 13.4394 13.6551 12.8186 13.3315C12.5002 14.008 12.196 14.6545 11.885 15.3153ZM27.2595 14.473C26.7176 14.8385 26.1177 14.9329 25.4541 14.9447C26.3171 15.6246 26.9878 15.4723 27.2595 14.473ZM5.06072 10.5485C4.73264 10.4407 4.51061 10.5568 4.36643 10.8721C4.17124 11.2987 3.98512 11.7294 3.79569 12.1587C3.75667 12.2471 3.71891 12.3369 3.68096 12.4254C6.17424 13.2947 8.64415 14.1554 11.1328 15.0231C11.4384 14.3725 11.7453 13.7194 12.0615 13.0461C11.9972 13.0183 11.9484 12.9954 11.8987 12.9765C10.9008 12.5958 9.90958 12.196 8.90287 11.84C7.62926 11.3895 6.34428 10.97 5.06072 10.5485ZM18.4504 11.3477C18.4519 11.0461 18.738 10.8835 19.0839 10.9956C19.3562 11.0839 19.5708 11.2658 19.6536 11.532C19.7736 11.918 19.8422 12.3198 19.94 12.7461C19.5323 12.7309 19.1758 12.482 19.0525 12.1508C19.1272 12.1229 19.2023 12.0945 19.3349 12.0449C19.245 11.8684 19.1727 11.6863 19.0652 11.5291C18.9644 11.3822 18.8131 11.4521 18.6877 11.5114C18.5039 11.5984 18.4495 11.5185 18.4504 11.3477ZM8.90287 10.1788C8.48955 10.1748 8.16086 10.3761 7.87025 10.6652C8.99521 11.0818 10.0971 11.4901 11.2191 11.9057C11.2056 11.533 11.0951 11.2091 10.8445 10.9515C10.3151 10.4069 9.64594 10.186 8.90287 10.1788ZM25.4904 10.5936C25.7586 10.5914 26.0345 10.6 26.2092 10.8348C26.2799 10.9299 26.3284 11.099 26.2936 11.2025C26.2414 11.3561 26.0832 11.2748 25.9739 11.2329C25.6501 11.1091 25.3381 11.1143 25.0462 11.3104C24.9031 11.4065 24.7287 11.4245 24.6569 11.2947C24.5999 11.1911 24.6268 10.9826 24.699 10.878C24.884 10.6099 25.1914 10.5926 25.4904 10.5936ZM25.4551 9.13731C25.6443 9.1452 25.7786 9.17016 25.9356 9.20596C26.159 9.25698 26.2789 9.42673 26.2367 9.62861C26.1939 9.83238 26.0119 9.87888 25.8581 9.84632C25.2581 9.71862 24.7369 9.93037 24.2166 10.1768C24.1519 10.2072 24.03 10.2166 23.992 10.1788C23.9332 10.1199 23.8985 10.0121 23.8978 9.92477C23.8957 9.63518 24.0513 9.44287 24.3254 9.36874C24.694 9.26927 25.0054 9.11868 25.4551 9.13731ZM25.5434 5.61976C24.6305 5.64151 23.7142 5.66708 22.8074 5.76587C21.728 5.88362 20.6711 6.15065 19.6497 6.519C18.8176 6.81917 18.0085 7.18351 17.1912 7.52416C17.0791 7.57086 16.9733 7.63047 17.002 7.7958C17.1093 8.41039 17.2077 9.02699 17.3099 9.64627C20.3903 8.43746 23.5131 7.60995 26.8417 7.77618C26.7023 7.20707 26.5671 6.6395 26.421 6.07477C26.3965 5.97975 26.3442 5.84633 26.271 5.81784C26.0369 5.72635 25.7854 5.614 25.5434 5.61976ZM26.3514 1.43732C25.2048 0.678649 23.9484 0.649914 22.6534 0.921505C21.7559 1.10981 20.979 1.56666 20.1989 2.01688C19.9785 2.14409 19.7508 2.2618 19.5399 2.40325C19.0666 2.72048 18.5543 2.67232 18.0218 2.63174C16.76 2.53578 15.6747 2.94348 14.824 3.89775C14.3013 4.4842 14.0738 5.18546 14.2258 5.95808C14.4209 6.94938 15.4917 7.48162 16.4283 7.0309C17.1008 6.70731 17.7626 6.33221 18.3582 5.88551C19.1177 5.31596 19.9557 4.9252 20.8167 4.56164C20.8301 4.55599 20.8506 4.56624 20.9442 4.58224C20.5076 4.97285 20.1134 5.32514 19.7193 5.67761C19.7914 5.7009 19.8376 5.69636 19.8811 5.68252C20.7346 5.41182 21.6071 5.23435 22.4975 5.13826C22.9649 5.08784 23.4365 5.04415 23.8939 4.94213C24.5163 4.80331 24.965 4.37994 25.3688 3.91148C25.4589 3.80686 25.5306 3.68631 25.6355 3.53687C25.671 4.08613 25.4279 4.48978 25.1894 4.87251C25.6455 4.93523 26.0866 4.99612 26.5711 5.06275L26.8192 4.797C26.9051 4.70398 26.9905 4.60565 27.0634 4.49888C27.736 3.51319 27.4197 2.1443 26.3514 1.43732Z" fill="black"/>
</svg>
