<svg width="4" height="4" viewBox="0 0 4 4" fill="none" xmlns="http://www.w3.org/2000/svg">
<path id="*" d="M0.283026 3.03514C0.20679 2.87314 0.140083 2.75402 0.0829065 2.67778C0.0352591 2.59202 0.0447886 2.53484 0.111495 2.50625C0.292555 2.43002 0.483145 2.30137 0.683264 2.12031C0.721382 2.09172 0.735676 2.04884 0.726146 1.99166C0.716617 1.94401 0.692793 1.91066 0.654675 1.8916C0.397379 1.77725 0.187731 1.63907 0.0257296 1.47707C-0.00285885 1.44848 -0.00762358 1.41036 0.0114354 1.36272C0.0495533 1.27695 0.11626 1.15783 0.211554 1.00536C0.316379 0.852889 0.392615 0.73377 0.440262 0.648005C0.47838 0.562239 0.526027 0.54318 0.583204 0.590828C0.726146 0.705181 0.907207 0.795711 1.12638 0.862418C1.17403 0.881477 1.21691 0.876712 1.25503 0.848124C1.29315 0.819535 1.30744 0.776652 1.29792 0.719476C1.26933 0.471709 1.28362 0.257296 1.3408 0.0762358C1.35033 0.0381178 1.37892 0.0190587 1.42656 0.0190587C1.54092 1.10653e-08 1.6648 -0.00476468 1.79821 0.00476467C2.12222 0.0428827 2.34616 0.0571767 2.47004 0.0476468C2.50816 0.0476468 2.53675 0.0571765 2.55581 0.0762358C2.5844 0.0952945 2.59869 0.119118 2.59869 0.147707C2.56057 0.300178 2.55104 0.466944 2.5701 0.648005C2.5701 0.695652 2.59392 0.729005 2.64157 0.748064C2.69875 0.776653 2.7464 0.771888 2.78451 0.73377C2.9751 0.600357 3.16093 0.514592 3.34199 0.476474C3.37058 0.466944 3.39917 0.481239 3.42775 0.519357C3.51352 0.614651 3.59452 0.762358 3.67076 0.962477C3.75652 1.1626 3.84229 1.31983 3.92805 1.43419C3.98523 1.51995 3.9757 1.57236 3.89946 1.59142C3.75652 1.62954 3.61358 1.70101 3.47064 1.80584C3.43252 1.83442 3.41346 1.87731 3.41346 1.93448C3.42299 1.98213 3.45158 2.01548 3.49923 2.03454C3.68981 2.12984 3.84229 2.23943 3.95664 2.36331C3.98523 2.3919 3.98999 2.42525 3.97093 2.46337C3.92329 2.58725 3.83276 2.73496 3.69934 2.90649C3.56593 3.07802 3.47064 3.22573 3.41346 3.34961C3.3944 3.38773 3.37058 3.41155 3.34199 3.42108C3.3134 3.43061 3.28958 3.42585 3.27052 3.40679C3.14663 3.29244 2.98463 3.19714 2.78451 3.1209C2.73687 3.09232 2.69398 3.09708 2.65587 3.1352C2.61775 3.16379 2.59869 3.20191 2.59869 3.24955C2.60822 3.48779 2.58916 3.7165 2.54151 3.93567C2.53198 3.96426 2.50339 3.98332 2.45575 3.99285C2.36045 4.00238 2.22227 4.00238 2.04121 3.99285C1.86015 3.97379 1.71721 3.96903 1.61239 3.97856C1.5838 3.97856 1.55521 3.97379 1.52662 3.96426C1.49803 3.9452 1.4885 3.91662 1.49803 3.8785C1.52662 3.67838 1.50756 3.4592 1.44086 3.22096C1.43133 3.17332 1.4075 3.13996 1.36939 3.1209C1.32174 3.10185 1.27886 3.10661 1.24074 3.1352C1.03109 3.27814 0.816676 3.3782 0.597498 3.43538C0.55938 3.44491 0.526027 3.43061 0.497439 3.39249C0.440262 3.31626 0.368791 3.19714 0.283026 3.03514Z" fill="black"/>
</svg>
