<svg width="30" height="9" viewBox="0 0 30 9" fill="none" xmlns="http://www.w3.org/2000/svg">
<g id="Food">
<path id="Vector" d="M27.8153 5.56772C28.028 5.35502 28.1589 5.08506 28.208 4.75783C28.2571 4.42242 28.2489 4.11973 28.1835 3.84976C28.1262 3.5798 28.0403 3.33029 27.9258 3.10122C27.7622 2.79036 27.5331 2.56948 27.2386 2.43858C26.9523 2.29951 26.58 2.18498 26.1219 2.09499C25.7865 2.04591 25.4061 1.99273 24.9807 1.93547C24.9398 1.92729 24.903 1.93956 24.8703 1.97228C24.8457 1.99682 24.8375 2.02955 24.8457 2.07045C24.8948 2.39768 24.9275 2.65537 24.9439 2.84353C24.9684 3.03169 24.9807 3.28938 24.9807 3.61661C24.9807 3.93566 24.9562 4.24653 24.9071 4.54922C24.8825 4.67193 24.8621 4.79464 24.8457 4.91735C24.8375 5.04006 24.8335 5.17096 24.8335 5.31003C24.8335 5.44092 24.8335 5.55136 24.8335 5.64135C24.8335 5.72316 24.8375 5.84587 24.8457 6.00948C24.8621 6.16492 24.8703 6.26718 24.8703 6.31626C24.8784 6.36535 24.8948 6.48397 24.9193 6.67212C24.9439 6.8521 24.9562 6.95436 24.9562 6.9789C24.9643 7.05253 25.0052 7.08525 25.0789 7.07707C25.3488 7.05253 25.5943 7.01163 25.8151 6.95436C26.036 6.8971 26.216 6.83983 26.3551 6.78256C26.5023 6.7253 26.6537 6.6394 26.8091 6.52487C26.9727 6.40216 27.0913 6.30808 27.165 6.24264C27.2386 6.16901 27.349 6.05448 27.4963 5.89904C27.6435 5.74361 27.7499 5.63317 27.8153 5.56772ZM23.0296 4.53695C23.1359 3.95611 23.1646 3.1953 23.1155 2.25452C23.0746 1.31373 23.0991 0.606094 23.1891 0.13161C23.1891 0.13161 23.1891 0.12752 23.1891 0.119339C23.2137 0.0457126 23.2546 0.00889917 23.3118 0.00889917C24.2035 -0.0238239 25.2752 0.0620742 26.5269 0.266593C27.2959 0.413847 27.9299 0.634727 28.4289 0.929235C28.7152 1.11739 28.9525 1.31782 29.1406 1.53052C29.3288 1.74322 29.5006 2.00091 29.656 2.3036V2.31587C29.8932 2.83944 30.0078 3.43255 29.9996 4.09519C29.9996 4.42242 29.9914 4.70056 29.9751 4.92962C29.9587 5.15868 29.9014 5.42456 29.8033 5.72725C29.7133 6.02994 29.5865 6.26718 29.4229 6.43897C29.3656 6.49624 29.2674 6.61077 29.1283 6.78256C28.9975 6.95436 28.8747 7.1098 28.7602 7.24887C28.6457 7.37976 28.4657 7.53519 28.2203 7.71517C27.983 7.89515 27.7213 8.04649 27.4349 8.1692C27.1486 8.28373 26.7723 8.38599 26.306 8.47598C25.8479 8.55779 25.3366 8.59869 24.7721 8.59869C24.6903 8.59869 24.4367 8.58642 24.0113 8.56188C23.5859 8.53734 23.3486 8.53734 23.2996 8.56188C23.2423 8.57006 23.1932 8.56188 23.1523 8.53734C23.1114 8.50461 23.095 8.4678 23.1032 8.4269C23.1523 8.07512 23.1482 7.67427 23.091 7.22433C23.0419 6.7662 22.9928 6.36535 22.9437 6.02175C22.9028 5.67816 22.9314 5.18323 23.0296 4.53695Z" fill="black"/>
<path id="Vector_2" d="M16.9653 6.32892C16.9735 6.32892 16.9776 6.32892 16.9776 6.32892C17.1412 6.51708 17.3375 6.65615 17.5666 6.74614H17.5788C17.8079 6.82795 18.0861 6.86885 18.4133 6.86885C18.7487 6.86885 19.035 6.82795 19.2723 6.74614H19.2845C19.5136 6.65615 19.7099 6.51708 19.8735 6.32892C20.2171 5.91171 20.3808 5.34723 20.3644 4.63551C20.3317 3.80107 20.1926 3.13025 19.9472 2.62304V2.61077C19.8326 2.40625 19.7058 2.24673 19.5668 2.1322V2.11992C19.4032 1.99721 19.2068 1.9195 18.9778 1.88677V1.8745C18.6096 1.84178 18.2415 1.84178 17.8734 1.8745V1.88677C17.6443 1.9195 17.448 1.99721 17.2843 2.11992V2.1322C17.1371 2.25491 17.0103 2.41443 16.9039 2.61077V2.62304C16.6585 3.13025 16.5153 3.80107 16.4744 4.63551C16.4663 5.34723 16.6299 5.91171 16.9653 6.32892ZM14.6092 4.8073V4.79503C14.6174 3.5352 14.8342 2.48806 15.2596 1.65362V1.64135C15.5214 1.18323 15.8568 0.806913 16.2658 0.512405C16.5767 0.307887 16.8958 0.176995 17.223 0.119729C17.5584 0.0542829 17.9552 0.0215598 18.4133 0.0215598C18.8796 0.0215598 19.2764 0.0542829 19.6036 0.119729C19.939 0.176995 20.2621 0.307887 20.573 0.512405H20.5853C20.9861 0.806913 21.3174 1.18732 21.5792 1.65362H21.5915C22.0169 2.49624 22.2296 3.54338 22.2296 4.79503V4.8073C22.2214 5.3636 22.1396 5.85853 21.9842 6.29211C21.8369 6.71751 21.5874 7.13064 21.2356 7.5315V7.54377C20.8757 7.9119 20.4585 8.19005 19.984 8.3782C19.5668 8.52546 19.0473 8.59908 18.4256 8.59908C17.8038 8.59908 17.2802 8.52546 16.8548 8.3782C16.3804 8.19005 15.9631 7.9119 15.6032 7.54377V7.5315C15.2514 7.13064 14.9978 6.71751 14.8424 6.29211C14.6951 5.85853 14.6174 5.3636 14.6092 4.8073Z" fill="black"/>
<path id="Vector_3" d="M8.81779 6.32892C8.82597 6.32892 8.83007 6.32892 8.83007 6.32892C8.99368 6.51708 9.19002 6.65615 9.41908 6.74614H9.43135C9.66041 6.82795 9.93856 6.86885 10.2658 6.86885C10.6012 6.86885 10.8875 6.82795 11.1248 6.74614H11.137C11.3661 6.65615 11.5624 6.51708 11.7261 6.32892C12.0696 5.91171 12.2333 5.34723 12.2169 4.63551C12.1842 3.80107 12.0451 3.13025 11.7997 2.62304V2.61077C11.6851 2.40625 11.5583 2.24673 11.4193 2.1322V2.11992C11.2557 1.99721 11.0593 1.9195 10.8303 1.88677V1.8745C10.4621 1.84178 10.094 1.84178 9.72586 1.8745V1.88677C9.4968 1.9195 9.30046 1.99721 9.13684 2.11992V2.1322C8.98959 2.25491 8.86279 2.41443 8.75644 2.61077V2.62304C8.51102 3.13025 8.36785 3.80107 8.32695 4.63551C8.31877 5.34723 8.48238 5.91171 8.81779 6.32892ZM6.46174 4.8073V4.79503C6.46992 3.5352 6.68671 2.48806 7.11211 1.65362V1.64135C7.37389 1.18323 7.7093 0.806913 8.11834 0.512405C8.42921 0.307887 8.74826 0.176995 9.07549 0.119729C9.4109 0.0542829 9.80767 0.0215598 10.2658 0.0215598C10.7321 0.0215598 11.1289 0.0542829 11.4561 0.119729C11.7915 0.176995 12.1146 0.307887 12.4255 0.512405H12.4378C12.8386 0.806913 13.17 1.18732 13.4317 1.65362H13.444C13.8694 2.49624 14.0821 3.54338 14.0821 4.79503V4.8073C14.0739 5.3636 13.9921 5.85853 13.8367 6.29211C13.6894 6.71751 13.4399 7.13064 13.0881 7.5315V7.54377C12.7282 7.9119 12.311 8.19005 11.8365 8.3782C11.4193 8.52546 10.8998 8.59908 10.2781 8.59908C9.65632 8.59908 9.13275 8.52546 8.70735 8.3782C8.23287 8.19005 7.81565 7.9119 7.4557 7.54377V7.5315C7.10393 7.13064 6.85032 6.71751 6.69489 6.29211C6.54763 5.85853 6.46992 5.3636 6.46174 4.8073Z" fill="black"/>
<path id="Vector_4" d="M0.103944 4.53691C0.136667 4.33239 0.165299 4.11151 0.189842 3.87427C0.214384 3.62885 0.230745 3.40797 0.238926 3.21163C0.247107 3.01529 0.251197 2.76987 0.251197 2.47536C0.251197 2.18085 0.247107 1.95588 0.238926 1.80045C0.230745 1.64501 0.222565 1.41186 0.214384 1.10099C0.206203 0.781944 0.198022 0.577425 0.189842 0.487437C0.189842 0.421991 0.202113 0.340183 0.226655 0.242014C0.259378 0.143845 0.300282 0.078399 0.349366 0.0456759C0.365728 0.0374953 0.38209 0.0293143 0.398451 0.0211332C0.463897 0.0129525 0.975194 0.0088622 1.93234 0.0088622C2.08778 0.0088622 2.29639 0.0415853 2.55817 0.107031C2.8854 0.180658 3.25763 0.20111 3.67484 0.168387C4.10024 0.127483 4.47247 0.0824893 4.79152 0.0334049C5.11875 -0.0238606 5.53597 -0.00749912 6.04317 0.0824895C6.04317 0.0824895 6.04726 0.0824895 6.05544 0.0824895C6.11271 0.0988508 6.14543 0.139755 6.15361 0.205201C6.18634 0.368816 6.18634 0.552883 6.15361 0.757401C6.15361 0.781944 6.14134 0.867842 6.1168 1.0151C6.09226 1.16235 6.07999 1.24007 6.07999 1.24825C6.08817 1.24825 6.08408 1.32596 6.06772 1.4814C6.05953 1.62865 6.06772 1.71864 6.09226 1.75136C6.10044 1.80045 6.08408 1.84544 6.04317 1.88635C6.01045 1.92725 5.96955 1.94361 5.92046 1.93543V1.92316C5.56051 1.87407 5.16783 1.87407 4.74243 1.92316C4.31703 1.97224 3.96935 2.02133 3.69939 2.07041C3.42942 2.11132 3.04902 2.08268 2.55817 1.98451C2.40274 1.93543 2.23094 1.90271 2.04278 1.88635C2.00188 1.88635 1.96916 1.90271 1.94461 1.93543C1.92007 1.95997 1.9078 1.98861 1.9078 2.02133C1.98961 2.55308 2.03869 2.94575 2.05505 3.19936C2.05505 3.2648 2.08778 3.30162 2.15322 3.3098C2.25957 3.32616 2.35365 3.34661 2.43546 3.37115C2.71361 3.44478 3.01629 3.46523 3.34352 3.43251C3.67075 3.3916 3.92845 3.34661 4.11661 3.29753C4.31294 3.24026 4.55019 3.25253 4.82833 3.33434C4.86923 3.34252 4.89378 3.36706 4.90196 3.40797C4.90196 3.41615 4.90605 3.4366 4.91423 3.46932C4.92241 3.64112 4.92241 3.82519 4.91423 4.02152C4.88151 4.48783 4.86923 4.81506 4.87742 5.00321C4.8856 5.06048 4.88151 5.10956 4.86514 5.15047C4.8406 5.18319 4.82015 5.19546 4.80379 5.18728H4.79152C4.59518 5.13002 4.36612 5.12593 4.10433 5.17501C3.84255 5.22409 3.60122 5.27318 3.38034 5.32226C3.15946 5.37135 2.8445 5.34271 2.43546 5.23637C2.30457 5.20364 2.17368 5.17501 2.04278 5.15047C2.01006 5.15047 1.97734 5.15865 1.94461 5.17501C1.92007 5.19955 1.9078 5.22818 1.9078 5.26091C1.89962 5.59632 1.93643 6.12807 2.01824 6.85616C2.10005 7.57606 2.10414 8.1119 2.03051 8.46367C2.02233 8.4964 2.00597 8.52094 1.98143 8.5373C1.95689 8.55366 1.93234 8.56184 1.9078 8.56184C1.736 8.59457 1.55194 8.60684 1.3556 8.59866C0.881116 8.56593 0.553885 8.56184 0.373909 8.58639C0.316643 8.59457 0.267559 8.58639 0.226655 8.56184C0.185751 8.5373 0.16939 8.50049 0.177571 8.4514C0.226655 8.09963 0.222565 7.69468 0.165299 7.23656C0.116215 6.77844 0.0671303 6.37349 0.0180458 6.02172C-0.022858 5.66995 0.00577467 5.17501 0.103944 4.53691Z" fill="black"/>
</g>
</svg>
