<svg width="181" height="30" viewBox="0 0 181 30" fill="none" xmlns="http://www.w3.org/2000/svg">
<path id="Union" d="M114.342 0.28161C115.303 0.168601 116.277 0.154789 117.266 0.23953C117.464 0.23953 117.62 0.324441 117.733 0.493968C118.524 1.76546 119.4 3.95489 120.361 7.06239C121.349 10.142 122.353 12.5296 123.37 14.2248C124.217 15.6658 124.895 17.3898 125.403 19.3958C125.912 21.3735 126.379 23.2665 126.803 25.0747C127.255 26.8547 127.806 28.2538 128.456 29.2709C128.568 29.4121 128.582 29.5535 128.498 29.6947C128.469 29.7512 128.102 29.7512 127.396 29.6947C126.689 29.6382 125.87 29.5819 124.937 29.5254C124.005 29.4689 123.044 29.5251 122.055 29.6947C121.716 29.7794 121.49 29.652 121.377 29.313C121.038 28.4089 120.671 27.1232 120.275 25.4563C120.219 25.2304 120.091 25.1177 119.894 25.1177C119.385 25.0895 118.863 25.1458 118.326 25.287C117.817 25.4 117.379 25.5126 117.012 25.6256C116.673 25.7386 116.249 25.7959 115.741 25.7959C115.232 25.7959 114.695 25.6823 114.13 25.4563C113.706 25.2587 113.268 25.1311 112.816 25.0747C112.365 24.9899 111.983 24.9623 111.672 24.9905C111.362 24.9905 110.923 25.0181 110.358 25.0747C109.821 25.1312 109.398 25.1598 109.087 25.1598C108.889 25.1598 108.762 25.2586 108.705 25.4563C108.253 27.0667 107.843 28.3524 107.476 29.313C107.363 29.6521 107.137 29.7794 106.798 29.6947C106.374 29.6099 105.894 29.5675 105.357 29.5674C104.849 29.5392 104.397 29.5392 104.001 29.5674C103.634 29.5957 103.153 29.6382 102.56 29.6947C101.966 29.7512 101.5 29.7798 101.161 29.7798C100.935 29.808 100.751 29.723 100.61 29.5254C100.497 29.2993 100.497 29.0871 100.61 28.8893C101.175 27.8722 101.698 26.4738 102.178 24.694C102.658 22.9141 103.182 21.0773 103.747 19.1844C104.34 17.2631 105.046 15.6093 105.865 14.2248C106.854 12.5296 107.83 10.142 108.79 7.06239C109.779 3.98286 110.655 1.82127 111.418 0.578128C111.559 0.380511 111.757 0.28162 112.011 0.28161C112.604 0.366374 113.381 0.366374 114.342 0.28161ZM130.739 0.113289C133.818 0.000270465 137.52 0.297456 141.843 1.00382C144.499 1.51241 146.689 2.27465 148.412 3.29181C149.401 3.94164 150.221 4.63383 150.871 5.36842C151.52 6.10304 152.114 6.99362 152.651 8.03904V8.08112C153.47 9.88942 153.865 11.9382 153.837 14.2268C153.837 15.3569 153.809 16.3177 153.753 17.1088C153.696 17.8999 153.498 18.8182 153.159 19.8636C152.848 20.9089 152.41 21.7285 151.845 22.3218C151.648 22.5196 151.308 22.9146 150.828 23.5079C150.375 24.1013 149.952 24.6384 149.556 25.1187C149.161 25.5707 148.54 26.1079 147.692 26.7295C146.873 27.351 145.968 27.8734 144.979 28.2972C143.99 28.6928 142.69 29.0462 141.08 29.357C139.498 29.6395 137.732 29.7808 135.782 29.7808C135.5 29.7808 134.624 29.7383 133.155 29.6536C131.686 29.5688 130.866 29.5689 130.697 29.6536C130.499 29.6818 130.329 29.6541 130.188 29.5694C130.047 29.4565 129.99 29.3289 130.018 29.1877C130.188 27.9729 130.174 26.5883 129.976 25.0345C129.807 23.4523 129.637 22.067 129.467 20.8803C129.326 19.6937 129.425 17.9844 129.764 15.7524C130.131 13.7464 130.23 11.1189 130.06 7.86974C129.919 4.62046 130.004 2.1758 130.315 0.537027V0.494947C130.4 0.240755 130.541 0.113389 130.739 0.113289ZM9.13189 0.113289C11.1943 0.000277783 12.6498 -0.0283453 13.4975 0.0281503H13.5395C15.4609 0.254188 17.0722 0.903863 18.3719 1.97754C19.1064 2.65552 19.6852 3.44674 20.1089 4.35066V4.39372C20.4762 5.26957 20.6747 6.23038 20.703 7.27572C20.7312 8.43393 20.5613 9.56391 20.1941 10.6656C20.0246 11.0893 19.8695 11.4429 19.7283 11.7255C19.6718 11.8102 19.657 11.909 19.6852 12.022C19.7417 12.135 19.8266 12.2199 19.9396 12.2764C21.4935 12.898 22.6943 13.8303 23.5419 15.0733C24.4178 16.3165 24.8423 17.8005 24.8141 19.524C24.6728 22.3211 23.33 24.6376 20.7871 26.4741C18.9788 27.689 16.7464 28.5934 14.0905 29.1868C12.254 29.554 10.0075 29.7516 7.3518 29.7798C7.01228 29.7798 5.98117 29.7373 4.25841 29.6526C2.53488 29.5396 1.54557 29.5396 1.29127 29.6526C1.09376 29.6808 0.924518 29.653 0.783376 29.5684C0.642112 29.4554 0.584857 29.328 0.613098 29.1868C0.782621 27.9719 0.768783 26.5875 0.571018 25.0336C0.401505 23.4514 0.231655 22.067 0.0621416 20.8803C-0.0791315 19.6936 0.020583 17.9836 0.359639 15.7515C0.726895 13.7454 0.825675 11.1317 0.656157 7.91084C0.514898 4.68993 0.599802 2.25992 0.910595 0.621187C0.910663 0.593068 0.924489 0.579107 0.952675 0.579107C1.00918 0.381324 1.13655 0.253958 1.33433 0.19745H1.37641C2.02621 0.112696 3.09976 0.0702381 4.59701 0.0702304H4.64007C5.60067 0.211461 7.09794 0.226273 9.13189 0.113289ZM62.6461 0.154391C64.2565 0.154391 65.6271 0.267959 66.7572 0.493968C67.9157 0.691751 69.0324 1.14395 70.106 1.85032H70.1481C71.5324 2.86742 72.677 4.18083 73.5811 5.79118H73.6232C75.0924 8.70135 75.827 12.3182 75.827 16.641V16.6841C75.7987 18.6052 75.5163 20.3146 74.9795 21.812C74.4709 23.2812 73.6089 24.708 72.394 26.0924V26.1345C71.1509 27.4059 69.7102 28.3666 68.0715 29.0165C66.6306 29.525 64.8364 29.7798 62.6892 29.7798C60.5418 29.7798 58.733 29.5251 57.2638 29.0165C55.6251 28.3666 54.1844 27.4059 52.9413 26.1345V26.0924C51.7264 24.708 50.8505 23.2811 50.3137 21.812C49.8051 20.3146 49.5366 18.6052 49.5083 16.6841V16.641C49.5366 12.2899 50.285 8.6731 51.7542 5.79118V5.7491C52.6583 4.167 53.8167 2.86744 55.2292 1.85032C56.3028 1.14405 57.405 0.691794 58.535 0.493968C59.6933 0.267947 61.064 0.154408 62.6461 0.154391ZM167.819 0.154391C169.429 0.154391 170.8 0.26797 171.93 0.493968C173.089 0.691751 174.205 1.14395 175.279 1.85032H175.321C176.705 2.86742 177.85 4.18083 178.754 5.79118H178.796C180.265 8.70135 181 12.3182 181 16.641V16.6841C180.972 18.6052 180.689 20.3146 180.153 21.812C179.644 23.2812 178.782 24.708 177.567 26.0924V26.1345C176.324 27.4059 174.883 28.3666 173.245 29.0165C171.804 29.5251 170.009 29.7798 167.862 29.7798C165.715 29.7798 163.906 29.5251 162.437 29.0165C160.798 28.3666 159.357 27.4059 158.114 26.1345V26.0924C156.899 24.708 156.024 23.2811 155.487 21.812C154.978 20.3146 154.71 18.6052 154.681 16.6841V16.641C154.71 12.2899 155.458 8.6731 156.927 5.79118V5.7491C157.831 4.16702 158.99 2.86743 160.402 1.85032C161.476 1.14395 162.579 0.691751 163.709 0.493968C164.867 0.268002 166.237 0.154412 167.819 0.154391ZM88.8836 0.112311C90.5224 0.0840563 91.9214 0.281528 93.0799 0.705347C94.2664 1.10094 95.411 1.83559 96.5128 2.90917C97.5581 3.98275 98.363 5.26856 98.928 6.76587C99.2953 7.72653 99.5501 8.7583 99.6913 9.86023C99.7761 10.51 99.705 10.9337 99.479 11.1314C98.9704 11.4987 98.3345 11.5975 97.5717 11.428C97.4586 11.3997 97.2469 11.3572 96.9366 11.3007C96.654 11.216 96.4556 11.1597 96.3425 11.1314C96.2577 11.1032 96.1025 11.0745 95.8767 11.0463C95.6508 11.0181 95.467 11.0181 95.3258 11.0463C95.1845 11.0746 95.0008 11.117 94.7748 11.1735C94.577 11.23 94.3647 11.3011 94.1387 11.3859V11.428C93.9692 11.5126 93.7855 11.4278 93.5878 11.1735C93.4185 10.9477 93.3057 10.6795 93.2492 10.3691C93.1927 10.0019 93.1077 9.63436 92.9947 9.26719C92.7122 8.53257 92.3587 7.953 91.9349 7.52918V7.4871C91.5393 7.11979 91.0447 6.85124 90.4513 6.68171V6.63865C89.8015 6.49747 89.0104 6.46975 88.0782 6.55449C87.2871 6.69577 86.6087 6.97818 86.0437 7.40197V7.44405C85.5352 7.83955 85.0976 8.39074 84.7304 9.09692C83.8827 10.8769 83.3881 13.2082 83.2468 16.0901C83.1903 18.5482 83.7551 20.4982 84.9417 21.9392C85.535 22.5889 86.2274 23.0689 87.0184 23.3797C87.866 23.6905 88.8415 23.8317 89.9434 23.8034H89.9855C90.8049 23.7469 91.5681 23.5356 92.2745 23.1683C93.6588 22.462 94.7184 21.3599 95.453 19.8626C95.679 19.354 95.8488 18.8732 95.9619 18.4211C96.0466 18.1104 96.1879 17.9128 96.3856 17.8281L96.4277 17.786C97.0775 17.5882 97.7983 17.6158 98.5894 17.8701C99.3804 18.0961 100.073 18.1248 100.666 17.9553H100.708C100.821 17.927 100.906 17.9695 100.963 18.0825C101.047 18.1953 101.104 18.3222 101.132 18.4632C101.273 18.8587 101.273 19.3257 101.132 19.8626C100.962 20.5122 100.765 21.1337 100.539 21.7268V21.7699C99.9737 23.126 99.2242 24.3693 98.2919 25.4994C97.2748 26.6859 96.1026 27.6468 94.7748 28.3814C93.2773 29.1442 91.6807 29.5955 89.9855 29.7367C88.036 29.8498 86.228 29.6098 84.5611 29.0165C82.9223 28.3666 81.4808 27.4059 80.2376 26.1345V26.0924C79.0227 24.708 78.1468 23.2811 77.61 21.812C77.1014 20.3145 76.8329 18.6044 76.8046 16.6831V16.641C76.8329 12.2899 77.5813 8.67311 79.0505 5.79118V5.7491C79.9547 4.16686 81.1138 2.86748 82.5265 1.85032C84.2501 0.720137 86.3689 0.140568 88.8836 0.112311ZM27.1383 0.113289C27.6469 0.000270465 28.3113 0.000270465 29.1307 0.113289C29.9498 0.226253 30.5712 0.268714 30.995 0.240508C34.3288 0.0709906 37.2675 0.113474 39.8103 0.367727H39.8533C41.0398 0.537233 42.071 0.791097 42.9467 1.13006C43.8226 1.44086 44.6846 1.93556 45.5322 2.61363C46.4646 3.43299 47.1715 4.40757 47.6519 5.53772V5.58077C48.1038 6.73907 48.2728 7.99631 48.1598 9.35233C48.1315 9.66301 48.0752 10.002 47.9905 10.3691C47.7644 11.245 47.4534 12.0507 47.0579 12.7853C46.521 13.7459 45.815 14.5655 44.9392 15.2436V15.2856C44.0633 15.9355 43.1164 16.4726 42.0992 16.8964C41.9863 16.9529 41.9161 17.0518 41.8879 17.1929C41.8596 17.3342 41.8873 17.4616 41.972 17.5746C42.9327 18.5635 43.5547 19.6516 43.8373 20.8383H43.8793C44.1901 21.94 44.6562 22.9148 45.2778 23.7623C45.9276 24.6099 46.5921 25.4572 47.2702 26.3048C47.9765 27.1241 48.5275 27.9861 48.9231 28.8903C49.0078 29.088 48.993 29.2717 48.88 29.4412C48.767 29.6107 48.612 29.7095 48.4142 29.7377C47.8491 29.7942 47.0157 29.7518 45.9139 29.6105C44.8403 29.4693 43.9644 29.4555 43.2863 29.5684C42.9474 29.6249 42.6648 29.5546 42.4388 29.357C42.2411 29.1593 41.8735 28.8342 41.3369 28.3824C40.8283 27.902 40.4324 27.5199 40.1499 27.2374C39.8673 26.9548 39.5424 26.545 39.1752 26.0082C38.8362 25.4714 38.5814 24.9066 38.4119 24.3133C38.2989 24.0309 38.1862 23.7483 38.0733 23.4658C37.9602 23.1833 37.819 22.8861 37.6495 22.5753C37.4801 22.2647 37.3387 22.0107 37.2258 21.813C37.1128 21.6152 36.929 21.3465 36.6748 21.0076C36.4488 20.6402 36.279 20.3855 36.1659 20.2442C36.0811 20.1029 35.8835 19.8342 35.5729 19.4388C35.2905 19.0153 35.1206 18.7613 35.064 18.6765C34.9793 18.5352 34.8519 18.479 34.6824 18.5072C34.0608 18.5355 33.4673 18.5355 32.9023 18.5072C32.7611 18.5073 32.6484 18.5497 32.5637 18.6344C32.5072 18.7192 32.4785 18.818 32.4785 18.931C32.5068 19.5525 32.5779 20.3575 32.6909 21.3462C32.8039 22.3068 32.8888 23.1411 32.9453 23.8475C33.0018 24.5255 33.0295 25.3591 33.0295 26.3478C33.0295 27.3084 32.9594 28.2268 32.8181 29.1026C32.7616 29.3851 32.6056 29.5402 32.3513 29.5684C31.7863 29.7097 31.1503 29.7235 30.444 29.6105C30.2745 29.5823 30.0343 29.5407 29.7238 29.4843C29.4412 29.3995 29.2151 29.357 29.0456 29.357C28.9043 29.3288 28.7206 29.3002 28.4946 29.2719C28.2686 29.2437 28.0424 29.2437 27.8165 29.2719C27.5906 29.2719 27.3364 29.2858 27.0541 29.314C26.8563 29.3422 26.7003 29.286 26.5873 29.1447C26.4462 28.9752 26.3898 28.7914 26.418 28.5937C26.6158 26.955 26.5309 24.6663 26.1636 21.7278C25.7963 18.7614 25.825 16.4447 26.2487 14.7777C26.5595 13.252 26.6869 11.6268 26.6304 9.90329C26.6021 8.15167 26.531 6.66843 26.418 5.45356C26.305 4.21035 26.3899 2.58519 26.6725 0.579107C26.729 0.296821 26.8842 0.141618 27.1383 0.113289ZM136.503 6.76783C136.361 6.73961 136.234 6.78205 136.121 6.89505C136.037 6.97976 136.009 7.09261 136.037 7.23364C136.206 8.36356 136.319 9.25348 136.375 9.90329C136.46 10.5531 136.503 11.4437 136.503 12.5739C136.503 13.6757 136.418 14.7492 136.248 15.7945C136.163 16.2183 136.093 16.6429 136.037 17.0667C136.009 17.4903 135.994 17.9421 135.994 18.4221V19.567C135.994 19.8496 136.009 20.2733 136.037 20.8383C136.093 21.3751 136.121 21.7286 136.121 21.8981C136.149 22.0678 136.207 22.4777 136.291 23.1272C136.376 23.7478 136.418 24.1007 136.419 24.1861C136.447 24.4404 136.588 24.5539 136.842 24.5257C137.774 24.4409 138.622 24.2997 139.385 24.1019C140.148 23.9041 140.77 23.7057 141.25 23.5079C141.758 23.3101 142.281 23.0138 142.818 22.6183C143.383 22.1946 143.792 21.8697 144.047 21.6437C144.301 21.3894 144.682 20.9934 145.191 20.4566C145.699 19.92 146.067 19.5387 146.293 19.3126C147.027 18.5781 147.479 17.6457 147.649 16.5157C147.819 15.3575 147.791 14.3116 147.565 13.3793C147.367 12.4469 147.07 11.5849 146.674 10.7938C146.109 9.72015 145.318 8.95693 144.301 8.50486C143.312 8.02456 142.027 7.62957 140.445 7.31878C139.286 7.14926 137.972 6.96561 136.503 6.76783ZM64.5965 6.55449C63.3251 6.44148 62.0533 6.44149 60.7819 6.55449V6.59657C59.9907 6.70959 59.3124 6.97815 58.7473 7.40197V7.44405C58.2388 7.86785 57.8004 8.41885 57.4331 9.09692V9.13997C56.5856 10.8917 56.0918 13.2084 55.9505 16.0901C55.9222 18.5482 56.487 20.4982 57.6454 21.9392H57.6875C58.2526 22.589 58.931 23.0689 59.722 23.3797H59.7641C60.5552 23.6622 61.5161 23.8034 62.6461 23.8034C63.8046 23.8034 64.7939 23.6623 65.6133 23.3797H65.6553C66.4464 23.0689 67.1248 22.589 67.6899 21.9392C68.8766 20.4982 69.4413 18.5482 69.3848 16.0901C69.2718 13.2084 68.7918 10.8917 67.9443 9.13997V9.09692C67.5488 8.39066 67.1103 7.83957 66.63 7.44405V7.40197C66.0651 6.97832 65.3873 6.70961 64.5965 6.59657V6.55449ZM169.769 6.55449C168.498 6.44147 167.226 6.44148 165.955 6.55449V6.59657C165.164 6.70959 164.485 6.97814 163.92 7.40197V7.44405C163.412 7.86777 162.974 8.41902 162.607 9.09692V9.13997C161.759 10.8917 161.265 13.2082 161.123 16.0901C161.095 18.5482 161.66 20.4982 162.818 21.9392H162.861C163.426 22.589 164.104 23.0689 164.895 23.3797H164.937C165.728 23.6622 166.689 23.8034 167.819 23.8034C168.978 23.8034 169.967 23.6623 170.786 23.3797H170.828C171.619 23.0689 172.298 22.589 172.863 21.9392C174.05 20.4982 174.614 18.5482 174.558 16.0901C174.445 13.2083 173.965 10.8917 173.117 9.13997V9.09692C172.722 8.39068 172.283 7.83956 171.803 7.44405V7.40197C171.238 6.97833 170.56 6.7096 169.769 6.59657V6.55449ZM15.2775 17.3622C14.1474 17.2492 12.6781 17.2631 10.8699 17.4043C9.06162 17.5173 7.77607 17.5598 7.0132 17.5315C6.73066 17.5315 6.58947 17.6589 6.58946 17.9132C6.53295 19.2129 6.63169 20.9368 6.88598 23.0842C6.91431 23.3382 7.05563 23.4648 7.30972 23.4648C9.1179 23.4366 11.0534 23.1828 13.1158 22.7025C13.2571 22.6743 13.6392 22.6032 14.2608 22.4902C14.882 22.349 15.3623 22.2224 15.7013 22.1095C16.0685 21.9965 16.4784 21.8266 16.9304 21.6006C17.4107 21.3746 17.7642 21.0774 17.9902 20.7101C18.2444 20.3428 18.3719 19.919 18.3719 19.4388C18.3719 19.2695 18.3432 19.1142 18.2868 18.973C18.2585 18.8037 18.2021 18.6623 18.1175 18.5493C18.061 18.4363 17.976 18.3227 17.863 18.2097C17.75 18.0967 17.6365 18.0118 17.5235 17.9553C17.4387 17.8707 17.3119 17.8003 17.1428 17.7439C16.9734 17.6875 16.832 17.6449 16.719 17.6167C16.6343 17.5884 16.4929 17.5598 16.2953 17.5315C16.1259 17.4751 15.9984 17.4474 15.9136 17.4474C15.8571 17.4191 15.7436 17.4043 15.5741 17.4043C15.4047 17.3761 15.3058 17.3622 15.2775 17.3622ZM114.597 10.0295C114.286 10.0295 114.088 10.1848 114.003 10.4953C113.212 13.4901 112.505 15.5104 111.884 16.5559C111.601 17.0362 111.319 17.6019 111.036 18.2518C110.98 18.393 110.994 18.5343 111.078 18.6755C111.191 18.7885 111.333 18.8309 111.502 18.8028C112.519 18.5767 113.424 18.633 114.215 18.9721C114.469 19.085 114.709 19.17 114.935 19.2265C115.189 19.283 115.472 19.2968 115.783 19.2686C116.093 19.2403 116.306 19.2265 116.419 19.2265C116.532 19.1982 116.786 19.142 117.182 19.0572C117.577 18.9442 117.818 18.8731 117.902 18.8448C118.015 18.8166 118.1 18.7463 118.157 18.6335C118.213 18.5205 118.213 18.4069 118.157 18.2939C117.902 17.6723 117.62 17.0927 117.309 16.5559C116.716 15.4822 116.009 13.4619 115.19 10.4953C115.105 10.1848 114.907 10.0296 114.597 10.0295ZM167.978 12.7187C168.289 12.7187 168.554 12.7398 168.772 12.7824C168.996 12.8196 169.213 12.9046 169.42 13.0378H169.428C169.696 13.2295 169.917 13.4779 170.091 13.7815H170.1C170.384 14.3301 170.526 15.0121 170.526 15.8268V15.8346C170.52 16.1968 170.465 16.5192 170.362 16.8015C170.263 17.0782 170.097 17.3471 169.862 17.6079V17.6167C169.622 17.8563 169.343 18.0373 169.027 18.1598C168.748 18.2557 168.401 18.3037 167.985 18.3037C167.571 18.3036 167.221 18.2556 166.937 18.1598C166.621 18.0373 166.341 17.8564 166.101 17.6167V17.6079C165.866 17.347 165.697 17.0783 165.593 16.8015C165.494 16.5192 165.443 16.1968 165.437 15.8346V15.8268C165.443 15.0067 165.588 14.3248 165.872 13.7815V13.7727C166.046 13.4746 166.271 13.2295 166.544 13.0378C166.751 12.9048 166.965 12.8196 167.183 12.7824C167.407 12.7398 167.672 12.7187 167.978 12.7187ZM32.9023 6.68269C32.7611 6.68274 32.6484 6.73905 32.5637 6.85199C32.4789 6.93673 32.4503 7.03551 32.4785 7.14851C32.8741 9.43713 33.0439 11.2173 32.9874 12.4888C32.9874 12.63 33.0299 12.7426 33.1146 12.8274C33.1994 12.9121 33.2981 12.9408 33.4112 12.9125C35.0782 12.7712 36.7597 12.3901 38.4549 11.7685C39.1047 11.5142 39.7683 11.1745 40.4464 10.7508C41.1245 10.327 41.5342 9.87473 41.6755 9.39441V9.35233C41.7603 8.87203 41.7464 8.47607 41.6334 8.16528V8.1232C41.5204 7.89718 41.3506 7.69968 41.1246 7.53016C40.5595 7.16286 39.6836 6.92293 38.497 6.80991C37.8189 6.7534 36.8442 6.72477 35.5729 6.72477C34.3015 6.72477 33.4109 6.71094 32.9023 6.68269ZM9.64076 6.59755C8.51064 6.65405 7.63478 6.66788 7.0132 6.63963C6.87208 6.63963 6.75933 6.69615 6.6746 6.80893C6.61815 6.8936 6.58952 6.99259 6.58946 7.10545C6.90026 8.97025 7.07008 10.3979 7.09834 11.3869C7.12672 11.6408 7.26795 11.7675 7.52207 11.7675C7.91762 11.7675 8.4826 11.7537 9.21702 11.7255L9.2591 11.6834C10.0784 11.6834 10.8556 11.5984 11.5901 11.4289C12.353 11.2312 13.0175 10.8777 13.5826 10.3691C14.1757 9.83238 14.4444 9.16852 14.388 8.37764C14.3597 7.72778 14.1761 7.26078 13.837 6.97823C13.498 6.69571 13.0032 6.52685 12.3535 6.47033H12.3114C11.6898 6.49858 10.7992 6.54104 9.64076 6.59755Z" fill="url(#paint0_linear_0_328)"/>
<defs>
<linearGradient id="paint0_linear_0_328" x1="0.000488775" y1="40.9536" x2="180.952" y2="-46.1084" gradientUnits="userSpaceOnUse">
<stop stop-color="#A72901"/>
<stop offset="0.5" stop-color="#F96700"/>
<stop offset="1" stop-color="#FFDF0E"/>
</linearGradient>
</defs>
</svg>
